<?xml version="1.0" encoding="utf-8" standalone="no"?>
<!DOCTYPE svg PUBLIC "-//W3C//DTD SVG 1.1//EN"
  "http://www.w3.org/Graphics/SVG/1.1/DTD/svg11.dtd">
<svg xmlns:xlink="http://www.w3.org/1999/xlink" width="360pt" height="360pt" viewBox="0 0 360 360" xmlns="http://www.w3.org/2000/svg" version="1.1">
 <metadata>
  <rdf:RDF xmlns:dc="http://purl.org/dc/elements/1.1/" xmlns:cc="http://creativecommons.org/ns#" xmlns:rdf="http://www.w3.org/1999/02/22-rdf-syntax-ns#">
   <cc:Work>
    <dc:type rdf:resource="http://purl.org/dc/dcmitype/StillImage"/>
    <dc:date>2024-11-07T15:27:42.445386</dc:date>
    <dc:format>image/svg+xml</dc:format>
    <dc:creator>
     <cc:Agent>
      <dc:title>Matplotlib v3.5.2, https://matplotlib.org/</dc:title>
     </cc:Agent>
    </dc:creator>
   </cc:Work>
  </rdf:RDF>
 </metadata>
 <defs>
  <style type="text/css">*{stroke-linejoin: round; stroke-linecap: butt}</style>
 </defs>
 <g id="figure_1">
  <g id="patch_1">
   <path d="M 0 360 
L 360 360 
L 360 0 
L 0 0 
z
" style="fill: #ffffff"/>
  </g>
  <g id="axes_1">
   <g id="patch_2">
    <path d="M 0 360 
L 144 360 
L 144 72 
L 0 72 
z
" style="fill: #ffffff"/>
   </g>
   <g id="LineCollection_1">
    <path d="M -1 85.090909 
L 361 85.090909 
" clip-path="url(#p79a22214e7)" style="fill: none; stroke-dasharray: 5.55,2.4; stroke-dashoffset: 0; stroke: #000000; stroke-width: 1.5"/>
    <path d="M -1 114.181818 
L 361 114.181818 
" clip-path="url(#p79a22214e7)" style="fill: none; stroke-dasharray: 5.55,2.4; stroke-dashoffset: 0; stroke: #000000; stroke-width: 1.5"/>
    <path d="M -1 143.272727 
L 361 143.272727 
" clip-path="url(#p79a22214e7)" style="fill: none; stroke-dasharray: 5.55,2.4; stroke-dashoffset: 0; stroke: #000000; stroke-width: 1.5"/>
    <path d="M -1 172.363636 
L 361 172.363636 
" clip-path="url(#p79a22214e7)" style="fill: none; stroke-dasharray: 5.55,2.4; stroke-dashoffset: 0; stroke: #000000; stroke-width: 1.5"/>
    <path d="M -1 201.454545 
L 361 201.454545 
" clip-path="url(#p79a22214e7)" style="fill: none; stroke-dasharray: 5.55,2.4; stroke-dashoffset: 0; stroke: #000000; stroke-width: 1.5"/>
    <path d="M -1 230.545455 
L 361 230.545455 
" clip-path="url(#p79a22214e7)" style="fill: none; stroke-dasharray: 5.55,2.4; stroke-dashoffset: 0; stroke: #000000; stroke-width: 1.5"/>
    <path d="M -1 259.636364 
L 361 259.636364 
" clip-path="url(#p79a22214e7)" style="fill: none; stroke-dasharray: 5.55,2.4; stroke-dashoffset: 0; stroke: #000000; stroke-width: 1.5"/>
    <path d="M -1 288.727273 
L 361 288.727273 
" clip-path="url(#p79a22214e7)" style="fill: none; stroke-dasharray: 5.55,2.4; stroke-dashoffset: 0; stroke: #000000; stroke-width: 1.5"/>
    <path d="M -1 317.818182 
L 361 317.818182 
" clip-path="url(#p79a22214e7)" style="fill: none; stroke-dasharray: 5.55,2.4; stroke-dashoffset: 0; stroke: #000000; stroke-width: 1.5"/>
    <path d="M -1 346.909091 
L 361 346.909091 
" clip-path="url(#p79a22214e7)" style="fill: none; stroke-dasharray: 5.55,2.4; stroke-dashoffset: 0; stroke: #000000; stroke-width: 1.5"/>
   </g>
   <g id="PathCollection_1">
    <path d="M 53.123996 95.385233 
C 55.854083 95.385233 58.47272 94.300558 60.403182 92.370095 
C 62.333645 90.439632 63.41832 87.820996 63.41832 85.090909 
C 63.41832 82.360823 62.333645 79.742186 60.403182 77.811723 
C 58.47272 75.88126 55.854083 74.796585 53.123996 74.796585 
C 50.39391 74.796585 47.775273 75.88126 45.84481 77.811723 
C 43.914347 79.742186 42.829673 82.360823 42.829673 85.090909 
C 42.829673 87.820996 43.914347 90.439632 45.84481 92.370095 
C 47.775273 94.300558 50.39391 95.385233 53.123996 95.385233 
z
" clip-path="url(#p79a22214e7)" style="fill: #fb6e4e; stroke: #000000; stroke-width: 1.057631"/>
    <path d="M 30.19585 126.364499 
C 33.426734 126.364499 36.525726 125.080855 38.810306 122.796275 
C 41.094887 120.511694 42.378531 117.412703 42.378531 114.181818 
C 42.378531 110.950933 41.094887 107.851942 38.810306 105.567362 
C 36.525726 103.282781 33.426734 101.999137 30.19585 101.999137 
C 26.964965 101.999137 23.865974 103.282781 21.581393 105.567362 
C 19.296813 107.851942 18.013168 110.950933 18.013168 114.181818 
C 18.013168 117.412703 19.296813 120.511694 21.581393 122.796275 
C 23.865974 125.080855 26.964965 126.364499 30.19585 126.364499 
z
" clip-path="url(#p79a22214e7)" style="fill: #fb7858; stroke: #000000; stroke-width: 1.057631"/>
    <path d="M 65.321113 152.231582 
C 67.697029 152.231582 69.975954 151.28762 71.65598 149.607594 
C 73.336007 147.927568 74.279968 145.648643 74.279968 143.272727 
C 74.279968 140.896811 73.336007 138.617887 71.65598 136.93786 
C 69.975954 135.257834 67.697029 134.313873 65.321113 134.313873 
C 62.945197 134.313873 60.666273 135.257834 58.986247 136.93786 
C 57.30622 138.617887 56.362259 140.896811 56.362259 143.272727 
C 56.362259 145.648643 57.30622 147.927568 58.986247 149.607594 
C 60.666273 151.28762 62.945197 152.231582 65.321113 152.231582 
z
" clip-path="url(#p79a22214e7)" style="fill: #fc8464; stroke: #000000; stroke-width: 1.057631"/>
    <path d="M 68.864087 181.080799 
C 71.175906 181.080799 73.393349 180.162304 75.028052 178.527601 
C 76.662755 176.892899 77.58125 174.675455 77.58125 172.363636 
C 77.58125 170.051818 76.662755 167.834374 75.028052 166.199672 
C 73.393349 164.564969 71.175906 163.646474 68.864087 163.646474 
C 66.552269 163.646474 64.334825 164.564969 62.700122 166.199672 
C 61.06542 167.834374 60.146925 170.051818 60.146925 172.363636 
C 60.146925 174.675455 61.06542 176.892899 62.700122 178.527601 
C 64.334825 180.162304 66.552269 181.080799 68.864087 181.080799 
z
" clip-path="url(#p79a22214e7)" style="fill: #fc8666; stroke: #000000; stroke-width: 1.057631"/>
    <path d="M 54.884558 210.892886 
C 57.387635 210.892886 59.78853 209.898403 61.558473 208.12846 
C 63.328416 206.358517 64.322899 203.957623 64.322899 201.454545 
C 64.322899 198.951468 63.328416 196.550574 61.558473 194.780631 
C 59.78853 193.010688 57.387635 192.016205 54.884558 192.016205 
C 52.381481 192.016205 49.980586 193.010688 48.210643 194.780631 
C 46.4407 196.550574 45.446217 198.951468 45.446217 201.454545 
C 45.446217 203.957623 46.4407 206.358517 48.210643 208.12846 
C 49.980586 209.898403 52.381481 210.892886 54.884558 210.892886 
z
" clip-path="url(#p79a22214e7)" style="fill: #fc8969; stroke: #000000; stroke-width: 1.057631"/>
    <path d="M 62.0839 239.493264 
C 64.456886 239.493264 66.733001 238.550466 68.410956 236.872511 
C 70.088911 235.194556 71.031709 232.918441 71.031709 230.545455 
C 71.031709 228.172468 70.088911 225.896353 68.410956 224.218398 
C 66.733001 222.540443 64.456886 221.597645 62.0839 221.597645 
C 59.710913 221.597645 57.434798 222.540443 55.756843 224.218398 
C 54.078888 225.896353 53.13609 228.172468 53.13609 230.545455 
C 53.13609 232.918441 54.078888 235.194556 55.756843 236.872511 
C 57.434798 238.550466 59.710913 239.493264 62.0839 239.493264 
z
" clip-path="url(#p79a22214e7)" style="fill: #fc8b6b; stroke: #000000; stroke-width: 1.057631"/>
    <path d="M 137.454545 266.298414 
C 139.221342 266.298414 140.916013 265.596458 142.165326 264.347144 
C 143.41464 263.097831 144.116596 261.40316 144.116596 259.636364 
C 144.116596 257.869567 143.41464 256.174897 142.165326 254.925583 
C 140.916013 253.676269 139.221342 252.974314 137.454545 252.974314 
C 135.687749 252.974314 133.993078 253.676269 132.743765 254.925583 
C 131.494451 256.174897 130.792495 257.869567 130.792495 259.636364 
C 130.792495 261.40316 131.494451 263.097831 132.743765 264.347144 
C 133.993078 265.596458 135.687749 266.298414 137.454545 266.298414 
z
" clip-path="url(#p79a22214e7)" style="fill: #fc8d6d; stroke: #000000; stroke-width: 1.057631"/>
    <path d="M 6.545455 302.869408 
C 10.295993 302.869408 13.893424 301.379304 16.545455 298.727273 
C 19.197486 296.075242 20.68759 292.477811 20.68759 288.727273 
C 20.68759 284.976735 19.197486 281.379304 16.545455 278.727273 
C 13.893424 276.075242 10.295993 274.585137 6.545455 274.585137 
C 2.794916 274.585137 -0.802514 276.075242 -3.454545 278.727273 
C -6.106576 281.379304 -7.596681 284.976735 -7.596681 288.727273 
C -7.596681 292.477811 -6.106576 296.075242 -3.454545 298.727273 
C -0.802514 301.379304 2.794916 302.869408 6.545455 302.869408 
z
" clip-path="url(#p79a22214e7)" style="fill: #fca689; stroke: #000000; stroke-width: 1.057631"/>
    <path d="M 127.944593 323.941906 
C 129.568623 323.941906 131.126356 323.296672 132.27472 322.148309 
C 133.423083 320.999946 134.068317 319.442213 134.068317 317.818182 
C 134.068317 316.194151 133.423083 314.636418 132.27472 313.488055 
C 131.126356 312.339692 129.568623 311.694457 127.944593 311.694457 
C 126.320562 311.694457 124.762829 312.339692 123.614465 313.488055 
C 122.466102 314.636418 121.820868 316.194151 121.820868 317.818182 
C 121.820868 319.442213 122.466102 320.999946 123.614465 322.148309 
C 124.762829 323.296672 126.320562 323.941906 127.944593 323.941906 
z
" clip-path="url(#p79a22214e7)" style="fill: #fcb89e; stroke: #000000; stroke-width: 1.057631"/>
    <path d="M 88.424502 353.618474 
C 90.203851 353.618474 91.910562 352.911531 93.168752 351.653341 
C 94.426942 350.395151 95.133885 348.68844 95.133885 346.909091 
C 95.133885 345.129742 94.426942 343.42303 93.168752 342.164841 
C 91.910562 340.906651 90.203851 340.199708 88.424502 340.199708 
C 86.645153 340.199708 84.938442 340.906651 83.680252 342.164841 
C 82.422062 343.42303 81.715119 345.129742 81.715119 346.909091 
C 81.715119 348.68844 82.422062 350.395151 83.680252 351.653341 
C 84.938442 352.911531 86.645153 353.618474 88.424502 353.618474 
z
" clip-path="url(#p79a22214e7)" style="fill: #fcbba1; stroke: #000000; stroke-width: 1.057631"/>
   </g>
   <g id="PathCollection_2"/>
   <g id="PathCollection_3"/>
   <g id="PathCollection_4"/>
   <g id="PathCollection_5"/>
   <g id="PathCollection_6"/>
   <g id="PathCollection_7"/>
   <g id="PathCollection_8"/>
   <g id="PathCollection_9"/>
   <g id="PathCollection_10"/>
   <g id="PathCollection_11"/>
   <g id="PathCollection_12"/>
   <g id="matplotlib.axis_1">
    <g id="xtick_1">
     <g id="line2d_1">
      <defs>
       <path id="m48d67a578a" d="M 0 0 
L 0 10 
" style="stroke: #000000; stroke-width: 3"/>
      </defs>
      <g>
       <use xlink:href="#m48d67a578a" x="13.960247" y="360" style="stroke: #000000; stroke-width: 3"/>
      </g>
     </g>
     <g id="text_1">
      <!-- 1.25 -->
      <g transform="translate(-8.305378 388.696875)scale(0.2 -0.2)">
       <defs>
        <path id="DejaVuSans-31" d="M 794 531 
L 1825 531 
L 1825 4091 
L 703 3866 
L 703 4441 
L 1819 4666 
L 2450 4666 
L 2450 531 
L 3481 531 
L 3481 0 
L 794 0 
L 794 531 
z
" transform="scale(0.015625)"/>
        <path id="DejaVuSans-2e" d="M 684 794 
L 1344 794 
L 1344 0 
L 684 0 
L 684 794 
z
" transform="scale(0.015625)"/>
        <path id="DejaVuSans-32" d="M 1228 531 
L 3431 531 
L 3431 0 
L 469 0 
L 469 531 
Q 828 903 1448 1529 
Q 2069 2156 2228 2338 
Q 2531 2678 2651 2914 
Q 2772 3150 2772 3378 
Q 2772 3750 2511 3984 
Q 2250 4219 1831 4219 
Q 1534 4219 1204 4116 
Q 875 4013 500 3803 
L 500 4441 
Q 881 4594 1212 4672 
Q 1544 4750 1819 4750 
Q 2544 4750 2975 4387 
Q 3406 4025 3406 3419 
Q 3406 3131 3298 2873 
Q 3191 2616 2906 2266 
Q 2828 2175 2409 1742 
Q 1991 1309 1228 531 
z
" transform="scale(0.015625)"/>
        <path id="DejaVuSans-35" d="M 691 4666 
L 3169 4666 
L 3169 4134 
L 1269 4134 
L 1269 2991 
Q 1406 3038 1543 3061 
Q 1681 3084 1819 3084 
Q 2600 3084 3056 2656 
Q 3513 2228 3513 1497 
Q 3513 744 3044 326 
Q 2575 -91 1722 -91 
Q 1428 -91 1123 -41 
Q 819 9 494 109 
L 494 744 
Q 775 591 1075 516 
Q 1375 441 1709 441 
Q 2250 441 2565 725 
Q 2881 1009 2881 1497 
Q 2881 1984 2565 2268 
Q 2250 2553 1709 2553 
Q 1456 2553 1204 2497 
Q 953 2441 691 2322 
L 691 4666 
z
" transform="scale(0.015625)"/>
       </defs>
       <use xlink:href="#DejaVuSans-31"/>
       <use xlink:href="#DejaVuSans-2e" x="63.623047"/>
       <use xlink:href="#DejaVuSans-32" x="95.410156"/>
       <use xlink:href="#DejaVuSans-35" x="159.033203"/>
      </g>
     </g>
    </g>
    <g id="xtick_2">
     <g id="line2d_2">
      <g>
       <use xlink:href="#m48d67a578a" x="58.130596" y="360" style="stroke: #000000; stroke-width: 3"/>
      </g>
     </g>
     <g id="text_2">
      <!-- 1.50 -->
      <g transform="translate(35.864971 388.696875)scale(0.2 -0.2)">
       <defs>
        <path id="DejaVuSans-30" d="M 2034 4250 
Q 1547 4250 1301 3770 
Q 1056 3291 1056 2328 
Q 1056 1369 1301 889 
Q 1547 409 2034 409 
Q 2525 409 2770 889 
Q 3016 1369 3016 2328 
Q 3016 3291 2770 3770 
Q 2525 4250 2034 4250 
z
M 2034 4750 
Q 2819 4750 3233 4129 
Q 3647 3509 3647 2328 
Q 3647 1150 3233 529 
Q 2819 -91 2034 -91 
Q 1250 -91 836 529 
Q 422 1150 422 2328 
Q 422 3509 836 4129 
Q 1250 4750 2034 4750 
z
" transform="scale(0.015625)"/>
       </defs>
       <use xlink:href="#DejaVuSans-31"/>
       <use xlink:href="#DejaVuSans-2e" x="63.623047"/>
       <use xlink:href="#DejaVuSans-35" x="95.410156"/>
       <use xlink:href="#DejaVuSans-30" x="159.033203"/>
      </g>
     </g>
    </g>
    <g id="xtick_3">
     <g id="line2d_3">
      <g>
       <use xlink:href="#m48d67a578a" x="102.300944" y="360" style="stroke: #000000; stroke-width: 3"/>
      </g>
     </g>
     <g id="text_3">
      <!-- 1.75 -->
      <g transform="translate(80.035319 388.696875)scale(0.2 -0.2)">
       <defs>
        <path id="DejaVuSans-37" d="M 525 4666 
L 3525 4666 
L 3525 4397 
L 1831 0 
L 1172 0 
L 2766 4134 
L 525 4134 
L 525 4666 
z
" transform="scale(0.015625)"/>
       </defs>
       <use xlink:href="#DejaVuSans-31"/>
       <use xlink:href="#DejaVuSans-2e" x="63.623047"/>
       <use xlink:href="#DejaVuSans-37" x="95.410156"/>
       <use xlink:href="#DejaVuSans-35" x="159.033203"/>
      </g>
     </g>
    </g>
    <g id="text_4">
     <!-- FC -->
     <g transform="translate(59.265625 412.053125)scale(0.2 -0.2)">
      <defs>
       <path id="DejaVuSans-46" d="M 628 4666 
L 3309 4666 
L 3309 4134 
L 1259 4134 
L 1259 2759 
L 3109 2759 
L 3109 2228 
L 1259 2228 
L 1259 0 
L 628 0 
L 628 4666 
z
" transform="scale(0.015625)"/>
       <path id="DejaVuSans-43" d="M 4122 4306 
L 4122 3641 
Q 3803 3938 3442 4084 
Q 3081 4231 2675 4231 
Q 1875 4231 1450 3742 
Q 1025 3253 1025 2328 
Q 1025 1406 1450 917 
Q 1875 428 2675 428 
Q 3081 428 3442 575 
Q 3803 722 4122 1019 
L 4122 359 
Q 3791 134 3420 21 
Q 3050 -91 2638 -91 
Q 1578 -91 968 557 
Q 359 1206 359 2328 
Q 359 3453 968 4101 
Q 1578 4750 2638 4750 
Q 3056 4750 3426 4639 
Q 3797 4528 4122 4306 
z
" transform="scale(0.015625)"/>
      </defs>
      <use xlink:href="#DejaVuSans-46"/>
      <use xlink:href="#DejaVuSans-43" x="57.519531"/>
     </g>
    </g>
   </g>
   <g id="matplotlib.axis_2">
    <g id="ytick_1">
     <g id="line2d_4">
      <defs>
       <path id="m8b5e3dd0f7" d="M 0 0 
L -10 0 
" style="stroke: #000000; stroke-width: 3"/>
      </defs>
      <g>
       <use xlink:href="#m8b5e3dd0f7" x="0" y="85.090909" style="stroke: #000000; stroke-width: 3"/>
      </g>
     </g>
     <g id="text_5">
      <!-- DNA binding -->
      <g transform="translate(-138.453125 92.689347)scale(0.2 -0.2)">
       <defs>
        <path id="DejaVuSans-44" d="M 1259 4147 
L 1259 519 
L 2022 519 
Q 2988 519 3436 956 
Q 3884 1394 3884 2338 
Q 3884 3275 3436 3711 
Q 2988 4147 2022 4147 
L 1259 4147 
z
M 628 4666 
L 1925 4666 
Q 3281 4666 3915 4102 
Q 4550 3538 4550 2338 
Q 4550 1131 3912 565 
Q 3275 0 1925 0 
L 628 0 
L 628 4666 
z
" transform="scale(0.015625)"/>
        <path id="DejaVuSans-4e" d="M 628 4666 
L 1478 4666 
L 3547 763 
L 3547 4666 
L 4159 4666 
L 4159 0 
L 3309 0 
L 1241 3903 
L 1241 0 
L 628 0 
L 628 4666 
z
" transform="scale(0.015625)"/>
        <path id="DejaVuSans-41" d="M 2188 4044 
L 1331 1722 
L 3047 1722 
L 2188 4044 
z
M 1831 4666 
L 2547 4666 
L 4325 0 
L 3669 0 
L 3244 1197 
L 1141 1197 
L 716 0 
L 50 0 
L 1831 4666 
z
" transform="scale(0.015625)"/>
        <path id="DejaVuSans-20" transform="scale(0.015625)"/>
        <path id="DejaVuSans-62" d="M 3116 1747 
Q 3116 2381 2855 2742 
Q 2594 3103 2138 3103 
Q 1681 3103 1420 2742 
Q 1159 2381 1159 1747 
Q 1159 1113 1420 752 
Q 1681 391 2138 391 
Q 2594 391 2855 752 
Q 3116 1113 3116 1747 
z
M 1159 2969 
Q 1341 3281 1617 3432 
Q 1894 3584 2278 3584 
Q 2916 3584 3314 3078 
Q 3713 2572 3713 1747 
Q 3713 922 3314 415 
Q 2916 -91 2278 -91 
Q 1894 -91 1617 61 
Q 1341 213 1159 525 
L 1159 0 
L 581 0 
L 581 4863 
L 1159 4863 
L 1159 2969 
z
" transform="scale(0.015625)"/>
        <path id="DejaVuSans-69" d="M 603 3500 
L 1178 3500 
L 1178 0 
L 603 0 
L 603 3500 
z
M 603 4863 
L 1178 4863 
L 1178 4134 
L 603 4134 
L 603 4863 
z
" transform="scale(0.015625)"/>
        <path id="DejaVuSans-6e" d="M 3513 2113 
L 3513 0 
L 2938 0 
L 2938 2094 
Q 2938 2591 2744 2837 
Q 2550 3084 2163 3084 
Q 1697 3084 1428 2787 
Q 1159 2491 1159 1978 
L 1159 0 
L 581 0 
L 581 3500 
L 1159 3500 
L 1159 2956 
Q 1366 3272 1645 3428 
Q 1925 3584 2291 3584 
Q 2894 3584 3203 3211 
Q 3513 2838 3513 2113 
z
" transform="scale(0.015625)"/>
        <path id="DejaVuSans-64" d="M 2906 2969 
L 2906 4863 
L 3481 4863 
L 3481 0 
L 2906 0 
L 2906 525 
Q 2725 213 2448 61 
Q 2172 -91 1784 -91 
Q 1150 -91 751 415 
Q 353 922 353 1747 
Q 353 2572 751 3078 
Q 1150 3584 1784 3584 
Q 2172 3584 2448 3432 
Q 2725 3281 2906 2969 
z
M 947 1747 
Q 947 1113 1208 752 
Q 1469 391 1925 391 
Q 2381 391 2643 752 
Q 2906 1113 2906 1747 
Q 2906 2381 2643 2742 
Q 2381 3103 1925 3103 
Q 1469 3103 1208 2742 
Q 947 2381 947 1747 
z
" transform="scale(0.015625)"/>
        <path id="DejaVuSans-67" d="M 2906 1791 
Q 2906 2416 2648 2759 
Q 2391 3103 1925 3103 
Q 1463 3103 1205 2759 
Q 947 2416 947 1791 
Q 947 1169 1205 825 
Q 1463 481 1925 481 
Q 2391 481 2648 825 
Q 2906 1169 2906 1791 
z
M 3481 434 
Q 3481 -459 3084 -895 
Q 2688 -1331 1869 -1331 
Q 1566 -1331 1297 -1286 
Q 1028 -1241 775 -1147 
L 775 -588 
Q 1028 -725 1275 -790 
Q 1522 -856 1778 -856 
Q 2344 -856 2625 -561 
Q 2906 -266 2906 331 
L 2906 616 
Q 2728 306 2450 153 
Q 2172 0 1784 0 
Q 1141 0 747 490 
Q 353 981 353 1791 
Q 353 2603 747 3093 
Q 1141 3584 1784 3584 
Q 2172 3584 2450 3431 
Q 2728 3278 2906 2969 
L 2906 3500 
L 3481 3500 
L 3481 434 
z
" transform="scale(0.015625)"/>
       </defs>
       <use xlink:href="#DejaVuSans-44"/>
       <use xlink:href="#DejaVuSans-4e" x="77.001953"/>
       <use xlink:href="#DejaVuSans-41" x="151.806641"/>
       <use xlink:href="#DejaVuSans-20" x="220.214844"/>
       <use xlink:href="#DejaVuSans-62" x="252.001953"/>
       <use xlink:href="#DejaVuSans-69" x="315.478516"/>
       <use xlink:href="#DejaVuSans-6e" x="343.261719"/>
       <use xlink:href="#DejaVuSans-64" x="406.640625"/>
       <use xlink:href="#DejaVuSans-69" x="470.117188"/>
       <use xlink:href="#DejaVuSans-6e" x="497.900391"/>
       <use xlink:href="#DejaVuSans-67" x="561.279297"/>
      </g>
     </g>
    </g>
    <g id="ytick_2">
     <g id="line2d_5">
      <g>
       <use xlink:href="#m8b5e3dd0f7" x="0" y="114.181818" style="stroke: #000000; stroke-width: 3"/>
      </g>
     </g>
     <g id="text_6">
      <!-- nucleic acid binding -->
      <g transform="translate(-213.034375 121.780256)scale(0.2 -0.2)">
       <defs>
        <path id="DejaVuSans-75" d="M 544 1381 
L 544 3500 
L 1119 3500 
L 1119 1403 
Q 1119 906 1312 657 
Q 1506 409 1894 409 
Q 2359 409 2629 706 
Q 2900 1003 2900 1516 
L 2900 3500 
L 3475 3500 
L 3475 0 
L 2900 0 
L 2900 538 
Q 2691 219 2414 64 
Q 2138 -91 1772 -91 
Q 1169 -91 856 284 
Q 544 659 544 1381 
z
M 1991 3584 
L 1991 3584 
z
" transform="scale(0.015625)"/>
        <path id="DejaVuSans-63" d="M 3122 3366 
L 3122 2828 
Q 2878 2963 2633 3030 
Q 2388 3097 2138 3097 
Q 1578 3097 1268 2742 
Q 959 2388 959 1747 
Q 959 1106 1268 751 
Q 1578 397 2138 397 
Q 2388 397 2633 464 
Q 2878 531 3122 666 
L 3122 134 
Q 2881 22 2623 -34 
Q 2366 -91 2075 -91 
Q 1284 -91 818 406 
Q 353 903 353 1747 
Q 353 2603 823 3093 
Q 1294 3584 2113 3584 
Q 2378 3584 2631 3529 
Q 2884 3475 3122 3366 
z
" transform="scale(0.015625)"/>
        <path id="DejaVuSans-6c" d="M 603 4863 
L 1178 4863 
L 1178 0 
L 603 0 
L 603 4863 
z
" transform="scale(0.015625)"/>
        <path id="DejaVuSans-65" d="M 3597 1894 
L 3597 1613 
L 953 1613 
Q 991 1019 1311 708 
Q 1631 397 2203 397 
Q 2534 397 2845 478 
Q 3156 559 3463 722 
L 3463 178 
Q 3153 47 2828 -22 
Q 2503 -91 2169 -91 
Q 1331 -91 842 396 
Q 353 884 353 1716 
Q 353 2575 817 3079 
Q 1281 3584 2069 3584 
Q 2775 3584 3186 3129 
Q 3597 2675 3597 1894 
z
M 3022 2063 
Q 3016 2534 2758 2815 
Q 2500 3097 2075 3097 
Q 1594 3097 1305 2825 
Q 1016 2553 972 2059 
L 3022 2063 
z
" transform="scale(0.015625)"/>
        <path id="DejaVuSans-61" d="M 2194 1759 
Q 1497 1759 1228 1600 
Q 959 1441 959 1056 
Q 959 750 1161 570 
Q 1363 391 1709 391 
Q 2188 391 2477 730 
Q 2766 1069 2766 1631 
L 2766 1759 
L 2194 1759 
z
M 3341 1997 
L 3341 0 
L 2766 0 
L 2766 531 
Q 2569 213 2275 61 
Q 1981 -91 1556 -91 
Q 1019 -91 701 211 
Q 384 513 384 1019 
Q 384 1609 779 1909 
Q 1175 2209 1959 2209 
L 2766 2209 
L 2766 2266 
Q 2766 2663 2505 2880 
Q 2244 3097 1772 3097 
Q 1472 3097 1187 3025 
Q 903 2953 641 2809 
L 641 3341 
Q 956 3463 1253 3523 
Q 1550 3584 1831 3584 
Q 2591 3584 2966 3190 
Q 3341 2797 3341 1997 
z
" transform="scale(0.015625)"/>
       </defs>
       <use xlink:href="#DejaVuSans-6e"/>
       <use xlink:href="#DejaVuSans-75" x="63.378906"/>
       <use xlink:href="#DejaVuSans-63" x="126.757812"/>
       <use xlink:href="#DejaVuSans-6c" x="181.738281"/>
       <use xlink:href="#DejaVuSans-65" x="209.521484"/>
       <use xlink:href="#DejaVuSans-69" x="271.044922"/>
       <use xlink:href="#DejaVuSans-63" x="298.828125"/>
       <use xlink:href="#DejaVuSans-20" x="353.808594"/>
       <use xlink:href="#DejaVuSans-61" x="385.595703"/>
       <use xlink:href="#DejaVuSans-63" x="446.875"/>
       <use xlink:href="#DejaVuSans-69" x="501.855469"/>
       <use xlink:href="#DejaVuSans-64" x="529.638672"/>
       <use xlink:href="#DejaVuSans-20" x="593.115234"/>
       <use xlink:href="#DejaVuSans-62" x="624.902344"/>
       <use xlink:href="#DejaVuSans-69" x="688.378906"/>
       <use xlink:href="#DejaVuSans-6e" x="716.162109"/>
       <use xlink:href="#DejaVuSans-64" x="779.541016"/>
       <use xlink:href="#DejaVuSans-69" x="843.017578"/>
       <use xlink:href="#DejaVuSans-6e" x="870.800781"/>
       <use xlink:href="#DejaVuSans-67" x="934.179688"/>
      </g>
     </g>
    </g>
    <g id="ytick_3">
     <g id="line2d_6">
      <g>
       <use xlink:href="#m8b5e3dd0f7" x="0" y="143.272727" style="stroke: #000000; stroke-width: 3"/>
      </g>
     </g>
     <g id="text_7">
      <!-- sequence-specific DNA binding -->
      <g transform="translate(-323.975 150.871165)scale(0.2 -0.2)">
       <defs>
        <path id="DejaVuSans-73" d="M 2834 3397 
L 2834 2853 
Q 2591 2978 2328 3040 
Q 2066 3103 1784 3103 
Q 1356 3103 1142 2972 
Q 928 2841 928 2578 
Q 928 2378 1081 2264 
Q 1234 2150 1697 2047 
L 1894 2003 
Q 2506 1872 2764 1633 
Q 3022 1394 3022 966 
Q 3022 478 2636 193 
Q 2250 -91 1575 -91 
Q 1294 -91 989 -36 
Q 684 19 347 128 
L 347 722 
Q 666 556 975 473 
Q 1284 391 1588 391 
Q 1994 391 2212 530 
Q 2431 669 2431 922 
Q 2431 1156 2273 1281 
Q 2116 1406 1581 1522 
L 1381 1569 
Q 847 1681 609 1914 
Q 372 2147 372 2553 
Q 372 3047 722 3315 
Q 1072 3584 1716 3584 
Q 2034 3584 2315 3537 
Q 2597 3491 2834 3397 
z
" transform="scale(0.015625)"/>
        <path id="DejaVuSans-71" d="M 947 1747 
Q 947 1113 1208 752 
Q 1469 391 1925 391 
Q 2381 391 2643 752 
Q 2906 1113 2906 1747 
Q 2906 2381 2643 2742 
Q 2381 3103 1925 3103 
Q 1469 3103 1208 2742 
Q 947 2381 947 1747 
z
M 2906 525 
Q 2725 213 2448 61 
Q 2172 -91 1784 -91 
Q 1150 -91 751 415 
Q 353 922 353 1747 
Q 353 2572 751 3078 
Q 1150 3584 1784 3584 
Q 2172 3584 2448 3432 
Q 2725 3281 2906 2969 
L 2906 3500 
L 3481 3500 
L 3481 -1331 
L 2906 -1331 
L 2906 525 
z
" transform="scale(0.015625)"/>
        <path id="DejaVuSans-2d" d="M 313 2009 
L 1997 2009 
L 1997 1497 
L 313 1497 
L 313 2009 
z
" transform="scale(0.015625)"/>
        <path id="DejaVuSans-70" d="M 1159 525 
L 1159 -1331 
L 581 -1331 
L 581 3500 
L 1159 3500 
L 1159 2969 
Q 1341 3281 1617 3432 
Q 1894 3584 2278 3584 
Q 2916 3584 3314 3078 
Q 3713 2572 3713 1747 
Q 3713 922 3314 415 
Q 2916 -91 2278 -91 
Q 1894 -91 1617 61 
Q 1341 213 1159 525 
z
M 3116 1747 
Q 3116 2381 2855 2742 
Q 2594 3103 2138 3103 
Q 1681 3103 1420 2742 
Q 1159 2381 1159 1747 
Q 1159 1113 1420 752 
Q 1681 391 2138 391 
Q 2594 391 2855 752 
Q 3116 1113 3116 1747 
z
" transform="scale(0.015625)"/>
        <path id="DejaVuSans-66" d="M 2375 4863 
L 2375 4384 
L 1825 4384 
Q 1516 4384 1395 4259 
Q 1275 4134 1275 3809 
L 1275 3500 
L 2222 3500 
L 2222 3053 
L 1275 3053 
L 1275 0 
L 697 0 
L 697 3053 
L 147 3053 
L 147 3500 
L 697 3500 
L 697 3744 
Q 697 4328 969 4595 
Q 1241 4863 1831 4863 
L 2375 4863 
z
" transform="scale(0.015625)"/>
       </defs>
       <use xlink:href="#DejaVuSans-73"/>
       <use xlink:href="#DejaVuSans-65" x="52.099609"/>
       <use xlink:href="#DejaVuSans-71" x="113.623047"/>
       <use xlink:href="#DejaVuSans-75" x="177.099609"/>
       <use xlink:href="#DejaVuSans-65" x="240.478516"/>
       <use xlink:href="#DejaVuSans-6e" x="302.001953"/>
       <use xlink:href="#DejaVuSans-63" x="365.380859"/>
       <use xlink:href="#DejaVuSans-65" x="420.361328"/>
       <use xlink:href="#DejaVuSans-2d" x="481.884766"/>
       <use xlink:href="#DejaVuSans-73" x="517.96875"/>
       <use xlink:href="#DejaVuSans-70" x="570.068359"/>
       <use xlink:href="#DejaVuSans-65" x="633.544922"/>
       <use xlink:href="#DejaVuSans-63" x="695.068359"/>
       <use xlink:href="#DejaVuSans-69" x="750.048828"/>
       <use xlink:href="#DejaVuSans-66" x="777.832031"/>
       <use xlink:href="#DejaVuSans-69" x="813.037109"/>
       <use xlink:href="#DejaVuSans-63" x="840.820312"/>
       <use xlink:href="#DejaVuSans-20" x="895.800781"/>
       <use xlink:href="#DejaVuSans-44" x="927.587891"/>
       <use xlink:href="#DejaVuSans-4e" x="1004.589844"/>
       <use xlink:href="#DejaVuSans-41" x="1079.394531"/>
       <use xlink:href="#DejaVuSans-20" x="1147.802734"/>
       <use xlink:href="#DejaVuSans-62" x="1179.589844"/>
       <use xlink:href="#DejaVuSans-69" x="1243.066406"/>
       <use xlink:href="#DejaVuSans-6e" x="1270.849609"/>
       <use xlink:href="#DejaVuSans-64" x="1334.228516"/>
       <use xlink:href="#DejaVuSans-69" x="1397.705078"/>
       <use xlink:href="#DejaVuSans-6e" x="1425.488281"/>
       <use xlink:href="#DejaVuSans-67" x="1488.867188"/>
      </g>
     </g>
    </g>
    <g id="ytick_4">
     <g id="line2d_7">
      <g>
       <use xlink:href="#m8b5e3dd0f7" x="0" y="172.363636" style="stroke: #000000; stroke-width: 3"/>
      </g>
     </g>
     <g id="text_8">
      <!-- protein-containing complex binding -->
      <g transform="translate(-368.99375 179.962074)scale(0.2 -0.2)">
       <defs>
        <path id="DejaVuSans-72" d="M 2631 2963 
Q 2534 3019 2420 3045 
Q 2306 3072 2169 3072 
Q 1681 3072 1420 2755 
Q 1159 2438 1159 1844 
L 1159 0 
L 581 0 
L 581 3500 
L 1159 3500 
L 1159 2956 
Q 1341 3275 1631 3429 
Q 1922 3584 2338 3584 
Q 2397 3584 2469 3576 
Q 2541 3569 2628 3553 
L 2631 2963 
z
" transform="scale(0.015625)"/>
        <path id="DejaVuSans-6f" d="M 1959 3097 
Q 1497 3097 1228 2736 
Q 959 2375 959 1747 
Q 959 1119 1226 758 
Q 1494 397 1959 397 
Q 2419 397 2687 759 
Q 2956 1122 2956 1747 
Q 2956 2369 2687 2733 
Q 2419 3097 1959 3097 
z
M 1959 3584 
Q 2709 3584 3137 3096 
Q 3566 2609 3566 1747 
Q 3566 888 3137 398 
Q 2709 -91 1959 -91 
Q 1206 -91 779 398 
Q 353 888 353 1747 
Q 353 2609 779 3096 
Q 1206 3584 1959 3584 
z
" transform="scale(0.015625)"/>
        <path id="DejaVuSans-74" d="M 1172 4494 
L 1172 3500 
L 2356 3500 
L 2356 3053 
L 1172 3053 
L 1172 1153 
Q 1172 725 1289 603 
Q 1406 481 1766 481 
L 2356 481 
L 2356 0 
L 1766 0 
Q 1100 0 847 248 
Q 594 497 594 1153 
L 594 3053 
L 172 3053 
L 172 3500 
L 594 3500 
L 594 4494 
L 1172 4494 
z
" transform="scale(0.015625)"/>
        <path id="DejaVuSans-6d" d="M 3328 2828 
Q 3544 3216 3844 3400 
Q 4144 3584 4550 3584 
Q 5097 3584 5394 3201 
Q 5691 2819 5691 2113 
L 5691 0 
L 5113 0 
L 5113 2094 
Q 5113 2597 4934 2840 
Q 4756 3084 4391 3084 
Q 3944 3084 3684 2787 
Q 3425 2491 3425 1978 
L 3425 0 
L 2847 0 
L 2847 2094 
Q 2847 2600 2669 2842 
Q 2491 3084 2119 3084 
Q 1678 3084 1418 2786 
Q 1159 2488 1159 1978 
L 1159 0 
L 581 0 
L 581 3500 
L 1159 3500 
L 1159 2956 
Q 1356 3278 1631 3431 
Q 1906 3584 2284 3584 
Q 2666 3584 2933 3390 
Q 3200 3197 3328 2828 
z
" transform="scale(0.015625)"/>
        <path id="DejaVuSans-78" d="M 3513 3500 
L 2247 1797 
L 3578 0 
L 2900 0 
L 1881 1375 
L 863 0 
L 184 0 
L 1544 1831 
L 300 3500 
L 978 3500 
L 1906 2253 
L 2834 3500 
L 3513 3500 
z
" transform="scale(0.015625)"/>
       </defs>
       <use xlink:href="#DejaVuSans-70"/>
       <use xlink:href="#DejaVuSans-72" x="63.476562"/>
       <use xlink:href="#DejaVuSans-6f" x="102.339844"/>
       <use xlink:href="#DejaVuSans-74" x="163.521484"/>
       <use xlink:href="#DejaVuSans-65" x="202.730469"/>
       <use xlink:href="#DejaVuSans-69" x="264.253906"/>
       <use xlink:href="#DejaVuSans-6e" x="292.037109"/>
       <use xlink:href="#DejaVuSans-2d" x="355.416016"/>
       <use xlink:href="#DejaVuSans-63" x="391.5"/>
       <use xlink:href="#DejaVuSans-6f" x="446.480469"/>
       <use xlink:href="#DejaVuSans-6e" x="507.662109"/>
       <use xlink:href="#DejaVuSans-74" x="571.041016"/>
       <use xlink:href="#DejaVuSans-61" x="610.25"/>
       <use xlink:href="#DejaVuSans-69" x="671.529297"/>
       <use xlink:href="#DejaVuSans-6e" x="699.3125"/>
       <use xlink:href="#DejaVuSans-69" x="762.691406"/>
       <use xlink:href="#DejaVuSans-6e" x="790.474609"/>
       <use xlink:href="#DejaVuSans-67" x="853.853516"/>
       <use xlink:href="#DejaVuSans-20" x="917.330078"/>
       <use xlink:href="#DejaVuSans-63" x="949.117188"/>
       <use xlink:href="#DejaVuSans-6f" x="1004.097656"/>
       <use xlink:href="#DejaVuSans-6d" x="1065.279297"/>
       <use xlink:href="#DejaVuSans-70" x="1162.691406"/>
       <use xlink:href="#DejaVuSans-6c" x="1226.167969"/>
       <use xlink:href="#DejaVuSans-65" x="1253.951172"/>
       <use xlink:href="#DejaVuSans-78" x="1313.724609"/>
       <use xlink:href="#DejaVuSans-20" x="1372.904297"/>
       <use xlink:href="#DejaVuSans-62" x="1404.691406"/>
       <use xlink:href="#DejaVuSans-69" x="1468.167969"/>
       <use xlink:href="#DejaVuSans-6e" x="1495.951172"/>
       <use xlink:href="#DejaVuSans-64" x="1559.330078"/>
       <use xlink:href="#DejaVuSans-69" x="1622.806641"/>
       <use xlink:href="#DejaVuSans-6e" x="1650.589844"/>
       <use xlink:href="#DejaVuSans-67" x="1713.96875"/>
      </g>
     </g>
    </g>
    <g id="ytick_5">
     <g id="line2d_8">
      <g>
       <use xlink:href="#m8b5e3dd0f7" x="0" y="201.454545" style="stroke: #000000; stroke-width: 3"/>
      </g>
     </g>
     <g id="text_9">
      <!-- transcription regulator activity -->
      <g transform="translate(-318.690625 209.052983)scale(0.2 -0.2)">
       <defs>
        <path id="DejaVuSans-76" d="M 191 3500 
L 800 3500 
L 1894 563 
L 2988 3500 
L 3597 3500 
L 2284 0 
L 1503 0 
L 191 3500 
z
" transform="scale(0.015625)"/>
        <path id="DejaVuSans-79" d="M 2059 -325 
Q 1816 -950 1584 -1140 
Q 1353 -1331 966 -1331 
L 506 -1331 
L 506 -850 
L 844 -850 
Q 1081 -850 1212 -737 
Q 1344 -625 1503 -206 
L 1606 56 
L 191 3500 
L 800 3500 
L 1894 763 
L 2988 3500 
L 3597 3500 
L 2059 -325 
z
" transform="scale(0.015625)"/>
       </defs>
       <use xlink:href="#DejaVuSans-74"/>
       <use xlink:href="#DejaVuSans-72" x="39.208984"/>
       <use xlink:href="#DejaVuSans-61" x="80.322266"/>
       <use xlink:href="#DejaVuSans-6e" x="141.601562"/>
       <use xlink:href="#DejaVuSans-73" x="204.980469"/>
       <use xlink:href="#DejaVuSans-63" x="257.080078"/>
       <use xlink:href="#DejaVuSans-72" x="312.060547"/>
       <use xlink:href="#DejaVuSans-69" x="353.173828"/>
       <use xlink:href="#DejaVuSans-70" x="380.957031"/>
       <use xlink:href="#DejaVuSans-74" x="444.433594"/>
       <use xlink:href="#DejaVuSans-69" x="483.642578"/>
       <use xlink:href="#DejaVuSans-6f" x="511.425781"/>
       <use xlink:href="#DejaVuSans-6e" x="572.607422"/>
       <use xlink:href="#DejaVuSans-20" x="635.986328"/>
       <use xlink:href="#DejaVuSans-72" x="667.773438"/>
       <use xlink:href="#DejaVuSans-65" x="706.636719"/>
       <use xlink:href="#DejaVuSans-67" x="768.160156"/>
       <use xlink:href="#DejaVuSans-75" x="831.636719"/>
       <use xlink:href="#DejaVuSans-6c" x="895.015625"/>
       <use xlink:href="#DejaVuSans-61" x="922.798828"/>
       <use xlink:href="#DejaVuSans-74" x="984.078125"/>
       <use xlink:href="#DejaVuSans-6f" x="1023.287109"/>
       <use xlink:href="#DejaVuSans-72" x="1084.46875"/>
       <use xlink:href="#DejaVuSans-20" x="1125.582031"/>
       <use xlink:href="#DejaVuSans-61" x="1157.369141"/>
       <use xlink:href="#DejaVuSans-63" x="1218.648438"/>
       <use xlink:href="#DejaVuSans-74" x="1273.628906"/>
       <use xlink:href="#DejaVuSans-69" x="1312.837891"/>
       <use xlink:href="#DejaVuSans-76" x="1340.621094"/>
       <use xlink:href="#DejaVuSans-69" x="1399.800781"/>
       <use xlink:href="#DejaVuSans-74" x="1427.583984"/>
       <use xlink:href="#DejaVuSans-79" x="1466.792969"/>
      </g>
     </g>
    </g>
    <g id="ytick_6">
     <g id="line2d_9">
      <g>
       <use xlink:href="#m8b5e3dd0f7" x="0" y="230.545455" style="stroke: #000000; stroke-width: 3"/>
      </g>
     </g>
     <g id="text_10">
      <!-- double-stranded DNA binding -->
      <g transform="translate(-309.30625 238.143892)scale(0.2 -0.2)">
       <use xlink:href="#DejaVuSans-64"/>
       <use xlink:href="#DejaVuSans-6f" x="63.476562"/>
       <use xlink:href="#DejaVuSans-75" x="124.658203"/>
       <use xlink:href="#DejaVuSans-62" x="188.037109"/>
       <use xlink:href="#DejaVuSans-6c" x="251.513672"/>
       <use xlink:href="#DejaVuSans-65" x="279.296875"/>
       <use xlink:href="#DejaVuSans-2d" x="340.820312"/>
       <use xlink:href="#DejaVuSans-73" x="376.904297"/>
       <use xlink:href="#DejaVuSans-74" x="429.003906"/>
       <use xlink:href="#DejaVuSans-72" x="468.212891"/>
       <use xlink:href="#DejaVuSans-61" x="509.326172"/>
       <use xlink:href="#DejaVuSans-6e" x="570.605469"/>
       <use xlink:href="#DejaVuSans-64" x="633.984375"/>
       <use xlink:href="#DejaVuSans-65" x="697.460938"/>
       <use xlink:href="#DejaVuSans-64" x="758.984375"/>
       <use xlink:href="#DejaVuSans-20" x="822.460938"/>
       <use xlink:href="#DejaVuSans-44" x="854.248047"/>
       <use xlink:href="#DejaVuSans-4e" x="931.25"/>
       <use xlink:href="#DejaVuSans-41" x="1006.054688"/>
       <use xlink:href="#DejaVuSans-20" x="1074.462891"/>
       <use xlink:href="#DejaVuSans-62" x="1106.25"/>
       <use xlink:href="#DejaVuSans-69" x="1169.726562"/>
       <use xlink:href="#DejaVuSans-6e" x="1197.509766"/>
       <use xlink:href="#DejaVuSans-64" x="1260.888672"/>
       <use xlink:href="#DejaVuSans-69" x="1324.365234"/>
       <use xlink:href="#DejaVuSans-6e" x="1352.148438"/>
       <use xlink:href="#DejaVuSans-67" x="1415.527344"/>
      </g>
     </g>
    </g>
    <g id="ytick_7">
     <g id="line2d_10">
      <g>
       <use xlink:href="#m8b5e3dd0f7" x="0" y="259.636364" style="stroke: #000000; stroke-width: 3"/>
      </g>
     </g>
     <g id="text_11">
      <!-- chromatin binding -->
      <g transform="translate(-195.9 267.234801)scale(0.2 -0.2)">
       <defs>
        <path id="DejaVuSans-68" d="M 3513 2113 
L 3513 0 
L 2938 0 
L 2938 2094 
Q 2938 2591 2744 2837 
Q 2550 3084 2163 3084 
Q 1697 3084 1428 2787 
Q 1159 2491 1159 1978 
L 1159 0 
L 581 0 
L 581 4863 
L 1159 4863 
L 1159 2956 
Q 1366 3272 1645 3428 
Q 1925 3584 2291 3584 
Q 2894 3584 3203 3211 
Q 3513 2838 3513 2113 
z
" transform="scale(0.015625)"/>
       </defs>
       <use xlink:href="#DejaVuSans-63"/>
       <use xlink:href="#DejaVuSans-68" x="54.980469"/>
       <use xlink:href="#DejaVuSans-72" x="118.359375"/>
       <use xlink:href="#DejaVuSans-6f" x="157.222656"/>
       <use xlink:href="#DejaVuSans-6d" x="218.404297"/>
       <use xlink:href="#DejaVuSans-61" x="315.816406"/>
       <use xlink:href="#DejaVuSans-74" x="377.095703"/>
       <use xlink:href="#DejaVuSans-69" x="416.304688"/>
       <use xlink:href="#DejaVuSans-6e" x="444.087891"/>
       <use xlink:href="#DejaVuSans-20" x="507.466797"/>
       <use xlink:href="#DejaVuSans-62" x="539.253906"/>
       <use xlink:href="#DejaVuSans-69" x="602.730469"/>
       <use xlink:href="#DejaVuSans-6e" x="630.513672"/>
       <use xlink:href="#DejaVuSans-64" x="693.892578"/>
       <use xlink:href="#DejaVuSans-69" x="757.369141"/>
       <use xlink:href="#DejaVuSans-6e" x="785.152344"/>
       <use xlink:href="#DejaVuSans-67" x="848.53125"/>
      </g>
     </g>
    </g>
    <g id="ytick_8">
     <g id="line2d_11">
      <g>
       <use xlink:href="#m8b5e3dd0f7" x="0" y="288.727273" style="stroke: #000000; stroke-width: 3"/>
      </g>
     </g>
     <g id="text_12">
      <!-- organic cyclic compound binding -->
      <g transform="translate(-343.05 296.32571)scale(0.2 -0.2)">
       <use xlink:href="#DejaVuSans-6f"/>
       <use xlink:href="#DejaVuSans-72" x="61.181641"/>
       <use xlink:href="#DejaVuSans-67" x="100.544922"/>
       <use xlink:href="#DejaVuSans-61" x="164.021484"/>
       <use xlink:href="#DejaVuSans-6e" x="225.300781"/>
       <use xlink:href="#DejaVuSans-69" x="288.679688"/>
       <use xlink:href="#DejaVuSans-63" x="316.462891"/>
       <use xlink:href="#DejaVuSans-20" x="371.443359"/>
       <use xlink:href="#DejaVuSans-63" x="403.230469"/>
       <use xlink:href="#DejaVuSans-79" x="458.210938"/>
       <use xlink:href="#DejaVuSans-63" x="517.390625"/>
       <use xlink:href="#DejaVuSans-6c" x="572.371094"/>
       <use xlink:href="#DejaVuSans-69" x="600.154297"/>
       <use xlink:href="#DejaVuSans-63" x="627.9375"/>
       <use xlink:href="#DejaVuSans-20" x="682.917969"/>
       <use xlink:href="#DejaVuSans-63" x="714.705078"/>
       <use xlink:href="#DejaVuSans-6f" x="769.685547"/>
       <use xlink:href="#DejaVuSans-6d" x="830.867188"/>
       <use xlink:href="#DejaVuSans-70" x="928.279297"/>
       <use xlink:href="#DejaVuSans-6f" x="991.755859"/>
       <use xlink:href="#DejaVuSans-75" x="1052.9375"/>
       <use xlink:href="#DejaVuSans-6e" x="1116.316406"/>
       <use xlink:href="#DejaVuSans-64" x="1179.695312"/>
       <use xlink:href="#DejaVuSans-20" x="1243.171875"/>
       <use xlink:href="#DejaVuSans-62" x="1274.958984"/>
       <use xlink:href="#DejaVuSans-69" x="1338.435547"/>
       <use xlink:href="#DejaVuSans-6e" x="1366.21875"/>
       <use xlink:href="#DejaVuSans-64" x="1429.597656"/>
       <use xlink:href="#DejaVuSans-69" x="1493.074219"/>
       <use xlink:href="#DejaVuSans-6e" x="1520.857422"/>
       <use xlink:href="#DejaVuSans-67" x="1584.236328"/>
      </g>
     </g>
    </g>
    <g id="ytick_9">
     <g id="line2d_12">
      <g>
       <use xlink:href="#m8b5e3dd0f7" x="0" y="317.818182" style="stroke: #000000; stroke-width: 3"/>
      </g>
     </g>
     <g id="text_13">
      <!-- actin binding -->
      <g transform="translate(-143.734375 325.416619)scale(0.2 -0.2)">
       <use xlink:href="#DejaVuSans-61"/>
       <use xlink:href="#DejaVuSans-63" x="61.279297"/>
       <use xlink:href="#DejaVuSans-74" x="116.259766"/>
       <use xlink:href="#DejaVuSans-69" x="155.46875"/>
       <use xlink:href="#DejaVuSans-6e" x="183.251953"/>
       <use xlink:href="#DejaVuSans-20" x="246.630859"/>
       <use xlink:href="#DejaVuSans-62" x="278.417969"/>
       <use xlink:href="#DejaVuSans-69" x="341.894531"/>
       <use xlink:href="#DejaVuSans-6e" x="369.677734"/>
       <use xlink:href="#DejaVuSans-64" x="433.056641"/>
       <use xlink:href="#DejaVuSans-69" x="496.533203"/>
       <use xlink:href="#DejaVuSans-6e" x="524.316406"/>
       <use xlink:href="#DejaVuSans-67" x="587.695312"/>
      </g>
     </g>
    </g>
    <g id="ytick_10">
     <g id="line2d_13">
      <g>
       <use xlink:href="#m8b5e3dd0f7" x="0" y="346.909091" style="stroke: #000000; stroke-width: 3"/>
      </g>
     </g>
     <g id="text_14">
      <!-- protein domain specific binding -->
      <g transform="translate(-328.678125 354.507528)scale(0.2 -0.2)">
       <use xlink:href="#DejaVuSans-70"/>
       <use xlink:href="#DejaVuSans-72" x="63.476562"/>
       <use xlink:href="#DejaVuSans-6f" x="102.339844"/>
       <use xlink:href="#DejaVuSans-74" x="163.521484"/>
       <use xlink:href="#DejaVuSans-65" x="202.730469"/>
       <use xlink:href="#DejaVuSans-69" x="264.253906"/>
       <use xlink:href="#DejaVuSans-6e" x="292.037109"/>
       <use xlink:href="#DejaVuSans-20" x="355.416016"/>
       <use xlink:href="#DejaVuSans-64" x="387.203125"/>
       <use xlink:href="#DejaVuSans-6f" x="450.679688"/>
       <use xlink:href="#DejaVuSans-6d" x="511.861328"/>
       <use xlink:href="#DejaVuSans-61" x="609.273438"/>
       <use xlink:href="#DejaVuSans-69" x="670.552734"/>
       <use xlink:href="#DejaVuSans-6e" x="698.335938"/>
       <use xlink:href="#DejaVuSans-20" x="761.714844"/>
       <use xlink:href="#DejaVuSans-73" x="793.501953"/>
       <use xlink:href="#DejaVuSans-70" x="845.601562"/>
       <use xlink:href="#DejaVuSans-65" x="909.078125"/>
       <use xlink:href="#DejaVuSans-63" x="970.601562"/>
       <use xlink:href="#DejaVuSans-69" x="1025.582031"/>
       <use xlink:href="#DejaVuSans-66" x="1053.365234"/>
       <use xlink:href="#DejaVuSans-69" x="1088.570312"/>
       <use xlink:href="#DejaVuSans-63" x="1116.353516"/>
       <use xlink:href="#DejaVuSans-20" x="1171.333984"/>
       <use xlink:href="#DejaVuSans-62" x="1203.121094"/>
       <use xlink:href="#DejaVuSans-69" x="1266.597656"/>
       <use xlink:href="#DejaVuSans-6e" x="1294.380859"/>
       <use xlink:href="#DejaVuSans-64" x="1357.759766"/>
       <use xlink:href="#DejaVuSans-69" x="1421.236328"/>
       <use xlink:href="#DejaVuSans-6e" x="1449.019531"/>
       <use xlink:href="#DejaVuSans-67" x="1512.398438"/>
      </g>
     </g>
    </g>
    <g id="text_15">
     <!-- term_name -->
     <g transform="translate(-377.709375 273.109375)rotate(-90)scale(0.2 -0.2)">
      <defs>
       <path id="DejaVuSans-5f" d="M 3263 -1063 
L 3263 -1509 
L -63 -1509 
L -63 -1063 
L 3263 -1063 
z
" transform="scale(0.015625)"/>
      </defs>
      <use xlink:href="#DejaVuSans-74"/>
      <use xlink:href="#DejaVuSans-65" x="39.208984"/>
      <use xlink:href="#DejaVuSans-72" x="100.732422"/>
      <use xlink:href="#DejaVuSans-6d" x="140.095703"/>
      <use xlink:href="#DejaVuSans-5f" x="237.507812"/>
      <use xlink:href="#DejaVuSans-6e" x="287.507812"/>
      <use xlink:href="#DejaVuSans-61" x="350.886719"/>
      <use xlink:href="#DejaVuSans-6d" x="412.166016"/>
      <use xlink:href="#DejaVuSans-65" x="509.578125"/>
     </g>
    </g>
   </g>
   <g id="patch_3">
    <path d="M 0 360 
L 0 72 
" style="fill: none; stroke: #000000; stroke-width: 3; stroke-linejoin: miter; stroke-linecap: square"/>
   </g>
   <g id="patch_4">
    <path d="M 144 360 
L 144 72 
" style="fill: none; stroke: #000000; stroke-width: 3; stroke-linejoin: miter; stroke-linecap: square"/>
   </g>
   <g id="patch_5">
    <path d="M 0 360 
L 144 360 
" style="fill: none; stroke: #000000; stroke-width: 3; stroke-linejoin: miter; stroke-linecap: square"/>
   </g>
   <g id="patch_6">
    <path d="M 0 72 
L 144 72 
" style="fill: none; stroke: #000000; stroke-width: 3; stroke-linejoin: miter; stroke-linecap: square"/>
   </g>
   <g id="legend_1">
    <g id="patch_7">
     <path d="M 186.8 470.74375 
L 617.26875 470.74375 
Q 621.26875 470.74375 621.26875 466.74375 
L 621.26875 86 
Q 621.26875 82 617.26875 82 
L 186.8 82 
Q 182.8 82 182.8 86 
L 182.8 466.74375 
Q 182.8 470.74375 186.8 470.74375 
z
" style="fill: #ffffff; opacity: 0.8; stroke: #cccccc; stroke-linejoin: miter"/>
    </g>
    <g id="text_16">
     <!-- negative_log10_of_adjusted_p_value -->
     <g transform="translate(246.8 105.196875)scale(0.2 -0.2)">
      <defs>
       <path id="DejaVuSans-6a" d="M 603 3500 
L 1178 3500 
L 1178 -63 
Q 1178 -731 923 -1031 
Q 669 -1331 103 -1331 
L -116 -1331 
L -116 -844 
L 38 -844 
Q 366 -844 484 -692 
Q 603 -541 603 -63 
L 603 3500 
z
M 603 4863 
L 1178 4863 
L 1178 4134 
L 603 4134 
L 603 4863 
z
" transform="scale(0.015625)"/>
      </defs>
      <use xlink:href="#DejaVuSans-6e"/>
      <use xlink:href="#DejaVuSans-65" x="63.378906"/>
      <use xlink:href="#DejaVuSans-67" x="124.902344"/>
      <use xlink:href="#DejaVuSans-61" x="188.378906"/>
      <use xlink:href="#DejaVuSans-74" x="249.658203"/>
      <use xlink:href="#DejaVuSans-69" x="288.867188"/>
      <use xlink:href="#DejaVuSans-76" x="316.650391"/>
      <use xlink:href="#DejaVuSans-65" x="375.830078"/>
      <use xlink:href="#DejaVuSans-5f" x="437.353516"/>
      <use xlink:href="#DejaVuSans-6c" x="487.353516"/>
      <use xlink:href="#DejaVuSans-6f" x="515.136719"/>
      <use xlink:href="#DejaVuSans-67" x="576.318359"/>
      <use xlink:href="#DejaVuSans-31" x="639.794922"/>
      <use xlink:href="#DejaVuSans-30" x="703.417969"/>
      <use xlink:href="#DejaVuSans-5f" x="767.041016"/>
      <use xlink:href="#DejaVuSans-6f" x="817.041016"/>
      <use xlink:href="#DejaVuSans-66" x="878.222656"/>
      <use xlink:href="#DejaVuSans-5f" x="913.427734"/>
      <use xlink:href="#DejaVuSans-61" x="963.427734"/>
      <use xlink:href="#DejaVuSans-64" x="1024.707031"/>
      <use xlink:href="#DejaVuSans-6a" x="1088.183594"/>
      <use xlink:href="#DejaVuSans-75" x="1115.966797"/>
      <use xlink:href="#DejaVuSans-73" x="1179.345703"/>
      <use xlink:href="#DejaVuSans-74" x="1231.445312"/>
      <use xlink:href="#DejaVuSans-65" x="1270.654297"/>
      <use xlink:href="#DejaVuSans-64" x="1332.177734"/>
      <use xlink:href="#DejaVuSans-5f" x="1395.654297"/>
      <use xlink:href="#DejaVuSans-70" x="1445.654297"/>
      <use xlink:href="#DejaVuSans-5f" x="1509.130859"/>
      <use xlink:href="#DejaVuSans-76" x="1559.130859"/>
      <use xlink:href="#DejaVuSans-61" x="1618.310547"/>
      <use xlink:href="#DejaVuSans-6c" x="1679.589844"/>
      <use xlink:href="#DejaVuSans-75" x="1707.373047"/>
      <use xlink:href="#DejaVuSans-65" x="1770.751953"/>
     </g>
    </g>
    <g id="PathCollection_13">
     <defs>
      <path id="mf2f8980e9d" d="M 0 3 
C 0.795609 3 1.55874 2.683901 2.12132 2.12132 
C 2.683901 1.55874 3 0.795609 3 0 
C 3 -0.795609 2.683901 -1.55874 2.12132 -2.12132 
C 1.55874 -2.683901 0.795609 -3 0 -3 
C -0.795609 -3 -1.55874 -2.683901 -2.12132 -2.12132 
C -2.683901 -1.55874 -3 -0.795609 -3 0 
C -3 0.795609 -2.683901 1.55874 -2.12132 2.12132 
C -1.55874 2.683901 -0.795609 3 0 3 
z
" style="stroke: #fcb499"/>
     </defs>
     <g>
      <use xlink:href="#mf2f8980e9d" x="210.8" y="129.859375" style="fill: #fcb499; stroke: #fcb499"/>
     </g>
    </g>
    <g id="text_17">
     <!-- 3.0 -->
     <g transform="translate(246.8 135.109375)scale(0.2 -0.2)">
      <defs>
       <path id="DejaVuSans-33" d="M 2597 2516 
Q 3050 2419 3304 2112 
Q 3559 1806 3559 1356 
Q 3559 666 3084 287 
Q 2609 -91 1734 -91 
Q 1441 -91 1130 -33 
Q 819 25 488 141 
L 488 750 
Q 750 597 1062 519 
Q 1375 441 1716 441 
Q 2309 441 2620 675 
Q 2931 909 2931 1356 
Q 2931 1769 2642 2001 
Q 2353 2234 1838 2234 
L 1294 2234 
L 1294 2753 
L 1863 2753 
Q 2328 2753 2575 2939 
Q 2822 3125 2822 3475 
Q 2822 3834 2567 4026 
Q 2313 4219 1838 4219 
Q 1578 4219 1281 4162 
Q 984 4106 628 3988 
L 628 4550 
Q 988 4650 1302 4700 
Q 1616 4750 1894 4750 
Q 2613 4750 3031 4423 
Q 3450 4097 3450 3541 
Q 3450 3153 3228 2886 
Q 3006 2619 2597 2516 
z
" transform="scale(0.015625)"/>
      </defs>
      <use xlink:href="#DejaVuSans-33"/>
      <use xlink:href="#DejaVuSans-2e" x="63.623047"/>
      <use xlink:href="#DejaVuSans-30" x="95.410156"/>
     </g>
    </g>
    <g id="PathCollection_14">
     <defs>
      <path id="m171eb0f5f7" d="M 0 3 
C 0.795609 3 1.55874 2.683901 2.12132 2.12132 
C 2.683901 1.55874 3 0.795609 3 0 
C 3 -0.795609 2.683901 -1.55874 2.12132 -2.12132 
C 1.55874 -2.683901 0.795609 -3 0 -3 
C -0.795609 -3 -1.55874 -2.683901 -2.12132 -2.12132 
C -2.683901 -1.55874 -3 -0.795609 -3 0 
C -3 0.795609 -2.683901 1.55874 -2.12132 2.12132 
C -1.55874 2.683901 -0.795609 3 0 3 
z
" style="stroke: #fca78b"/>
     </defs>
     <g>
      <use xlink:href="#m171eb0f5f7" x="210.8" y="159.215625" style="fill: #fca78b; stroke: #fca78b"/>
     </g>
    </g>
    <g id="text_18">
     <!-- 4.5 -->
     <g transform="translate(246.8 164.465625)scale(0.2 -0.2)">
      <defs>
       <path id="DejaVuSans-34" d="M 2419 4116 
L 825 1625 
L 2419 1625 
L 2419 4116 
z
M 2253 4666 
L 3047 4666 
L 3047 1625 
L 3713 1625 
L 3713 1100 
L 3047 1100 
L 3047 0 
L 2419 0 
L 2419 1100 
L 313 1100 
L 313 1709 
L 2253 4666 
z
" transform="scale(0.015625)"/>
      </defs>
      <use xlink:href="#DejaVuSans-34"/>
      <use xlink:href="#DejaVuSans-2e" x="63.623047"/>
      <use xlink:href="#DejaVuSans-35" x="95.410156"/>
     </g>
    </g>
    <g id="PathCollection_15">
     <defs>
      <path id="ma1f4b61329" d="M 0 3 
C 0.795609 3 1.55874 2.683901 2.12132 2.12132 
C 2.683901 1.55874 3 0.795609 3 0 
C 3 -0.795609 2.683901 -1.55874 2.12132 -2.12132 
C 1.55874 -2.683901 0.795609 -3 0 -3 
C -0.795609 -3 -1.55874 -2.683901 -2.12132 -2.12132 
C -2.683901 -1.55874 -3 -0.795609 -3 0 
C -3 0.795609 -2.683901 1.55874 -2.12132 2.12132 
C -1.55874 2.683901 -0.795609 3 0 3 
z
" style="stroke: #fc9b7c"/>
     </defs>
     <g>
      <use xlink:href="#ma1f4b61329" x="210.8" y="188.571875" style="fill: #fc9b7c; stroke: #fc9b7c"/>
     </g>
    </g>
    <g id="text_19">
     <!-- 6.0 -->
     <g transform="translate(246.8 193.821875)scale(0.2 -0.2)">
      <defs>
       <path id="DejaVuSans-36" d="M 2113 2584 
Q 1688 2584 1439 2293 
Q 1191 2003 1191 1497 
Q 1191 994 1439 701 
Q 1688 409 2113 409 
Q 2538 409 2786 701 
Q 3034 994 3034 1497 
Q 3034 2003 2786 2293 
Q 2538 2584 2113 2584 
z
M 3366 4563 
L 3366 3988 
Q 3128 4100 2886 4159 
Q 2644 4219 2406 4219 
Q 1781 4219 1451 3797 
Q 1122 3375 1075 2522 
Q 1259 2794 1537 2939 
Q 1816 3084 2150 3084 
Q 2853 3084 3261 2657 
Q 3669 2231 3669 1497 
Q 3669 778 3244 343 
Q 2819 -91 2113 -91 
Q 1303 -91 875 529 
Q 447 1150 447 2328 
Q 447 3434 972 4092 
Q 1497 4750 2381 4750 
Q 2619 4750 2861 4703 
Q 3103 4656 3366 4563 
z
" transform="scale(0.015625)"/>
      </defs>
      <use xlink:href="#DejaVuSans-36"/>
      <use xlink:href="#DejaVuSans-2e" x="63.623047"/>
      <use xlink:href="#DejaVuSans-30" x="95.410156"/>
     </g>
    </g>
    <g id="PathCollection_16">
     <defs>
      <path id="mf665cabdba" d="M 0 3 
C 0.795609 3 1.55874 2.683901 2.12132 2.12132 
C 2.683901 1.55874 3 0.795609 3 0 
C 3 -0.795609 2.683901 -1.55874 2.12132 -2.12132 
C 1.55874 -2.683901 0.795609 -3 0 -3 
C -0.795609 -3 -1.55874 -2.683901 -2.12132 -2.12132 
C -2.683901 -1.55874 -3 -0.795609 -3 0 
C -3 0.795609 -2.683901 1.55874 -2.12132 2.12132 
C -1.55874 2.683901 -0.795609 3 0 3 
z
" style="stroke: #fc8d6d"/>
     </defs>
     <g>
      <use xlink:href="#mf665cabdba" x="210.8" y="217.928125" style="fill: #fc8d6d; stroke: #fc8d6d"/>
     </g>
    </g>
    <g id="text_20">
     <!-- 7.5 -->
     <g transform="translate(246.8 223.178125)scale(0.2 -0.2)">
      <use xlink:href="#DejaVuSans-37"/>
      <use xlink:href="#DejaVuSans-2e" x="63.623047"/>
      <use xlink:href="#DejaVuSans-35" x="95.410156"/>
     </g>
    </g>
    <g id="PathCollection_17">
     <defs>
      <path id="m6f729f8169" d="M 0 3 
C 0.795609 3 1.55874 2.683901 2.12132 2.12132 
C 2.683901 1.55874 3 0.795609 3 0 
C 3 -0.795609 2.683901 -1.55874 2.12132 -2.12132 
C 1.55874 -2.683901 0.795609 -3 0 -3 
C -0.795609 -3 -1.55874 -2.683901 -2.12132 -2.12132 
C -2.683901 -1.55874 -3 -0.795609 -3 0 
C -3 0.795609 -2.683901 1.55874 -2.12132 2.12132 
C -1.55874 2.683901 -0.795609 3 0 3 
z
" style="stroke: #fc8060"/>
     </defs>
     <g>
      <use xlink:href="#m6f729f8169" x="210.8" y="247.284375" style="fill: #fc8060; stroke: #fc8060"/>
     </g>
    </g>
    <g id="text_21">
     <!-- 9.0 -->
     <g transform="translate(246.8 252.534375)scale(0.2 -0.2)">
      <defs>
       <path id="DejaVuSans-39" d="M 703 97 
L 703 672 
Q 941 559 1184 500 
Q 1428 441 1663 441 
Q 2288 441 2617 861 
Q 2947 1281 2994 2138 
Q 2813 1869 2534 1725 
Q 2256 1581 1919 1581 
Q 1219 1581 811 2004 
Q 403 2428 403 3163 
Q 403 3881 828 4315 
Q 1253 4750 1959 4750 
Q 2769 4750 3195 4129 
Q 3622 3509 3622 2328 
Q 3622 1225 3098 567 
Q 2575 -91 1691 -91 
Q 1453 -91 1209 -44 
Q 966 3 703 97 
z
M 1959 2075 
Q 2384 2075 2632 2365 
Q 2881 2656 2881 3163 
Q 2881 3666 2632 3958 
Q 2384 4250 1959 4250 
Q 1534 4250 1286 3958 
Q 1038 3666 1038 3163 
Q 1038 2656 1286 2365 
Q 1534 2075 1959 2075 
z
" transform="scale(0.015625)"/>
      </defs>
      <use xlink:href="#DejaVuSans-39"/>
      <use xlink:href="#DejaVuSans-2e" x="63.623047"/>
      <use xlink:href="#DejaVuSans-30" x="95.410156"/>
     </g>
    </g>
    <g id="PathCollection_18">
     <defs>
      <path id="m530431cdac" d="M 0 3 
C 0.795609 3 1.55874 2.683901 2.12132 2.12132 
C 2.683901 1.55874 3 0.795609 3 0 
C 3 -0.795609 2.683901 -1.55874 2.12132 -2.12132 
C 1.55874 -2.683901 0.795609 -3 0 -3 
C -0.795609 -3 -1.55874 -2.683901 -2.12132 -2.12132 
C -2.683901 -1.55874 -3 -0.795609 -3 0 
C -3 0.795609 -2.683901 1.55874 -2.12132 2.12132 
C -1.55874 2.683901 -0.795609 3 0 3 
z
" style="stroke: #fb7252"/>
     </defs>
     <g>
      <use xlink:href="#m530431cdac" x="210.8" y="276.640625" style="fill: #fb7252; stroke: #fb7252"/>
     </g>
    </g>
    <g id="text_22">
     <!-- 10.5 -->
     <g transform="translate(246.8 281.890625)scale(0.2 -0.2)">
      <use xlink:href="#DejaVuSans-31"/>
      <use xlink:href="#DejaVuSans-30" x="63.623047"/>
      <use xlink:href="#DejaVuSans-2e" x="127.246094"/>
      <use xlink:href="#DejaVuSans-35" x="159.033203"/>
     </g>
    </g>
    <g id="text_23">
     <!-- term_size -->
     <g transform="translate(246.8 311.246875)scale(0.2 -0.2)">
      <defs>
       <path id="DejaVuSans-7a" d="M 353 3500 
L 3084 3500 
L 3084 2975 
L 922 459 
L 3084 459 
L 3084 0 
L 275 0 
L 275 525 
L 2438 3041 
L 353 3041 
L 353 3500 
z
" transform="scale(0.015625)"/>
      </defs>
      <use xlink:href="#DejaVuSans-74"/>
      <use xlink:href="#DejaVuSans-65" x="39.208984"/>
      <use xlink:href="#DejaVuSans-72" x="100.732422"/>
      <use xlink:href="#DejaVuSans-6d" x="140.095703"/>
      <use xlink:href="#DejaVuSans-5f" x="237.507812"/>
      <use xlink:href="#DejaVuSans-73" x="287.507812"/>
      <use xlink:href="#DejaVuSans-69" x="339.607422"/>
      <use xlink:href="#DejaVuSans-7a" x="367.390625"/>
      <use xlink:href="#DejaVuSans-65" x="419.880859"/>
     </g>
    </g>
    <g id="PathCollection_19">
     <defs>
      <path id="m466908a3ee" d="M 0 7.542076 
C 2.000182 7.542076 3.918711 6.747395 5.333053 5.333053 
C 6.747395 3.918711 7.542076 2.000182 7.542076 0 
C 7.542076 -2.000182 6.747395 -3.918711 5.333053 -5.333053 
C 3.918711 -6.747395 2.000182 -7.542076 0 -7.542076 
C -2.000182 -7.542076 -3.918711 -6.747395 -5.333053 -5.333053 
C -6.747395 -3.918711 -7.542076 -2.000182 -7.542076 0 
C -7.542076 2.000182 -6.747395 3.918711 -5.333053 5.333053 
C -3.918711 6.747395 -2.000182 7.542076 0 7.542076 
z
" style="stroke: #333333"/>
     </defs>
     <g>
      <use xlink:href="#m466908a3ee" x="210.8" y="335.909375" style="fill: #333333; stroke: #333333"/>
     </g>
    </g>
    <g id="text_24">
     <!-- 800 -->
     <g transform="translate(246.8 341.159375)scale(0.2 -0.2)">
      <defs>
       <path id="DejaVuSans-38" d="M 2034 2216 
Q 1584 2216 1326 1975 
Q 1069 1734 1069 1313 
Q 1069 891 1326 650 
Q 1584 409 2034 409 
Q 2484 409 2743 651 
Q 3003 894 3003 1313 
Q 3003 1734 2745 1975 
Q 2488 2216 2034 2216 
z
M 1403 2484 
Q 997 2584 770 2862 
Q 544 3141 544 3541 
Q 544 4100 942 4425 
Q 1341 4750 2034 4750 
Q 2731 4750 3128 4425 
Q 3525 4100 3525 3541 
Q 3525 3141 3298 2862 
Q 3072 2584 2669 2484 
Q 3125 2378 3379 2068 
Q 3634 1759 3634 1313 
Q 3634 634 3220 271 
Q 2806 -91 2034 -91 
Q 1263 -91 848 271 
Q 434 634 434 1313 
Q 434 1759 690 2068 
Q 947 2378 1403 2484 
z
M 1172 3481 
Q 1172 3119 1398 2916 
Q 1625 2713 2034 2713 
Q 2441 2713 2670 2916 
Q 2900 3119 2900 3481 
Q 2900 3844 2670 4047 
Q 2441 4250 2034 4250 
Q 1625 4250 1398 4047 
Q 1172 3844 1172 3481 
z
" transform="scale(0.015625)"/>
      </defs>
      <use xlink:href="#DejaVuSans-38"/>
      <use xlink:href="#DejaVuSans-30" x="63.623047"/>
      <use xlink:href="#DejaVuSans-30" x="127.246094"/>
     </g>
    </g>
    <g id="PathCollection_20">
     <defs>
      <path id="med9a3e6f0f" d="M 0 9.408957 
C 2.495285 9.408957 4.888705 8.41757 6.653138 6.653138 
C 8.41757 4.888705 9.408957 2.495285 9.408957 0 
C 9.408957 -2.495285 8.41757 -4.888705 6.653138 -6.653138 
C 4.888705 -8.41757 2.495285 -9.408957 0 -9.408957 
C -2.495285 -9.408957 -4.888705 -8.41757 -6.653138 -6.653138 
C -8.41757 -4.888705 -9.408957 -2.495285 -9.408957 0 
C -9.408957 2.495285 -8.41757 4.888705 -6.653138 6.653138 
C -4.888705 8.41757 -2.495285 9.408957 0 9.408957 
z
" style="stroke: #333333"/>
     </defs>
     <g>
      <use xlink:href="#med9a3e6f0f" x="210.8" y="365.265625" style="fill: #333333; stroke: #333333"/>
     </g>
    </g>
    <g id="text_25">
     <!-- 1600 -->
     <g transform="translate(246.8 370.515625)scale(0.2 -0.2)">
      <use xlink:href="#DejaVuSans-31"/>
      <use xlink:href="#DejaVuSans-36" x="63.623047"/>
      <use xlink:href="#DejaVuSans-30" x="127.246094"/>
      <use xlink:href="#DejaVuSans-30" x="190.869141"/>
     </g>
    </g>
    <g id="PathCollection_21">
     <defs>
      <path id="mf68f406330" d="M 0 10.962393 
C 2.90726 10.962393 5.695839 9.807326 7.751582 7.751582 
C 9.807326 5.695839 10.962393 2.90726 10.962393 0 
C 10.962393 -2.90726 9.807326 -5.695839 7.751582 -7.751582 
C 5.695839 -9.807326 2.90726 -10.962393 0 -10.962393 
C -2.90726 -10.962393 -5.695839 -9.807326 -7.751582 -7.751582 
C -9.807326 -5.695839 -10.962393 -2.90726 -10.962393 0 
C -10.962393 2.90726 -9.807326 5.695839 -7.751582 7.751582 
C -5.695839 9.807326 -2.90726 10.962393 0 10.962393 
z
" style="stroke: #333333"/>
     </defs>
     <g>
      <use xlink:href="#mf68f406330" x="210.8" y="394.621875" style="fill: #333333; stroke: #333333"/>
     </g>
    </g>
    <g id="text_26">
     <!-- 2400 -->
     <g transform="translate(246.8 399.871875)scale(0.2 -0.2)">
      <use xlink:href="#DejaVuSans-32"/>
      <use xlink:href="#DejaVuSans-34" x="63.623047"/>
      <use xlink:href="#DejaVuSans-30" x="127.246094"/>
      <use xlink:href="#DejaVuSans-30" x="190.869141"/>
     </g>
    </g>
    <g id="PathCollection_22">
     <defs>
      <path id="m56912c6514" d="M 0 12.32151 
C 3.267703 12.32151 6.402009 11.023238 8.712624 8.712624 
C 11.023238 6.402009 12.32151 3.267703 12.32151 0 
C 12.32151 -3.267703 11.023238 -6.402009 8.712624 -8.712624 
C 6.402009 -11.023238 3.267703 -12.32151 0 -12.32151 
C -3.267703 -12.32151 -6.402009 -11.023238 -8.712624 -8.712624 
C -11.023238 -6.402009 -12.32151 -3.267703 -12.32151 0 
C -12.32151 3.267703 -11.023238 6.402009 -8.712624 8.712624 
C -6.402009 11.023238 -3.267703 12.32151 0 12.32151 
z
" style="stroke: #333333"/>
     </defs>
     <g>
      <use xlink:href="#m56912c6514" x="210.8" y="423.978125" style="fill: #333333; stroke: #333333"/>
     </g>
    </g>
    <g id="text_27">
     <!-- 3200 -->
     <g transform="translate(246.8 429.228125)scale(0.2 -0.2)">
      <use xlink:href="#DejaVuSans-33"/>
      <use xlink:href="#DejaVuSans-32" x="63.623047"/>
      <use xlink:href="#DejaVuSans-30" x="127.246094"/>
      <use xlink:href="#DejaVuSans-30" x="190.869141"/>
     </g>
    </g>
    <g id="PathCollection_23">
     <defs>
      <path id="m7eba632960" d="M 0 13.544932 
C 3.592158 13.544932 7.037674 12.117753 9.577713 9.577713 
C 12.117753 7.037674 13.544932 3.592158 13.544932 0 
C 13.544932 -3.592158 12.117753 -7.037674 9.577713 -9.577713 
C 7.037674 -12.117753 3.592158 -13.544932 0 -13.544932 
C -3.592158 -13.544932 -7.037674 -12.117753 -9.577713 -9.577713 
C -12.117753 -7.037674 -13.544932 -3.592158 -13.544932 0 
C -13.544932 3.592158 -12.117753 7.037674 -9.577713 9.577713 
C -7.037674 12.117753 -3.592158 13.544932 0 13.544932 
z
" style="stroke: #333333"/>
     </defs>
     <g>
      <use xlink:href="#m7eba632960" x="210.8" y="453.334375" style="fill: #333333; stroke: #333333"/>
     </g>
    </g>
    <g id="text_28">
     <!-- 4000 -->
     <g transform="translate(246.8 458.584375)scale(0.2 -0.2)">
      <use xlink:href="#DejaVuSans-34"/>
      <use xlink:href="#DejaVuSans-30" x="63.623047"/>
      <use xlink:href="#DejaVuSans-30" x="127.246094"/>
      <use xlink:href="#DejaVuSans-30" x="190.869141"/>
     </g>
    </g>
   </g>
  </g>
 </g>
 <defs>
  <clipPath id="p79a22214e7">
   <rect x="0" y="72" width="144" height="288"/>
  </clipPath>
 </defs>
</svg>
