<?xml version="1.0" encoding="utf-8" standalone="no"?>
<!DOCTYPE svg PUBLIC "-//W3C//DTD SVG 1.1//EN"
  "http://www.w3.org/Graphics/SVG/1.1/DTD/svg11.dtd">
<svg xmlns:xlink="http://www.w3.org/1999/xlink" width="360pt" height="360pt" viewBox="0 0 360 360" xmlns="http://www.w3.org/2000/svg" version="1.1">
 <metadata>
  <rdf:RDF xmlns:dc="http://purl.org/dc/elements/1.1/" xmlns:cc="http://creativecommons.org/ns#" xmlns:rdf="http://www.w3.org/1999/02/22-rdf-syntax-ns#">
   <cc:Work>
    <dc:type rdf:resource="http://purl.org/dc/dcmitype/StillImage"/>
    <dc:date>2024-12-23T15:49:52.726283</dc:date>
    <dc:format>image/svg+xml</dc:format>
    <dc:creator>
     <cc:Agent>
      <dc:title>Matplotlib v3.5.2, https://matplotlib.org/</dc:title>
     </cc:Agent>
    </dc:creator>
   </cc:Work>
  </rdf:RDF>
 </metadata>
 <defs>
  <style type="text/css">*{stroke-linejoin: round; stroke-linecap: butt}</style>
 </defs>
 <g id="figure_1">
  <g id="patch_1">
   <path d="M 0 360 
L 360 360 
L 360 0 
L 0 0 
z
" style="fill: #ffffff"/>
  </g>
  <g id="axes_1">
   <g id="patch_2">
    <path d="M 0 360 
L 144 360 
L 144 100.8 
L 0 100.8 
z
" style="fill: #ffffff"/>
   </g>
   <g id="LineCollection_1">
    <path d="M -1 112.581818 
L 252 112.581818 
" clip-path="url(#p3f2f50df69)" style="fill: none; stroke-dasharray: 5.55,2.4; stroke-dashoffset: 0; stroke: #000000; stroke-width: 1.5"/>
    <path d="M -1 142.036364 
L 252 142.036364 
" clip-path="url(#p3f2f50df69)" style="fill: none; stroke-dasharray: 5.55,2.4; stroke-dashoffset: 0; stroke: #000000; stroke-width: 1.5"/>
    <path d="M -1 171.490909 
L 252 171.490909 
" clip-path="url(#p3f2f50df69)" style="fill: none; stroke-dasharray: 5.55,2.4; stroke-dashoffset: 0; stroke: #000000; stroke-width: 1.5"/>
    <path d="M -1 200.945455 
L 252 200.945455 
" clip-path="url(#p3f2f50df69)" style="fill: none; stroke-dasharray: 5.55,2.4; stroke-dashoffset: 0; stroke: #000000; stroke-width: 1.5"/>
    <path d="M -1 230.4 
L 252 230.4 
" clip-path="url(#p3f2f50df69)" style="fill: none; stroke-dasharray: 5.55,2.4; stroke-dashoffset: 0; stroke: #000000; stroke-width: 1.5"/>
    <path d="M -1 259.854545 
L 252 259.854545 
" clip-path="url(#p3f2f50df69)" style="fill: none; stroke-dasharray: 5.55,2.4; stroke-dashoffset: 0; stroke: #000000; stroke-width: 1.5"/>
    <path d="M -1 289.309091 
L 252 289.309091 
" clip-path="url(#p3f2f50df69)" style="fill: none; stroke-dasharray: 5.55,2.4; stroke-dashoffset: 0; stroke: #000000; stroke-width: 1.5"/>
    <path d="M -1 318.763636 
L 252 318.763636 
" clip-path="url(#p3f2f50df69)" style="fill: none; stroke-dasharray: 5.55,2.4; stroke-dashoffset: 0; stroke: #000000; stroke-width: 1.5"/>
    <path d="M -1 348.218182 
L 252 348.218182 
" clip-path="url(#p3f2f50df69)" style="fill: none; stroke-dasharray: 5.55,2.4; stroke-dashoffset: 0; stroke: #000000; stroke-width: 1.5"/>
   </g>
   <g id="PathCollection_1">
    <path d="M 23.359553 124.86992 
C 26.618396 124.86992 29.744203 123.575168 32.048553 121.270818 
C 34.352903 118.966469 35.647655 115.840661 35.647655 112.581818 
C 35.647655 109.322975 34.352903 106.197168 32.048553 103.892818 
C 29.744203 101.588468 26.618396 100.293716 23.359553 100.293716 
C 20.10071 100.293716 16.974902 101.588468 14.670553 103.892818 
C 12.366203 106.197168 11.071451 109.322975 11.071451 112.581818 
C 11.071451 115.840661 12.366203 118.966469 14.670553 121.270818 
C 16.974902 123.575168 20.10071 124.86992 23.359553 124.86992 
z
" clip-path="url(#p3f2f50df69)" style="fill: #b21218; stroke: #000000; stroke-width: 0.994265"/>
    <path d="M 39.371607 151.086438 
C 41.771715 151.086438 44.073844 150.132865 45.770976 148.435733 
C 47.468109 146.7386 48.421682 144.436471 48.421682 142.036364 
C 48.421682 139.636256 47.468109 137.334127 45.770976 135.636995 
C 44.073844 133.939862 41.771715 132.986289 39.371607 132.986289 
C 36.971499 132.986289 34.669371 133.939862 32.972238 135.636995 
C 31.275106 137.334127 30.321533 139.636256 30.321533 142.036364 
C 30.321533 144.436471 31.275106 146.7386 32.972238 148.435733 
C 34.669371 150.132865 36.971499 151.086438 39.371607 151.086438 
z
" clip-path="url(#p3f2f50df69)" style="fill: #d82422; stroke: #000000; stroke-width: 0.994265"/>
    <path d="M 68.613046 178.697636 
C 70.524292 178.697636 72.357516 177.938289 73.708971 176.586834 
C 75.060426 175.235379 75.819772 173.402155 75.819772 171.490909 
C 75.819772 169.579663 75.060426 167.746439 73.708971 166.394984 
C 72.357516 165.043529 70.524292 164.284183 68.613046 164.284183 
C 66.7018 164.284183 64.868576 165.043529 63.517121 166.394984 
C 62.165666 167.746439 61.40632 169.579663 61.40632 171.490909 
C 61.40632 173.402155 62.165666 175.235379 63.517121 176.586834 
C 64.868576 177.938289 66.7018 178.697636 68.613046 178.697636 
z
" clip-path="url(#p3f2f50df69)" style="fill: #e02c26; stroke: #000000; stroke-width: 0.994265"/>
    <path d="M 26.483446 211.463386 
C 29.272835 211.463386 31.948352 210.355151 33.920747 208.382755 
C 35.893142 206.41036 37.001378 203.734843 37.001378 200.945455 
C 37.001378 198.156066 35.893142 195.480549 33.920747 193.508154 
C 31.948352 191.535759 29.272835 190.427523 26.483446 190.427523 
C 23.694058 190.427523 21.018541 191.535759 19.046146 193.508154 
C 17.073751 195.480549 15.965515 198.156066 15.965515 200.945455 
C 15.965515 203.734843 17.073751 206.41036 19.046146 208.382755 
C 21.018541 210.355151 23.694058 211.463386 26.483446 211.463386 
z
" clip-path="url(#p3f2f50df69)" style="fill: #fc9070; stroke: #000000; stroke-width: 0.994265"/>
    <path d="M 14.991889 244.542136 
C 18.742427 244.542136 22.339858 243.052031 24.991889 240.4 
C 27.64392 237.747969 29.134025 234.150538 29.134025 230.4 
C 29.134025 226.649462 27.64392 223.052031 24.991889 220.4 
C 22.339858 217.747969 18.742427 216.257864 14.991889 216.257864 
C 11.241351 216.257864 7.64392 217.747969 4.991889 220.4 
C 2.339858 223.052031 0.849753 226.649462 0.849753 230.4 
C 0.849753 234.150538 2.339858 237.747969 4.991889 240.4 
C 7.64392 243.052031 11.241351 244.542136 14.991889 244.542136 
z
" clip-path="url(#p3f2f50df69)" style="fill: #fcb499; stroke: #000000; stroke-width: 0.994265"/>
    <path d="M 57.67617 267.04032 
C 59.58186 267.04032 61.409754 266.283181 62.75728 264.935655 
C 64.104806 263.588129 64.861945 261.760235 64.861945 259.854545 
C 64.861945 257.948856 64.104806 256.120962 62.75728 254.773436 
C 61.409754 253.42591 59.58186 252.668771 57.67617 252.668771 
C 55.770481 252.668771 53.942587 253.42591 52.595061 254.773436 
C 51.247535 256.120962 50.490396 257.948856 50.490396 259.854545 
C 50.490396 261.760235 51.247535 263.588129 52.595061 264.935655 
C 53.942587 266.283181 55.770481 267.04032 57.67617 267.04032 
z
" clip-path="url(#p3f2f50df69)" style="fill: #fdc7b2; stroke: #000000; stroke-width: 0.994265"/>
    <path d="M 111.503106 295.545652 
C 113.157061 295.545652 114.743497 294.888528 115.91302 293.719005 
C 117.082543 292.549482 117.739666 290.963046 117.739666 289.309091 
C 117.739666 287.655136 117.082543 286.0687 115.91302 284.899177 
C 114.743497 283.729654 113.157061 283.07253 111.503106 283.07253 
C 109.84915 283.07253 108.262714 283.729654 107.093191 284.899177 
C 105.923668 286.0687 105.266545 287.655136 105.266545 289.309091 
C 105.266545 290.963046 105.923668 292.549482 107.093191 293.719005 
C 108.262714 294.888528 109.84915 295.545652 111.503106 295.545652 
z
" clip-path="url(#p3f2f50df69)" style="fill: #fee3d6; stroke: #000000; stroke-width: 0.994265"/>
    <path d="M 78.734694 325.335686 
C 80.477622 325.335686 82.149399 324.643213 83.381835 323.410777 
C 84.614271 322.178341 85.306743 320.506564 85.306743 318.763636 
C 85.306743 317.020708 84.614271 315.348932 83.381835 314.116496 
C 82.149399 312.884059 80.477622 312.191587 78.734694 312.191587 
C 76.991766 312.191587 75.319989 312.884059 74.087553 314.116496 
C 72.855117 315.348932 72.162644 317.020708 72.162644 318.763636 
C 72.162644 320.506564 72.855117 322.178341 74.087553 323.410777 
C 75.319989 324.643213 76.991766 325.335686 78.734694 325.335686 
z
" clip-path="url(#p3f2f50df69)" style="fill: #fee4d8; stroke: #000000; stroke-width: 0.994265"/>
    <path d="M 131.7157 354.341906 
C 133.339731 354.341906 134.897464 353.696672 136.045827 352.548309 
C 137.19419 351.399946 137.839424 349.842213 137.839424 348.218182 
C 137.839424 346.594151 137.19419 345.036418 136.045827 343.888055 
C 134.897464 342.739692 133.339731 342.094457 131.7157 342.094457 
C 130.091669 342.094457 128.533936 342.739692 127.385573 343.888055 
C 126.23721 345.036418 125.591976 346.594151 125.591976 348.218182 
C 125.591976 349.842213 126.23721 351.399946 127.385573 352.548309 
C 128.533936 353.696672 130.091669 354.341906 131.7157 354.341906 
z
" clip-path="url(#p3f2f50df69)" style="fill: #fee7dc; stroke: #000000; stroke-width: 0.994265"/>
   </g>
   <g id="PathCollection_2"/>
   <g id="PathCollection_3"/>
   <g id="PathCollection_4"/>
   <g id="PathCollection_5"/>
   <g id="PathCollection_6"/>
   <g id="PathCollection_7"/>
   <g id="PathCollection_8"/>
   <g id="PathCollection_9"/>
   <g id="PathCollection_10"/>
   <g id="PathCollection_11"/>
   <g id="matplotlib.axis_1">
    <g id="xtick_1">
     <g id="line2d_1">
      <defs>
       <path id="m711e1305a2" d="M 0 0 
L 0 10 
" style="stroke: #000000; stroke-width: 3"/>
      </defs>
      <g>
       <use xlink:href="#m711e1305a2" x="0" y="360" style="stroke: #000000; stroke-width: 3"/>
      </g>
     </g>
     <g id="text_1">
      <!-- 1 -->
      <g transform="translate(-6.3625 388.696875)scale(0.2 -0.2)">
       <defs>
        <path id="DejaVuSans-31" d="M 794 531 
L 1825 531 
L 1825 4091 
L 703 3866 
L 703 4441 
L 1819 4666 
L 2450 4666 
L 2450 531 
L 3481 531 
L 3481 0 
L 794 0 
L 794 531 
z
" transform="scale(0.015625)"/>
       </defs>
       <use xlink:href="#DejaVuSans-31"/>
      </g>
     </g>
    </g>
    <g id="xtick_2">
     <g id="line2d_2">
      <g>
       <use xlink:href="#m711e1305a2" x="72" y="360" style="stroke: #000000; stroke-width: 3"/>
      </g>
     </g>
     <g id="text_2">
      <!-- 2 -->
      <g transform="translate(65.6375 388.696875)scale(0.2 -0.2)">
       <defs>
        <path id="DejaVuSans-32" d="M 1228 531 
L 3431 531 
L 3431 0 
L 469 0 
L 469 531 
Q 828 903 1448 1529 
Q 2069 2156 2228 2338 
Q 2531 2678 2651 2914 
Q 2772 3150 2772 3378 
Q 2772 3750 2511 3984 
Q 2250 4219 1831 4219 
Q 1534 4219 1204 4116 
Q 875 4013 500 3803 
L 500 4441 
Q 881 4594 1212 4672 
Q 1544 4750 1819 4750 
Q 2544 4750 2975 4387 
Q 3406 4025 3406 3419 
Q 3406 3131 3298 2873 
Q 3191 2616 2906 2266 
Q 2828 2175 2409 1742 
Q 1991 1309 1228 531 
z
" transform="scale(0.015625)"/>
       </defs>
       <use xlink:href="#DejaVuSans-32"/>
      </g>
     </g>
    </g>
    <g id="xtick_3">
     <g id="line2d_3">
      <g>
       <use xlink:href="#m711e1305a2" x="144" y="360" style="stroke: #000000; stroke-width: 3"/>
      </g>
     </g>
     <g id="text_3">
      <!-- 3 -->
      <g transform="translate(137.6375 388.696875)scale(0.2 -0.2)">
       <defs>
        <path id="DejaVuSans-33" d="M 2597 2516 
Q 3050 2419 3304 2112 
Q 3559 1806 3559 1356 
Q 3559 666 3084 287 
Q 2609 -91 1734 -91 
Q 1441 -91 1130 -33 
Q 819 25 488 141 
L 488 750 
Q 750 597 1062 519 
Q 1375 441 1716 441 
Q 2309 441 2620 675 
Q 2931 909 2931 1356 
Q 2931 1769 2642 2001 
Q 2353 2234 1838 2234 
L 1294 2234 
L 1294 2753 
L 1863 2753 
Q 2328 2753 2575 2939 
Q 2822 3125 2822 3475 
Q 2822 3834 2567 4026 
Q 2313 4219 1838 4219 
Q 1578 4219 1281 4162 
Q 984 4106 628 3988 
L 628 4550 
Q 988 4650 1302 4700 
Q 1616 4750 1894 4750 
Q 2613 4750 3031 4423 
Q 3450 4097 3450 3541 
Q 3450 3153 3228 2886 
Q 3006 2619 2597 2516 
z
" transform="scale(0.015625)"/>
       </defs>
       <use xlink:href="#DejaVuSans-33"/>
      </g>
     </g>
    </g>
    <g id="text_4">
     <!-- FC -->
     <g transform="translate(59.265625 412.053125)scale(0.2 -0.2)">
      <defs>
       <path id="DejaVuSans-46" d="M 628 4666 
L 3309 4666 
L 3309 4134 
L 1259 4134 
L 1259 2759 
L 3109 2759 
L 3109 2228 
L 1259 2228 
L 1259 0 
L 628 0 
L 628 4666 
z
" transform="scale(0.015625)"/>
       <path id="DejaVuSans-43" d="M 4122 4306 
L 4122 3641 
Q 3803 3938 3442 4084 
Q 3081 4231 2675 4231 
Q 1875 4231 1450 3742 
Q 1025 3253 1025 2328 
Q 1025 1406 1450 917 
Q 1875 428 2675 428 
Q 3081 428 3442 575 
Q 3803 722 4122 1019 
L 4122 359 
Q 3791 134 3420 21 
Q 3050 -91 2638 -91 
Q 1578 -91 968 557 
Q 359 1206 359 2328 
Q 359 3453 968 4101 
Q 1578 4750 2638 4750 
Q 3056 4750 3426 4639 
Q 3797 4528 4122 4306 
z
" transform="scale(0.015625)"/>
      </defs>
      <use xlink:href="#DejaVuSans-46"/>
      <use xlink:href="#DejaVuSans-43" x="57.519531"/>
     </g>
    </g>
   </g>
   <g id="matplotlib.axis_2">
    <g id="ytick_1">
     <g id="line2d_4">
      <defs>
       <path id="md57e5fdec7" d="M 0 0 
L -10 0 
" style="stroke: #000000; stroke-width: 3"/>
      </defs>
      <g>
       <use xlink:href="#md57e5fdec7" x="0" y="112.581818" style="stroke: #000000; stroke-width: 3"/>
      </g>
     </g>
     <g id="text_5">
      <!-- nucleic acid binding -->
      <g transform="translate(-213.034375 120.180256)scale(0.2 -0.2)">
       <defs>
        <path id="DejaVuSans-6e" d="M 3513 2113 
L 3513 0 
L 2938 0 
L 2938 2094 
Q 2938 2591 2744 2837 
Q 2550 3084 2163 3084 
Q 1697 3084 1428 2787 
Q 1159 2491 1159 1978 
L 1159 0 
L 581 0 
L 581 3500 
L 1159 3500 
L 1159 2956 
Q 1366 3272 1645 3428 
Q 1925 3584 2291 3584 
Q 2894 3584 3203 3211 
Q 3513 2838 3513 2113 
z
" transform="scale(0.015625)"/>
        <path id="DejaVuSans-75" d="M 544 1381 
L 544 3500 
L 1119 3500 
L 1119 1403 
Q 1119 906 1312 657 
Q 1506 409 1894 409 
Q 2359 409 2629 706 
Q 2900 1003 2900 1516 
L 2900 3500 
L 3475 3500 
L 3475 0 
L 2900 0 
L 2900 538 
Q 2691 219 2414 64 
Q 2138 -91 1772 -91 
Q 1169 -91 856 284 
Q 544 659 544 1381 
z
M 1991 3584 
L 1991 3584 
z
" transform="scale(0.015625)"/>
        <path id="DejaVuSans-63" d="M 3122 3366 
L 3122 2828 
Q 2878 2963 2633 3030 
Q 2388 3097 2138 3097 
Q 1578 3097 1268 2742 
Q 959 2388 959 1747 
Q 959 1106 1268 751 
Q 1578 397 2138 397 
Q 2388 397 2633 464 
Q 2878 531 3122 666 
L 3122 134 
Q 2881 22 2623 -34 
Q 2366 -91 2075 -91 
Q 1284 -91 818 406 
Q 353 903 353 1747 
Q 353 2603 823 3093 
Q 1294 3584 2113 3584 
Q 2378 3584 2631 3529 
Q 2884 3475 3122 3366 
z
" transform="scale(0.015625)"/>
        <path id="DejaVuSans-6c" d="M 603 4863 
L 1178 4863 
L 1178 0 
L 603 0 
L 603 4863 
z
" transform="scale(0.015625)"/>
        <path id="DejaVuSans-65" d="M 3597 1894 
L 3597 1613 
L 953 1613 
Q 991 1019 1311 708 
Q 1631 397 2203 397 
Q 2534 397 2845 478 
Q 3156 559 3463 722 
L 3463 178 
Q 3153 47 2828 -22 
Q 2503 -91 2169 -91 
Q 1331 -91 842 396 
Q 353 884 353 1716 
Q 353 2575 817 3079 
Q 1281 3584 2069 3584 
Q 2775 3584 3186 3129 
Q 3597 2675 3597 1894 
z
M 3022 2063 
Q 3016 2534 2758 2815 
Q 2500 3097 2075 3097 
Q 1594 3097 1305 2825 
Q 1016 2553 972 2059 
L 3022 2063 
z
" transform="scale(0.015625)"/>
        <path id="DejaVuSans-69" d="M 603 3500 
L 1178 3500 
L 1178 0 
L 603 0 
L 603 3500 
z
M 603 4863 
L 1178 4863 
L 1178 4134 
L 603 4134 
L 603 4863 
z
" transform="scale(0.015625)"/>
        <path id="DejaVuSans-20" transform="scale(0.015625)"/>
        <path id="DejaVuSans-61" d="M 2194 1759 
Q 1497 1759 1228 1600 
Q 959 1441 959 1056 
Q 959 750 1161 570 
Q 1363 391 1709 391 
Q 2188 391 2477 730 
Q 2766 1069 2766 1631 
L 2766 1759 
L 2194 1759 
z
M 3341 1997 
L 3341 0 
L 2766 0 
L 2766 531 
Q 2569 213 2275 61 
Q 1981 -91 1556 -91 
Q 1019 -91 701 211 
Q 384 513 384 1019 
Q 384 1609 779 1909 
Q 1175 2209 1959 2209 
L 2766 2209 
L 2766 2266 
Q 2766 2663 2505 2880 
Q 2244 3097 1772 3097 
Q 1472 3097 1187 3025 
Q 903 2953 641 2809 
L 641 3341 
Q 956 3463 1253 3523 
Q 1550 3584 1831 3584 
Q 2591 3584 2966 3190 
Q 3341 2797 3341 1997 
z
" transform="scale(0.015625)"/>
        <path id="DejaVuSans-64" d="M 2906 2969 
L 2906 4863 
L 3481 4863 
L 3481 0 
L 2906 0 
L 2906 525 
Q 2725 213 2448 61 
Q 2172 -91 1784 -91 
Q 1150 -91 751 415 
Q 353 922 353 1747 
Q 353 2572 751 3078 
Q 1150 3584 1784 3584 
Q 2172 3584 2448 3432 
Q 2725 3281 2906 2969 
z
M 947 1747 
Q 947 1113 1208 752 
Q 1469 391 1925 391 
Q 2381 391 2643 752 
Q 2906 1113 2906 1747 
Q 2906 2381 2643 2742 
Q 2381 3103 1925 3103 
Q 1469 3103 1208 2742 
Q 947 2381 947 1747 
z
" transform="scale(0.015625)"/>
        <path id="DejaVuSans-62" d="M 3116 1747 
Q 3116 2381 2855 2742 
Q 2594 3103 2138 3103 
Q 1681 3103 1420 2742 
Q 1159 2381 1159 1747 
Q 1159 1113 1420 752 
Q 1681 391 2138 391 
Q 2594 391 2855 752 
Q 3116 1113 3116 1747 
z
M 1159 2969 
Q 1341 3281 1617 3432 
Q 1894 3584 2278 3584 
Q 2916 3584 3314 3078 
Q 3713 2572 3713 1747 
Q 3713 922 3314 415 
Q 2916 -91 2278 -91 
Q 1894 -91 1617 61 
Q 1341 213 1159 525 
L 1159 0 
L 581 0 
L 581 4863 
L 1159 4863 
L 1159 2969 
z
" transform="scale(0.015625)"/>
        <path id="DejaVuSans-67" d="M 2906 1791 
Q 2906 2416 2648 2759 
Q 2391 3103 1925 3103 
Q 1463 3103 1205 2759 
Q 947 2416 947 1791 
Q 947 1169 1205 825 
Q 1463 481 1925 481 
Q 2391 481 2648 825 
Q 2906 1169 2906 1791 
z
M 3481 434 
Q 3481 -459 3084 -895 
Q 2688 -1331 1869 -1331 
Q 1566 -1331 1297 -1286 
Q 1028 -1241 775 -1147 
L 775 -588 
Q 1028 -725 1275 -790 
Q 1522 -856 1778 -856 
Q 2344 -856 2625 -561 
Q 2906 -266 2906 331 
L 2906 616 
Q 2728 306 2450 153 
Q 2172 0 1784 0 
Q 1141 0 747 490 
Q 353 981 353 1791 
Q 353 2603 747 3093 
Q 1141 3584 1784 3584 
Q 2172 3584 2450 3431 
Q 2728 3278 2906 2969 
L 2906 3500 
L 3481 3500 
L 3481 434 
z
" transform="scale(0.015625)"/>
       </defs>
       <use xlink:href="#DejaVuSans-6e"/>
       <use xlink:href="#DejaVuSans-75" x="63.378906"/>
       <use xlink:href="#DejaVuSans-63" x="126.757812"/>
       <use xlink:href="#DejaVuSans-6c" x="181.738281"/>
       <use xlink:href="#DejaVuSans-65" x="209.521484"/>
       <use xlink:href="#DejaVuSans-69" x="271.044922"/>
       <use xlink:href="#DejaVuSans-63" x="298.828125"/>
       <use xlink:href="#DejaVuSans-20" x="353.808594"/>
       <use xlink:href="#DejaVuSans-61" x="385.595703"/>
       <use xlink:href="#DejaVuSans-63" x="446.875"/>
       <use xlink:href="#DejaVuSans-69" x="501.855469"/>
       <use xlink:href="#DejaVuSans-64" x="529.638672"/>
       <use xlink:href="#DejaVuSans-20" x="593.115234"/>
       <use xlink:href="#DejaVuSans-62" x="624.902344"/>
       <use xlink:href="#DejaVuSans-69" x="688.378906"/>
       <use xlink:href="#DejaVuSans-6e" x="716.162109"/>
       <use xlink:href="#DejaVuSans-64" x="779.541016"/>
       <use xlink:href="#DejaVuSans-69" x="843.017578"/>
       <use xlink:href="#DejaVuSans-6e" x="870.800781"/>
       <use xlink:href="#DejaVuSans-67" x="934.179688"/>
      </g>
     </g>
    </g>
    <g id="ytick_2">
     <g id="line2d_5">
      <g>
       <use xlink:href="#md57e5fdec7" x="0" y="142.036364" style="stroke: #000000; stroke-width: 3"/>
      </g>
     </g>
     <g id="text_6">
      <!-- protein-containing complex binding -->
      <g transform="translate(-368.99375 149.634801)scale(0.2 -0.2)">
       <defs>
        <path id="DejaVuSans-70" d="M 1159 525 
L 1159 -1331 
L 581 -1331 
L 581 3500 
L 1159 3500 
L 1159 2969 
Q 1341 3281 1617 3432 
Q 1894 3584 2278 3584 
Q 2916 3584 3314 3078 
Q 3713 2572 3713 1747 
Q 3713 922 3314 415 
Q 2916 -91 2278 -91 
Q 1894 -91 1617 61 
Q 1341 213 1159 525 
z
M 3116 1747 
Q 3116 2381 2855 2742 
Q 2594 3103 2138 3103 
Q 1681 3103 1420 2742 
Q 1159 2381 1159 1747 
Q 1159 1113 1420 752 
Q 1681 391 2138 391 
Q 2594 391 2855 752 
Q 3116 1113 3116 1747 
z
" transform="scale(0.015625)"/>
        <path id="DejaVuSans-72" d="M 2631 2963 
Q 2534 3019 2420 3045 
Q 2306 3072 2169 3072 
Q 1681 3072 1420 2755 
Q 1159 2438 1159 1844 
L 1159 0 
L 581 0 
L 581 3500 
L 1159 3500 
L 1159 2956 
Q 1341 3275 1631 3429 
Q 1922 3584 2338 3584 
Q 2397 3584 2469 3576 
Q 2541 3569 2628 3553 
L 2631 2963 
z
" transform="scale(0.015625)"/>
        <path id="DejaVuSans-6f" d="M 1959 3097 
Q 1497 3097 1228 2736 
Q 959 2375 959 1747 
Q 959 1119 1226 758 
Q 1494 397 1959 397 
Q 2419 397 2687 759 
Q 2956 1122 2956 1747 
Q 2956 2369 2687 2733 
Q 2419 3097 1959 3097 
z
M 1959 3584 
Q 2709 3584 3137 3096 
Q 3566 2609 3566 1747 
Q 3566 888 3137 398 
Q 2709 -91 1959 -91 
Q 1206 -91 779 398 
Q 353 888 353 1747 
Q 353 2609 779 3096 
Q 1206 3584 1959 3584 
z
" transform="scale(0.015625)"/>
        <path id="DejaVuSans-74" d="M 1172 4494 
L 1172 3500 
L 2356 3500 
L 2356 3053 
L 1172 3053 
L 1172 1153 
Q 1172 725 1289 603 
Q 1406 481 1766 481 
L 2356 481 
L 2356 0 
L 1766 0 
Q 1100 0 847 248 
Q 594 497 594 1153 
L 594 3053 
L 172 3053 
L 172 3500 
L 594 3500 
L 594 4494 
L 1172 4494 
z
" transform="scale(0.015625)"/>
        <path id="DejaVuSans-2d" d="M 313 2009 
L 1997 2009 
L 1997 1497 
L 313 1497 
L 313 2009 
z
" transform="scale(0.015625)"/>
        <path id="DejaVuSans-6d" d="M 3328 2828 
Q 3544 3216 3844 3400 
Q 4144 3584 4550 3584 
Q 5097 3584 5394 3201 
Q 5691 2819 5691 2113 
L 5691 0 
L 5113 0 
L 5113 2094 
Q 5113 2597 4934 2840 
Q 4756 3084 4391 3084 
Q 3944 3084 3684 2787 
Q 3425 2491 3425 1978 
L 3425 0 
L 2847 0 
L 2847 2094 
Q 2847 2600 2669 2842 
Q 2491 3084 2119 3084 
Q 1678 3084 1418 2786 
Q 1159 2488 1159 1978 
L 1159 0 
L 581 0 
L 581 3500 
L 1159 3500 
L 1159 2956 
Q 1356 3278 1631 3431 
Q 1906 3584 2284 3584 
Q 2666 3584 2933 3390 
Q 3200 3197 3328 2828 
z
" transform="scale(0.015625)"/>
        <path id="DejaVuSans-78" d="M 3513 3500 
L 2247 1797 
L 3578 0 
L 2900 0 
L 1881 1375 
L 863 0 
L 184 0 
L 1544 1831 
L 300 3500 
L 978 3500 
L 1906 2253 
L 2834 3500 
L 3513 3500 
z
" transform="scale(0.015625)"/>
       </defs>
       <use xlink:href="#DejaVuSans-70"/>
       <use xlink:href="#DejaVuSans-72" x="63.476562"/>
       <use xlink:href="#DejaVuSans-6f" x="102.339844"/>
       <use xlink:href="#DejaVuSans-74" x="163.521484"/>
       <use xlink:href="#DejaVuSans-65" x="202.730469"/>
       <use xlink:href="#DejaVuSans-69" x="264.253906"/>
       <use xlink:href="#DejaVuSans-6e" x="292.037109"/>
       <use xlink:href="#DejaVuSans-2d" x="355.416016"/>
       <use xlink:href="#DejaVuSans-63" x="391.5"/>
       <use xlink:href="#DejaVuSans-6f" x="446.480469"/>
       <use xlink:href="#DejaVuSans-6e" x="507.662109"/>
       <use xlink:href="#DejaVuSans-74" x="571.041016"/>
       <use xlink:href="#DejaVuSans-61" x="610.25"/>
       <use xlink:href="#DejaVuSans-69" x="671.529297"/>
       <use xlink:href="#DejaVuSans-6e" x="699.3125"/>
       <use xlink:href="#DejaVuSans-69" x="762.691406"/>
       <use xlink:href="#DejaVuSans-6e" x="790.474609"/>
       <use xlink:href="#DejaVuSans-67" x="853.853516"/>
       <use xlink:href="#DejaVuSans-20" x="917.330078"/>
       <use xlink:href="#DejaVuSans-63" x="949.117188"/>
       <use xlink:href="#DejaVuSans-6f" x="1004.097656"/>
       <use xlink:href="#DejaVuSans-6d" x="1065.279297"/>
       <use xlink:href="#DejaVuSans-70" x="1162.691406"/>
       <use xlink:href="#DejaVuSans-6c" x="1226.167969"/>
       <use xlink:href="#DejaVuSans-65" x="1253.951172"/>
       <use xlink:href="#DejaVuSans-78" x="1313.724609"/>
       <use xlink:href="#DejaVuSans-20" x="1372.904297"/>
       <use xlink:href="#DejaVuSans-62" x="1404.691406"/>
       <use xlink:href="#DejaVuSans-69" x="1468.167969"/>
       <use xlink:href="#DejaVuSans-6e" x="1495.951172"/>
       <use xlink:href="#DejaVuSans-64" x="1559.330078"/>
       <use xlink:href="#DejaVuSans-69" x="1622.806641"/>
       <use xlink:href="#DejaVuSans-6e" x="1650.589844"/>
       <use xlink:href="#DejaVuSans-67" x="1713.96875"/>
      </g>
     </g>
    </g>
    <g id="ytick_3">
     <g id="line2d_6">
      <g>
       <use xlink:href="#md57e5fdec7" x="0" y="171.490909" style="stroke: #000000; stroke-width: 3"/>
      </g>
     </g>
     <g id="text_7">
      <!-- chromatin binding -->
      <g transform="translate(-195.9 179.089347)scale(0.2 -0.2)">
       <defs>
        <path id="DejaVuSans-68" d="M 3513 2113 
L 3513 0 
L 2938 0 
L 2938 2094 
Q 2938 2591 2744 2837 
Q 2550 3084 2163 3084 
Q 1697 3084 1428 2787 
Q 1159 2491 1159 1978 
L 1159 0 
L 581 0 
L 581 4863 
L 1159 4863 
L 1159 2956 
Q 1366 3272 1645 3428 
Q 1925 3584 2291 3584 
Q 2894 3584 3203 3211 
Q 3513 2838 3513 2113 
z
" transform="scale(0.015625)"/>
       </defs>
       <use xlink:href="#DejaVuSans-63"/>
       <use xlink:href="#DejaVuSans-68" x="54.980469"/>
       <use xlink:href="#DejaVuSans-72" x="118.359375"/>
       <use xlink:href="#DejaVuSans-6f" x="157.222656"/>
       <use xlink:href="#DejaVuSans-6d" x="218.404297"/>
       <use xlink:href="#DejaVuSans-61" x="315.816406"/>
       <use xlink:href="#DejaVuSans-74" x="377.095703"/>
       <use xlink:href="#DejaVuSans-69" x="416.304688"/>
       <use xlink:href="#DejaVuSans-6e" x="444.087891"/>
       <use xlink:href="#DejaVuSans-20" x="507.466797"/>
       <use xlink:href="#DejaVuSans-62" x="539.253906"/>
       <use xlink:href="#DejaVuSans-69" x="602.730469"/>
       <use xlink:href="#DejaVuSans-6e" x="630.513672"/>
       <use xlink:href="#DejaVuSans-64" x="693.892578"/>
       <use xlink:href="#DejaVuSans-69" x="757.369141"/>
       <use xlink:href="#DejaVuSans-6e" x="785.152344"/>
       <use xlink:href="#DejaVuSans-67" x="848.53125"/>
      </g>
     </g>
    </g>
    <g id="ytick_4">
     <g id="line2d_7">
      <g>
       <use xlink:href="#md57e5fdec7" x="0" y="200.945455" style="stroke: #000000; stroke-width: 3"/>
      </g>
     </g>
     <g id="text_8">
      <!-- DNA binding -->
      <g transform="translate(-138.453125 208.543892)scale(0.2 -0.2)">
       <defs>
        <path id="DejaVuSans-44" d="M 1259 4147 
L 1259 519 
L 2022 519 
Q 2988 519 3436 956 
Q 3884 1394 3884 2338 
Q 3884 3275 3436 3711 
Q 2988 4147 2022 4147 
L 1259 4147 
z
M 628 4666 
L 1925 4666 
Q 3281 4666 3915 4102 
Q 4550 3538 4550 2338 
Q 4550 1131 3912 565 
Q 3275 0 1925 0 
L 628 0 
L 628 4666 
z
" transform="scale(0.015625)"/>
        <path id="DejaVuSans-4e" d="M 628 4666 
L 1478 4666 
L 3547 763 
L 3547 4666 
L 4159 4666 
L 4159 0 
L 3309 0 
L 1241 3903 
L 1241 0 
L 628 0 
L 628 4666 
z
" transform="scale(0.015625)"/>
        <path id="DejaVuSans-41" d="M 2188 4044 
L 1331 1722 
L 3047 1722 
L 2188 4044 
z
M 1831 4666 
L 2547 4666 
L 4325 0 
L 3669 0 
L 3244 1197 
L 1141 1197 
L 716 0 
L 50 0 
L 1831 4666 
z
" transform="scale(0.015625)"/>
       </defs>
       <use xlink:href="#DejaVuSans-44"/>
       <use xlink:href="#DejaVuSans-4e" x="77.001953"/>
       <use xlink:href="#DejaVuSans-41" x="151.806641"/>
       <use xlink:href="#DejaVuSans-20" x="220.214844"/>
       <use xlink:href="#DejaVuSans-62" x="252.001953"/>
       <use xlink:href="#DejaVuSans-69" x="315.478516"/>
       <use xlink:href="#DejaVuSans-6e" x="343.261719"/>
       <use xlink:href="#DejaVuSans-64" x="406.640625"/>
       <use xlink:href="#DejaVuSans-69" x="470.117188"/>
       <use xlink:href="#DejaVuSans-6e" x="497.900391"/>
       <use xlink:href="#DejaVuSans-67" x="561.279297"/>
      </g>
     </g>
    </g>
    <g id="ytick_5">
     <g id="line2d_8">
      <g>
       <use xlink:href="#md57e5fdec7" x="0" y="230.4" style="stroke: #000000; stroke-width: 3"/>
      </g>
     </g>
     <g id="text_9">
      <!-- organic cyclic compound binding -->
      <g transform="translate(-343.05 237.998438)scale(0.2 -0.2)">
       <defs>
        <path id="DejaVuSans-79" d="M 2059 -325 
Q 1816 -950 1584 -1140 
Q 1353 -1331 966 -1331 
L 506 -1331 
L 506 -850 
L 844 -850 
Q 1081 -850 1212 -737 
Q 1344 -625 1503 -206 
L 1606 56 
L 191 3500 
L 800 3500 
L 1894 763 
L 2988 3500 
L 3597 3500 
L 2059 -325 
z
" transform="scale(0.015625)"/>
       </defs>
       <use xlink:href="#DejaVuSans-6f"/>
       <use xlink:href="#DejaVuSans-72" x="61.181641"/>
       <use xlink:href="#DejaVuSans-67" x="100.544922"/>
       <use xlink:href="#DejaVuSans-61" x="164.021484"/>
       <use xlink:href="#DejaVuSans-6e" x="225.300781"/>
       <use xlink:href="#DejaVuSans-69" x="288.679688"/>
       <use xlink:href="#DejaVuSans-63" x="316.462891"/>
       <use xlink:href="#DejaVuSans-20" x="371.443359"/>
       <use xlink:href="#DejaVuSans-63" x="403.230469"/>
       <use xlink:href="#DejaVuSans-79" x="458.210938"/>
       <use xlink:href="#DejaVuSans-63" x="517.390625"/>
       <use xlink:href="#DejaVuSans-6c" x="572.371094"/>
       <use xlink:href="#DejaVuSans-69" x="600.154297"/>
       <use xlink:href="#DejaVuSans-63" x="627.9375"/>
       <use xlink:href="#DejaVuSans-20" x="682.917969"/>
       <use xlink:href="#DejaVuSans-63" x="714.705078"/>
       <use xlink:href="#DejaVuSans-6f" x="769.685547"/>
       <use xlink:href="#DejaVuSans-6d" x="830.867188"/>
       <use xlink:href="#DejaVuSans-70" x="928.279297"/>
       <use xlink:href="#DejaVuSans-6f" x="991.755859"/>
       <use xlink:href="#DejaVuSans-75" x="1052.9375"/>
       <use xlink:href="#DejaVuSans-6e" x="1116.316406"/>
       <use xlink:href="#DejaVuSans-64" x="1179.695312"/>
       <use xlink:href="#DejaVuSans-20" x="1243.171875"/>
       <use xlink:href="#DejaVuSans-62" x="1274.958984"/>
       <use xlink:href="#DejaVuSans-69" x="1338.435547"/>
       <use xlink:href="#DejaVuSans-6e" x="1366.21875"/>
       <use xlink:href="#DejaVuSans-64" x="1429.597656"/>
       <use xlink:href="#DejaVuSans-69" x="1493.074219"/>
       <use xlink:href="#DejaVuSans-6e" x="1520.857422"/>
       <use xlink:href="#DejaVuSans-67" x="1584.236328"/>
      </g>
     </g>
    </g>
    <g id="ytick_6">
     <g id="line2d_9">
      <g>
       <use xlink:href="#md57e5fdec7" x="0" y="259.854545" style="stroke: #000000; stroke-width: 3"/>
      </g>
     </g>
     <g id="text_10">
      <!-- transcription factor binding -->
      <g transform="translate(-286.553125 267.452983)scale(0.2 -0.2)">
       <defs>
        <path id="DejaVuSans-73" d="M 2834 3397 
L 2834 2853 
Q 2591 2978 2328 3040 
Q 2066 3103 1784 3103 
Q 1356 3103 1142 2972 
Q 928 2841 928 2578 
Q 928 2378 1081 2264 
Q 1234 2150 1697 2047 
L 1894 2003 
Q 2506 1872 2764 1633 
Q 3022 1394 3022 966 
Q 3022 478 2636 193 
Q 2250 -91 1575 -91 
Q 1294 -91 989 -36 
Q 684 19 347 128 
L 347 722 
Q 666 556 975 473 
Q 1284 391 1588 391 
Q 1994 391 2212 530 
Q 2431 669 2431 922 
Q 2431 1156 2273 1281 
Q 2116 1406 1581 1522 
L 1381 1569 
Q 847 1681 609 1914 
Q 372 2147 372 2553 
Q 372 3047 722 3315 
Q 1072 3584 1716 3584 
Q 2034 3584 2315 3537 
Q 2597 3491 2834 3397 
z
" transform="scale(0.015625)"/>
        <path id="DejaVuSans-66" d="M 2375 4863 
L 2375 4384 
L 1825 4384 
Q 1516 4384 1395 4259 
Q 1275 4134 1275 3809 
L 1275 3500 
L 2222 3500 
L 2222 3053 
L 1275 3053 
L 1275 0 
L 697 0 
L 697 3053 
L 147 3053 
L 147 3500 
L 697 3500 
L 697 3744 
Q 697 4328 969 4595 
Q 1241 4863 1831 4863 
L 2375 4863 
z
" transform="scale(0.015625)"/>
       </defs>
       <use xlink:href="#DejaVuSans-74"/>
       <use xlink:href="#DejaVuSans-72" x="39.208984"/>
       <use xlink:href="#DejaVuSans-61" x="80.322266"/>
       <use xlink:href="#DejaVuSans-6e" x="141.601562"/>
       <use xlink:href="#DejaVuSans-73" x="204.980469"/>
       <use xlink:href="#DejaVuSans-63" x="257.080078"/>
       <use xlink:href="#DejaVuSans-72" x="312.060547"/>
       <use xlink:href="#DejaVuSans-69" x="353.173828"/>
       <use xlink:href="#DejaVuSans-70" x="380.957031"/>
       <use xlink:href="#DejaVuSans-74" x="444.433594"/>
       <use xlink:href="#DejaVuSans-69" x="483.642578"/>
       <use xlink:href="#DejaVuSans-6f" x="511.425781"/>
       <use xlink:href="#DejaVuSans-6e" x="572.607422"/>
       <use xlink:href="#DejaVuSans-20" x="635.986328"/>
       <use xlink:href="#DejaVuSans-66" x="667.773438"/>
       <use xlink:href="#DejaVuSans-61" x="702.978516"/>
       <use xlink:href="#DejaVuSans-63" x="764.257812"/>
       <use xlink:href="#DejaVuSans-74" x="819.238281"/>
       <use xlink:href="#DejaVuSans-6f" x="858.447266"/>
       <use xlink:href="#DejaVuSans-72" x="919.628906"/>
       <use xlink:href="#DejaVuSans-20" x="960.742188"/>
       <use xlink:href="#DejaVuSans-62" x="992.529297"/>
       <use xlink:href="#DejaVuSans-69" x="1056.005859"/>
       <use xlink:href="#DejaVuSans-6e" x="1083.789062"/>
       <use xlink:href="#DejaVuSans-64" x="1147.167969"/>
       <use xlink:href="#DejaVuSans-69" x="1210.644531"/>
       <use xlink:href="#DejaVuSans-6e" x="1238.427734"/>
       <use xlink:href="#DejaVuSans-67" x="1301.806641"/>
      </g>
     </g>
    </g>
    <g id="ytick_7">
     <g id="line2d_10">
      <g>
       <use xlink:href="#md57e5fdec7" x="0" y="289.309091" style="stroke: #000000; stroke-width: 3"/>
      </g>
     </g>
     <g id="text_11">
      <!-- voltage-gated channel activity -->
      <g transform="translate(-318.81875 296.907528)scale(0.2 -0.2)">
       <defs>
        <path id="DejaVuSans-76" d="M 191 3500 
L 800 3500 
L 1894 563 
L 2988 3500 
L 3597 3500 
L 2284 0 
L 1503 0 
L 191 3500 
z
" transform="scale(0.015625)"/>
       </defs>
       <use xlink:href="#DejaVuSans-76"/>
       <use xlink:href="#DejaVuSans-6f" x="59.179688"/>
       <use xlink:href="#DejaVuSans-6c" x="120.361328"/>
       <use xlink:href="#DejaVuSans-74" x="148.144531"/>
       <use xlink:href="#DejaVuSans-61" x="187.353516"/>
       <use xlink:href="#DejaVuSans-67" x="248.632812"/>
       <use xlink:href="#DejaVuSans-65" x="312.109375"/>
       <use xlink:href="#DejaVuSans-2d" x="373.632812"/>
       <use xlink:href="#DejaVuSans-67" x="409.716797"/>
       <use xlink:href="#DejaVuSans-61" x="473.193359"/>
       <use xlink:href="#DejaVuSans-74" x="534.472656"/>
       <use xlink:href="#DejaVuSans-65" x="573.681641"/>
       <use xlink:href="#DejaVuSans-64" x="635.205078"/>
       <use xlink:href="#DejaVuSans-20" x="698.681641"/>
       <use xlink:href="#DejaVuSans-63" x="730.46875"/>
       <use xlink:href="#DejaVuSans-68" x="785.449219"/>
       <use xlink:href="#DejaVuSans-61" x="848.828125"/>
       <use xlink:href="#DejaVuSans-6e" x="910.107422"/>
       <use xlink:href="#DejaVuSans-6e" x="973.486328"/>
       <use xlink:href="#DejaVuSans-65" x="1036.865234"/>
       <use xlink:href="#DejaVuSans-6c" x="1098.388672"/>
       <use xlink:href="#DejaVuSans-20" x="1126.171875"/>
       <use xlink:href="#DejaVuSans-61" x="1157.958984"/>
       <use xlink:href="#DejaVuSans-63" x="1219.238281"/>
       <use xlink:href="#DejaVuSans-74" x="1274.21875"/>
       <use xlink:href="#DejaVuSans-69" x="1313.427734"/>
       <use xlink:href="#DejaVuSans-76" x="1341.210938"/>
       <use xlink:href="#DejaVuSans-69" x="1400.390625"/>
       <use xlink:href="#DejaVuSans-74" x="1428.173828"/>
       <use xlink:href="#DejaVuSans-79" x="1467.382812"/>
      </g>
     </g>
    </g>
    <g id="ytick_8">
     <g id="line2d_11">
      <g>
       <use xlink:href="#md57e5fdec7" x="0" y="318.763636" style="stroke: #000000; stroke-width: 3"/>
      </g>
     </g>
     <g id="text_12">
      <!-- monoatomic cation channel activity -->
      <g transform="translate(-371.99375 326.362074)scale(0.2 -0.2)">
       <use xlink:href="#DejaVuSans-6d"/>
       <use xlink:href="#DejaVuSans-6f" x="97.412109"/>
       <use xlink:href="#DejaVuSans-6e" x="158.59375"/>
       <use xlink:href="#DejaVuSans-6f" x="221.972656"/>
       <use xlink:href="#DejaVuSans-61" x="283.154297"/>
       <use xlink:href="#DejaVuSans-74" x="344.433594"/>
       <use xlink:href="#DejaVuSans-6f" x="383.642578"/>
       <use xlink:href="#DejaVuSans-6d" x="444.824219"/>
       <use xlink:href="#DejaVuSans-69" x="542.236328"/>
       <use xlink:href="#DejaVuSans-63" x="570.019531"/>
       <use xlink:href="#DejaVuSans-20" x="625"/>
       <use xlink:href="#DejaVuSans-63" x="656.787109"/>
       <use xlink:href="#DejaVuSans-61" x="711.767578"/>
       <use xlink:href="#DejaVuSans-74" x="773.046875"/>
       <use xlink:href="#DejaVuSans-69" x="812.255859"/>
       <use xlink:href="#DejaVuSans-6f" x="840.039062"/>
       <use xlink:href="#DejaVuSans-6e" x="901.220703"/>
       <use xlink:href="#DejaVuSans-20" x="964.599609"/>
       <use xlink:href="#DejaVuSans-63" x="996.386719"/>
       <use xlink:href="#DejaVuSans-68" x="1051.367188"/>
       <use xlink:href="#DejaVuSans-61" x="1114.746094"/>
       <use xlink:href="#DejaVuSans-6e" x="1176.025391"/>
       <use xlink:href="#DejaVuSans-6e" x="1239.404297"/>
       <use xlink:href="#DejaVuSans-65" x="1302.783203"/>
       <use xlink:href="#DejaVuSans-6c" x="1364.306641"/>
       <use xlink:href="#DejaVuSans-20" x="1392.089844"/>
       <use xlink:href="#DejaVuSans-61" x="1423.876953"/>
       <use xlink:href="#DejaVuSans-63" x="1485.15625"/>
       <use xlink:href="#DejaVuSans-74" x="1540.136719"/>
       <use xlink:href="#DejaVuSans-69" x="1579.345703"/>
       <use xlink:href="#DejaVuSans-76" x="1607.128906"/>
       <use xlink:href="#DejaVuSans-69" x="1666.308594"/>
       <use xlink:href="#DejaVuSans-74" x="1694.091797"/>
       <use xlink:href="#DejaVuSans-79" x="1733.300781"/>
      </g>
     </g>
    </g>
    <g id="ytick_9">
     <g id="line2d_12">
      <g>
       <use xlink:href="#md57e5fdec7" x="0" y="348.218182" style="stroke: #000000; stroke-width: 3"/>
      </g>
     </g>
     <g id="text_13">
      <!-- calcium channel activity -->
      <g transform="translate(-256.59375 355.816619)scale(0.2 -0.2)">
       <use xlink:href="#DejaVuSans-63"/>
       <use xlink:href="#DejaVuSans-61" x="54.980469"/>
       <use xlink:href="#DejaVuSans-6c" x="116.259766"/>
       <use xlink:href="#DejaVuSans-63" x="144.042969"/>
       <use xlink:href="#DejaVuSans-69" x="199.023438"/>
       <use xlink:href="#DejaVuSans-75" x="226.806641"/>
       <use xlink:href="#DejaVuSans-6d" x="290.185547"/>
       <use xlink:href="#DejaVuSans-20" x="387.597656"/>
       <use xlink:href="#DejaVuSans-63" x="419.384766"/>
       <use xlink:href="#DejaVuSans-68" x="474.365234"/>
       <use xlink:href="#DejaVuSans-61" x="537.744141"/>
       <use xlink:href="#DejaVuSans-6e" x="599.023438"/>
       <use xlink:href="#DejaVuSans-6e" x="662.402344"/>
       <use xlink:href="#DejaVuSans-65" x="725.78125"/>
       <use xlink:href="#DejaVuSans-6c" x="787.304688"/>
       <use xlink:href="#DejaVuSans-20" x="815.087891"/>
       <use xlink:href="#DejaVuSans-61" x="846.875"/>
       <use xlink:href="#DejaVuSans-63" x="908.154297"/>
       <use xlink:href="#DejaVuSans-74" x="963.134766"/>
       <use xlink:href="#DejaVuSans-69" x="1002.34375"/>
       <use xlink:href="#DejaVuSans-76" x="1030.126953"/>
       <use xlink:href="#DejaVuSans-69" x="1089.306641"/>
       <use xlink:href="#DejaVuSans-74" x="1117.089844"/>
       <use xlink:href="#DejaVuSans-79" x="1156.298828"/>
      </g>
     </g>
    </g>
    <g id="text_14">
     <!-- term_name -->
     <g transform="translate(-380.709375 287.509375)rotate(-90)scale(0.2 -0.2)">
      <defs>
       <path id="DejaVuSans-5f" d="M 3263 -1063 
L 3263 -1509 
L -63 -1509 
L -63 -1063 
L 3263 -1063 
z
" transform="scale(0.015625)"/>
      </defs>
      <use xlink:href="#DejaVuSans-74"/>
      <use xlink:href="#DejaVuSans-65" x="39.208984"/>
      <use xlink:href="#DejaVuSans-72" x="100.732422"/>
      <use xlink:href="#DejaVuSans-6d" x="140.095703"/>
      <use xlink:href="#DejaVuSans-5f" x="237.507812"/>
      <use xlink:href="#DejaVuSans-6e" x="287.507812"/>
      <use xlink:href="#DejaVuSans-61" x="350.886719"/>
      <use xlink:href="#DejaVuSans-6d" x="412.166016"/>
      <use xlink:href="#DejaVuSans-65" x="509.578125"/>
     </g>
    </g>
   </g>
   <g id="patch_3">
    <path d="M 0 360 
L 0 100.8 
" style="fill: none; stroke: #000000; stroke-width: 3; stroke-linejoin: miter; stroke-linecap: square"/>
   </g>
   <g id="patch_4">
    <path d="M 144 360 
L 144 100.8 
" style="fill: none; stroke: #000000; stroke-width: 3; stroke-linejoin: miter; stroke-linecap: square"/>
   </g>
   <g id="patch_5">
    <path d="M 0 360 
L 144 360 
" style="fill: none; stroke: #000000; stroke-width: 3; stroke-linejoin: miter; stroke-linecap: square"/>
   </g>
   <g id="patch_6">
    <path d="M 0 100.8 
L 144 100.8 
" style="fill: none; stroke: #000000; stroke-width: 3; stroke-linejoin: miter; stroke-linecap: square"/>
   </g>
   <g id="legend_1">
    <g id="patch_7">
     <path d="M 186.8 470.1875 
L 617.26875 470.1875 
Q 621.26875 470.1875 621.26875 466.1875 
L 621.26875 114.8 
Q 621.26875 110.8 617.26875 110.8 
L 186.8 110.8 
Q 182.8 110.8 182.8 114.8 
L 182.8 466.1875 
Q 182.8 470.1875 186.8 470.1875 
z
" style="fill: #ffffff; opacity: 0.8; stroke: #cccccc; stroke-linejoin: miter"/>
    </g>
    <g id="text_15">
     <!-- negative_log10_of_adjusted_p_value -->
     <g transform="translate(246.8 133.996875)scale(0.2 -0.2)">
      <defs>
       <path id="DejaVuSans-30" d="M 2034 4250 
Q 1547 4250 1301 3770 
Q 1056 3291 1056 2328 
Q 1056 1369 1301 889 
Q 1547 409 2034 409 
Q 2525 409 2770 889 
Q 3016 1369 3016 2328 
Q 3016 3291 2770 3770 
Q 2525 4250 2034 4250 
z
M 2034 4750 
Q 2819 4750 3233 4129 
Q 3647 3509 3647 2328 
Q 3647 1150 3233 529 
Q 2819 -91 2034 -91 
Q 1250 -91 836 529 
Q 422 1150 422 2328 
Q 422 3509 836 4129 
Q 1250 4750 2034 4750 
z
" transform="scale(0.015625)"/>
       <path id="DejaVuSans-6a" d="M 603 3500 
L 1178 3500 
L 1178 -63 
Q 1178 -731 923 -1031 
Q 669 -1331 103 -1331 
L -116 -1331 
L -116 -844 
L 38 -844 
Q 366 -844 484 -692 
Q 603 -541 603 -63 
L 603 3500 
z
M 603 4863 
L 1178 4863 
L 1178 4134 
L 603 4134 
L 603 4863 
z
" transform="scale(0.015625)"/>
      </defs>
      <use xlink:href="#DejaVuSans-6e"/>
      <use xlink:href="#DejaVuSans-65" x="63.378906"/>
      <use xlink:href="#DejaVuSans-67" x="124.902344"/>
      <use xlink:href="#DejaVuSans-61" x="188.378906"/>
      <use xlink:href="#DejaVuSans-74" x="249.658203"/>
      <use xlink:href="#DejaVuSans-69" x="288.867188"/>
      <use xlink:href="#DejaVuSans-76" x="316.650391"/>
      <use xlink:href="#DejaVuSans-65" x="375.830078"/>
      <use xlink:href="#DejaVuSans-5f" x="437.353516"/>
      <use xlink:href="#DejaVuSans-6c" x="487.353516"/>
      <use xlink:href="#DejaVuSans-6f" x="515.136719"/>
      <use xlink:href="#DejaVuSans-67" x="576.318359"/>
      <use xlink:href="#DejaVuSans-31" x="639.794922"/>
      <use xlink:href="#DejaVuSans-30" x="703.417969"/>
      <use xlink:href="#DejaVuSans-5f" x="767.041016"/>
      <use xlink:href="#DejaVuSans-6f" x="817.041016"/>
      <use xlink:href="#DejaVuSans-66" x="878.222656"/>
      <use xlink:href="#DejaVuSans-5f" x="913.427734"/>
      <use xlink:href="#DejaVuSans-61" x="963.427734"/>
      <use xlink:href="#DejaVuSans-64" x="1024.707031"/>
      <use xlink:href="#DejaVuSans-6a" x="1088.183594"/>
      <use xlink:href="#DejaVuSans-75" x="1115.966797"/>
      <use xlink:href="#DejaVuSans-73" x="1179.345703"/>
      <use xlink:href="#DejaVuSans-74" x="1231.445312"/>
      <use xlink:href="#DejaVuSans-65" x="1270.654297"/>
      <use xlink:href="#DejaVuSans-64" x="1332.177734"/>
      <use xlink:href="#DejaVuSans-5f" x="1395.654297"/>
      <use xlink:href="#DejaVuSans-70" x="1445.654297"/>
      <use xlink:href="#DejaVuSans-5f" x="1509.130859"/>
      <use xlink:href="#DejaVuSans-76" x="1559.130859"/>
      <use xlink:href="#DejaVuSans-61" x="1618.310547"/>
      <use xlink:href="#DejaVuSans-6c" x="1679.589844"/>
      <use xlink:href="#DejaVuSans-75" x="1707.373047"/>
      <use xlink:href="#DejaVuSans-65" x="1770.751953"/>
     </g>
    </g>
    <g id="PathCollection_12">
     <defs>
      <path id="m1a2613d747" d="M 0 3 
C 0.795609 3 1.55874 2.683901 2.12132 2.12132 
C 2.683901 1.55874 3 0.795609 3 0 
C 3 -0.795609 2.683901 -1.55874 2.12132 -2.12132 
C 1.55874 -2.683901 0.795609 -3 0 -3 
C -0.795609 -3 -1.55874 -2.683901 -2.12132 -2.12132 
C -2.683901 -1.55874 -3 -0.795609 -3 0 
C -3 0.795609 -2.683901 1.55874 -2.12132 2.12132 
C -1.55874 2.683901 -0.795609 3 0 3 
z
" style="stroke: #fee1d4"/>
     </defs>
     <g>
      <use xlink:href="#m1a2613d747" x="210.8" y="158.659375" style="fill: #fee1d4; stroke: #fee1d4"/>
     </g>
    </g>
    <g id="text_16">
     <!-- 1.6 -->
     <g transform="translate(246.8 163.909375)scale(0.2 -0.2)">
      <defs>
       <path id="DejaVuSans-2e" d="M 684 794 
L 1344 794 
L 1344 0 
L 684 0 
L 684 794 
z
" transform="scale(0.015625)"/>
       <path id="DejaVuSans-36" d="M 2113 2584 
Q 1688 2584 1439 2293 
Q 1191 2003 1191 1497 
Q 1191 994 1439 701 
Q 1688 409 2113 409 
Q 2538 409 2786 701 
Q 3034 994 3034 1497 
Q 3034 2003 2786 2293 
Q 2538 2584 2113 2584 
z
M 3366 4563 
L 3366 3988 
Q 3128 4100 2886 4159 
Q 2644 4219 2406 4219 
Q 1781 4219 1451 3797 
Q 1122 3375 1075 2522 
Q 1259 2794 1537 2939 
Q 1816 3084 2150 3084 
Q 2853 3084 3261 2657 
Q 3669 2231 3669 1497 
Q 3669 778 3244 343 
Q 2819 -91 2113 -91 
Q 1303 -91 875 529 
Q 447 1150 447 2328 
Q 447 3434 972 4092 
Q 1497 4750 2381 4750 
Q 2619 4750 2861 4703 
Q 3103 4656 3366 4563 
z
" transform="scale(0.015625)"/>
      </defs>
      <use xlink:href="#DejaVuSans-31"/>
      <use xlink:href="#DejaVuSans-2e" x="63.623047"/>
      <use xlink:href="#DejaVuSans-36" x="95.410156"/>
     </g>
    </g>
    <g id="PathCollection_13">
     <defs>
      <path id="m5bd1841c1f" d="M 0 3 
C 0.795609 3 1.55874 2.683901 2.12132 2.12132 
C 2.683901 1.55874 3 0.795609 3 0 
C 3 -0.795609 2.683901 -1.55874 2.12132 -2.12132 
C 1.55874 -2.683901 0.795609 -3 0 -3 
C -0.795609 -3 -1.55874 -2.683901 -2.12132 -2.12132 
C -2.683901 -1.55874 -3 -0.795609 -3 0 
C -3 0.795609 -2.683901 1.55874 -2.12132 2.12132 
C -1.55874 2.683901 -0.795609 3 0 3 
z
" style="stroke: #fcb296"/>
     </defs>
     <g>
      <use xlink:href="#m5bd1841c1f" x="210.8" y="188.015625" style="fill: #fcb296; stroke: #fcb296"/>
     </g>
    </g>
    <g id="text_17">
     <!-- 2.4 -->
     <g transform="translate(246.8 193.265625)scale(0.2 -0.2)">
      <defs>
       <path id="DejaVuSans-34" d="M 2419 4116 
L 825 1625 
L 2419 1625 
L 2419 4116 
z
M 2253 4666 
L 3047 4666 
L 3047 1625 
L 3713 1625 
L 3713 1100 
L 3047 1100 
L 3047 0 
L 2419 0 
L 2419 1100 
L 313 1100 
L 313 1709 
L 2253 4666 
z
" transform="scale(0.015625)"/>
      </defs>
      <use xlink:href="#DejaVuSans-32"/>
      <use xlink:href="#DejaVuSans-2e" x="63.623047"/>
      <use xlink:href="#DejaVuSans-34" x="95.410156"/>
     </g>
    </g>
    <g id="PathCollection_14">
     <defs>
      <path id="m0a548f3f6c" d="M 0 3 
C 0.795609 3 1.55874 2.683901 2.12132 2.12132 
C 2.683901 1.55874 3 0.795609 3 0 
C 3 -0.795609 2.683901 -1.55874 2.12132 -2.12132 
C 1.55874 -2.683901 0.795609 -3 0 -3 
C -0.795609 -3 -1.55874 -2.683901 -2.12132 -2.12132 
C -2.683901 -1.55874 -3 -0.795609 -3 0 
C -3 0.795609 -2.683901 1.55874 -2.12132 2.12132 
C -1.55874 2.683901 -0.795609 3 0 3 
z
" style="stroke: #fb7d5d"/>
     </defs>
     <g>
      <use xlink:href="#m0a548f3f6c" x="210.8" y="217.371875" style="fill: #fb7d5d; stroke: #fb7d5d"/>
     </g>
    </g>
    <g id="text_18">
     <!-- 3.2 -->
     <g transform="translate(246.8 222.621875)scale(0.2 -0.2)">
      <use xlink:href="#DejaVuSans-33"/>
      <use xlink:href="#DejaVuSans-2e" x="63.623047"/>
      <use xlink:href="#DejaVuSans-32" x="95.410156"/>
     </g>
    </g>
    <g id="PathCollection_15">
     <defs>
      <path id="mfb666ffcdd" d="M 0 3 
C 0.795609 3 1.55874 2.683901 2.12132 2.12132 
C 2.683901 1.55874 3 0.795609 3 0 
C 3 -0.795609 2.683901 -1.55874 2.12132 -2.12132 
C 1.55874 -2.683901 0.795609 -3 0 -3 
C -0.795609 -3 -1.55874 -2.683901 -2.12132 -2.12132 
C -2.683901 -1.55874 -3 -0.795609 -3 0 
C -3 0.795609 -2.683901 1.55874 -2.12132 2.12132 
C -1.55874 2.683901 -0.795609 3 0 3 
z
" style="stroke: #f14432"/>
     </defs>
     <g>
      <use xlink:href="#mfb666ffcdd" x="210.8" y="246.728125" style="fill: #f14432; stroke: #f14432"/>
     </g>
    </g>
    <g id="text_19">
     <!-- 4.0 -->
     <g transform="translate(246.8 251.978125)scale(0.2 -0.2)">
      <use xlink:href="#DejaVuSans-34"/>
      <use xlink:href="#DejaVuSans-2e" x="63.623047"/>
      <use xlink:href="#DejaVuSans-30" x="95.410156"/>
     </g>
    </g>
    <g id="PathCollection_16">
     <defs>
      <path id="mf5ace0508a" d="M 0 3 
C 0.795609 3 1.55874 2.683901 2.12132 2.12132 
C 2.683901 1.55874 3 0.795609 3 0 
C 3 -0.795609 2.683901 -1.55874 2.12132 -2.12132 
C 1.55874 -2.683901 0.795609 -3 0 -3 
C -0.795609 -3 -1.55874 -2.683901 -2.12132 -2.12132 
C -2.683901 -1.55874 -3 -0.795609 -3 0 
C -3 0.795609 -2.683901 1.55874 -2.12132 2.12132 
C -1.55874 2.683901 -0.795609 3 0 3 
z
" style="stroke: #c8171c"/>
     </defs>
     <g>
      <use xlink:href="#mf5ace0508a" x="210.8" y="276.084375" style="fill: #c8171c; stroke: #c8171c"/>
     </g>
    </g>
    <g id="text_20">
     <!-- 4.8 -->
     <g transform="translate(246.8 281.334375)scale(0.2 -0.2)">
      <defs>
       <path id="DejaVuSans-38" d="M 2034 2216 
Q 1584 2216 1326 1975 
Q 1069 1734 1069 1313 
Q 1069 891 1326 650 
Q 1584 409 2034 409 
Q 2484 409 2743 651 
Q 3003 894 3003 1313 
Q 3003 1734 2745 1975 
Q 2488 2216 2034 2216 
z
M 1403 2484 
Q 997 2584 770 2862 
Q 544 3141 544 3541 
Q 544 4100 942 4425 
Q 1341 4750 2034 4750 
Q 2731 4750 3128 4425 
Q 3525 4100 3525 3541 
Q 3525 3141 3298 2862 
Q 3072 2584 2669 2484 
Q 3125 2378 3379 2068 
Q 3634 1759 3634 1313 
Q 3634 634 3220 271 
Q 2806 -91 2034 -91 
Q 1263 -91 848 271 
Q 434 634 434 1313 
Q 434 1759 690 2068 
Q 947 2378 1403 2484 
z
M 1172 3481 
Q 1172 3119 1398 2916 
Q 1625 2713 2034 2713 
Q 2441 2713 2670 2916 
Q 2900 3119 2900 3481 
Q 2900 3844 2670 4047 
Q 2441 4250 2034 4250 
Q 1625 4250 1398 4047 
Q 1172 3844 1172 3481 
z
" transform="scale(0.015625)"/>
      </defs>
      <use xlink:href="#DejaVuSans-34"/>
      <use xlink:href="#DejaVuSans-2e" x="63.623047"/>
      <use xlink:href="#DejaVuSans-38" x="95.410156"/>
     </g>
    </g>
    <g id="text_21">
     <!-- term_size -->
     <g transform="translate(246.8 310.690625)scale(0.2 -0.2)">
      <defs>
       <path id="DejaVuSans-7a" d="M 353 3500 
L 3084 3500 
L 3084 2975 
L 922 459 
L 3084 459 
L 3084 0 
L 275 0 
L 275 525 
L 2438 3041 
L 353 3041 
L 353 3500 
z
" transform="scale(0.015625)"/>
      </defs>
      <use xlink:href="#DejaVuSans-74"/>
      <use xlink:href="#DejaVuSans-65" x="39.208984"/>
      <use xlink:href="#DejaVuSans-72" x="100.732422"/>
      <use xlink:href="#DejaVuSans-6d" x="140.095703"/>
      <use xlink:href="#DejaVuSans-5f" x="237.507812"/>
      <use xlink:href="#DejaVuSans-73" x="287.507812"/>
      <use xlink:href="#DejaVuSans-69" x="339.607422"/>
      <use xlink:href="#DejaVuSans-7a" x="367.390625"/>
      <use xlink:href="#DejaVuSans-65" x="419.880859"/>
     </g>
    </g>
    <g id="PathCollection_17">
     <defs>
      <path id="md7dfff7646" d="M 0 7.990513 
C 2.119109 7.990513 4.15171 7.148582 5.650146 5.650146 
C 7.148582 4.15171 7.990513 2.119109 7.990513 0 
C 7.990513 -2.119109 7.148582 -4.15171 5.650146 -5.650146 
C 4.15171 -7.148582 2.119109 -7.990513 0 -7.990513 
C -2.119109 -7.990513 -4.15171 -7.148582 -5.650146 -5.650146 
C -7.148582 -4.15171 -7.990513 -2.119109 -7.990513 0 
C -7.990513 2.119109 -7.148582 4.15171 -5.650146 5.650146 
C -4.15171 7.148582 -2.119109 7.990513 0 7.990513 
z
" style="stroke: #333333"/>
     </defs>
     <g>
      <use xlink:href="#md7dfff7646" x="210.8" y="335.353125" style="fill: #333333; stroke: #333333"/>
     </g>
    </g>
    <g id="text_22">
     <!-- 800 -->
     <g transform="translate(246.8 340.603125)scale(0.2 -0.2)">
      <use xlink:href="#DejaVuSans-38"/>
      <use xlink:href="#DejaVuSans-30" x="63.623047"/>
      <use xlink:href="#DejaVuSans-30" x="127.246094"/>
     </g>
    </g>
    <g id="PathCollection_18">
     <defs>
      <path id="m3a2c3d3f23" d="M 0 9.695551 
C 2.57129 9.695551 5.037613 8.673967 6.85579 6.85579 
C 8.673967 5.037613 9.695551 2.57129 9.695551 0 
C 9.695551 -2.57129 8.673967 -5.037613 6.85579 -6.85579 
C 5.037613 -8.673967 2.57129 -9.695551 0 -9.695551 
C -2.57129 -9.695551 -5.037613 -8.673967 -6.85579 -6.85579 
C -8.673967 -5.037613 -9.695551 -2.57129 -9.695551 0 
C -9.695551 2.57129 -8.673967 5.037613 -6.85579 6.85579 
C -5.037613 8.673967 -2.57129 9.695551 0 9.695551 
z
" style="stroke: #333333"/>
     </defs>
     <g>
      <use xlink:href="#m3a2c3d3f23" x="210.8" y="364.709375" style="fill: #333333; stroke: #333333"/>
     </g>
    </g>
    <g id="text_23">
     <!-- 1600 -->
     <g transform="translate(246.8 369.959375)scale(0.2 -0.2)">
      <use xlink:href="#DejaVuSans-31"/>
      <use xlink:href="#DejaVuSans-36" x="63.623047"/>
      <use xlink:href="#DejaVuSans-30" x="127.246094"/>
      <use xlink:href="#DejaVuSans-30" x="190.869141"/>
     </g>
    </g>
    <g id="PathCollection_19">
     <defs>
      <path id="mea98dc0a30" d="M 0 11.142671 
C 2.955071 11.142671 5.789508 9.968609 7.879059 7.879059 
C 9.968609 5.789508 11.142671 2.955071 11.142671 0 
C 11.142671 -2.955071 9.968609 -5.789508 7.879059 -7.879059 
C 5.789508 -9.968609 2.955071 -11.142671 0 -11.142671 
C -2.955071 -11.142671 -5.789508 -9.968609 -7.879059 -7.879059 
C -9.968609 -5.789508 -11.142671 -2.955071 -11.142671 0 
C -11.142671 2.955071 -9.968609 5.789508 -7.879059 7.879059 
C -5.789508 9.968609 -2.955071 11.142671 0 11.142671 
z
" style="stroke: #333333"/>
     </defs>
     <g>
      <use xlink:href="#mea98dc0a30" x="210.8" y="394.065625" style="fill: #333333; stroke: #333333"/>
     </g>
    </g>
    <g id="text_24">
     <!-- 2400 -->
     <g transform="translate(246.8 399.315625)scale(0.2 -0.2)">
      <use xlink:href="#DejaVuSans-32"/>
      <use xlink:href="#DejaVuSans-34" x="63.623047"/>
      <use xlink:href="#DejaVuSans-30" x="127.246094"/>
      <use xlink:href="#DejaVuSans-30" x="190.869141"/>
     </g>
    </g>
    <g id="PathCollection_20">
     <defs>
      <path id="m334e12c322" d="M 0 12.422341 
C 3.294443 12.422341 6.454398 11.113444 8.783921 8.783921 
C 11.113444 6.454398 12.422341 3.294443 12.422341 0 
C 12.422341 -3.294443 11.113444 -6.454398 8.783921 -8.783921 
C 6.454398 -11.113444 3.294443 -12.422341 0 -12.422341 
C -3.294443 -12.422341 -6.454398 -11.113444 -8.783921 -8.783921 
C -11.113444 -6.454398 -12.422341 -3.294443 -12.422341 0 
C -12.422341 3.294443 -11.113444 6.454398 -8.783921 8.783921 
C -6.454398 11.113444 -3.294443 12.422341 0 12.422341 
z
" style="stroke: #333333"/>
     </defs>
     <g>
      <use xlink:href="#m334e12c322" x="210.8" y="423.421875" style="fill: #333333; stroke: #333333"/>
     </g>
    </g>
    <g id="text_25">
     <!-- 3200 -->
     <g transform="translate(246.8 428.671875)scale(0.2 -0.2)">
      <use xlink:href="#DejaVuSans-33"/>
      <use xlink:href="#DejaVuSans-32" x="63.623047"/>
      <use xlink:href="#DejaVuSans-30" x="127.246094"/>
      <use xlink:href="#DejaVuSans-30" x="190.869141"/>
     </g>
    </g>
    <g id="PathCollection_21">
     <defs>
      <path id="m2322ddcfaf" d="M 0 13.581972 
C 3.601981 13.581972 7.056919 12.15089 9.603904 9.603904 
C 12.15089 7.056919 13.581972 3.601981 13.581972 0 
C 13.581972 -3.601981 12.15089 -7.056919 9.603904 -9.603904 
C 7.056919 -12.15089 3.601981 -13.581972 0 -13.581972 
C -3.601981 -13.581972 -7.056919 -12.15089 -9.603904 -9.603904 
C -12.15089 -7.056919 -13.581972 -3.601981 -13.581972 0 
C -13.581972 3.601981 -12.15089 7.056919 -9.603904 9.603904 
C -7.056919 12.15089 -3.601981 13.581972 0 13.581972 
z
" style="stroke: #333333"/>
     </defs>
     <g>
      <use xlink:href="#m2322ddcfaf" x="210.8" y="452.778125" style="fill: #333333; stroke: #333333"/>
     </g>
    </g>
    <g id="text_26">
     <!-- 4000 -->
     <g transform="translate(246.8 458.028125)scale(0.2 -0.2)">
      <use xlink:href="#DejaVuSans-34"/>
      <use xlink:href="#DejaVuSans-30" x="63.623047"/>
      <use xlink:href="#DejaVuSans-30" x="127.246094"/>
      <use xlink:href="#DejaVuSans-30" x="190.869141"/>
     </g>
    </g>
   </g>
  </g>
 </g>
 <defs>
  <clipPath id="p3f2f50df69">
   <rect x="0" y="100.8" width="144" height="259.2"/>
  </clipPath>
 </defs>
</svg>
