<?xml version="1.0" encoding="utf-8" standalone="no"?>
<!DOCTYPE svg PUBLIC "-//W3C//DTD SVG 1.1//EN"
  "http://www.w3.org/Graphics/SVG/1.1/DTD/svg11.dtd">
<svg xmlns:xlink="http://www.w3.org/1999/xlink" width="504pt" height="144pt" viewBox="0 0 504 144" xmlns="http://www.w3.org/2000/svg" version="1.1">
 <metadata>
  <rdf:RDF xmlns:dc="http://purl.org/dc/elements/1.1/" xmlns:cc="http://creativecommons.org/ns#" xmlns:rdf="http://www.w3.org/1999/02/22-rdf-syntax-ns#">
   <cc:Work>
    <dc:type rdf:resource="http://purl.org/dc/dcmitype/StillImage"/>
    <dc:date>2024-12-23T15:07:19.740011</dc:date>
    <dc:format>image/svg+xml</dc:format>
    <dc:creator>
     <cc:Agent>
      <dc:title>Matplotlib v3.5.2, https://matplotlib.org/</dc:title>
     </cc:Agent>
    </dc:creator>
   </cc:Work>
  </rdf:RDF>
 </metadata>
 <defs>
  <style type="text/css">*{stroke-linejoin: round; stroke-linecap: butt}</style>
 </defs>
 <g id="figure_1">
  <g id="patch_1">
   <path d="M 0 144 
L 504 144 
L 504 0 
L 0 0 
z
" style="fill: #ffffff"/>
  </g>
  <g id="axes_1">
   <g id="patch_2">
    <path d="M 63 128.16 
L 453.6 128.16 
L 453.6 17.28 
L 63 17.28 
z
" style="fill: #ffffff"/>
   </g>
   <g id="patch_3">
    <path d="M 63 23215.997349 
L 66.945455 23215.997349 
L 66.945455 23215.997349 
L 63 23215.997349 
z
" clip-path="url(#pafd38c440c)" style="fill: #800000; opacity: 0.7; stroke: #000000; stroke-width: 0.4; stroke-linejoin: miter"/>
   </g>
   <g id="patch_4">
    <path d="M 66.945455 23215.997349 
L 70.890909 23215.997349 
L 70.890909 23215.997349 
L 66.945455 23215.997349 
z
" clip-path="url(#pafd38c440c)" style="fill: #840000; opacity: 0.7; stroke: #000000; stroke-width: 0.4; stroke-linejoin: miter"/>
   </g>
   <g id="patch_5">
    <path d="M 70.890909 23215.997349 
L 74.836364 23215.997349 
L 74.836364 23215.997349 
L 70.890909 23215.997349 
z
" clip-path="url(#pafd38c440c)" style="fill: #8a0000; opacity: 0.7; stroke: #000000; stroke-width: 0.4; stroke-linejoin: miter"/>
   </g>
   <g id="patch_6">
    <path d="M 74.836364 23215.997349 
L 78.781818 23215.997349 
L 78.781818 23215.997349 
L 74.836364 23215.997349 
z
" clip-path="url(#pafd38c440c)" style="fill: #8e0000; opacity: 0.7; stroke: #000000; stroke-width: 0.4; stroke-linejoin: miter"/>
   </g>
   <g id="patch_7">
    <path d="M 78.781818 23215.997349 
L 82.727273 23215.997349 
L 82.727273 123.12 
L 78.781818 123.12 
z
" clip-path="url(#pafd38c440c)" style="fill: #930000; opacity: 0.7; stroke: #000000; stroke-width: 0.4; stroke-linejoin: miter"/>
   </g>
   <g id="patch_8">
    <path d="M 82.727273 23215.997349 
L 86.672727 23215.997349 
L 86.672727 116.168351 
L 82.727273 116.168351 
z
" clip-path="url(#pafd38c440c)" style="fill: #980000; opacity: 0.7; stroke: #000000; stroke-width: 0.4; stroke-linejoin: miter"/>
   </g>
   <g id="patch_9">
    <path d="M 86.672727 23215.997349 
L 90.618182 23215.997349 
L 90.618182 23215.997349 
L 86.672727 23215.997349 
z
" clip-path="url(#pafd38c440c)" style="fill: #9e0000; opacity: 0.7; stroke: #000000; stroke-width: 0.4; stroke-linejoin: miter"/>
   </g>
   <g id="patch_10">
    <path d="M 90.618182 23215.997349 
L 94.563636 23215.997349 
L 94.563636 123.12 
L 90.618182 123.12 
z
" clip-path="url(#pafd38c440c)" style="fill: #a30000; opacity: 0.7; stroke: #000000; stroke-width: 0.4; stroke-linejoin: miter"/>
   </g>
   <g id="patch_11">
    <path d="M 94.563636 23215.997349 
L 98.509091 23215.997349 
L 98.509091 23215.997349 
L 94.563636 23215.997349 
z
" clip-path="url(#pafd38c440c)" style="fill: #a80000; opacity: 0.7; stroke: #000000; stroke-width: 0.4; stroke-linejoin: miter"/>
   </g>
   <g id="patch_12">
    <path d="M 98.509091 23215.997349 
L 102.454545 23215.997349 
L 102.454545 116.168351 
L 98.509091 116.168351 
z
" clip-path="url(#pafd38c440c)" style="fill: #ae0000; opacity: 0.7; stroke: #000000; stroke-width: 0.4; stroke-linejoin: miter"/>
   </g>
   <g id="patch_13">
    <path d="M 102.454545 23215.997349 
L 106.4 23215.997349 
L 106.4 23215.997349 
L 102.454545 23215.997349 
z
" clip-path="url(#pafd38c440c)" style="fill: #b20000; opacity: 0.7; stroke: #000000; stroke-width: 0.4; stroke-linejoin: miter"/>
   </g>
   <g id="patch_14">
    <path d="M 106.4 23215.997349 
L 110.345455 23215.997349 
L 110.345455 23215.997349 
L 106.4 23215.997349 
z
" clip-path="url(#pafd38c440c)" style="fill: #b80000; opacity: 0.7; stroke: #000000; stroke-width: 0.4; stroke-linejoin: miter"/>
   </g>
   <g id="patch_15">
    <path d="M 110.345455 23215.997349 
L 114.290909 23215.997349 
L 114.290909 105.150249 
L 110.345455 105.150249 
z
" clip-path="url(#pafd38c440c)" style="fill: #be0000; opacity: 0.7; stroke: #000000; stroke-width: 0.4; stroke-linejoin: miter"/>
   </g>
   <g id="patch_16">
    <path d="M 114.290909 23215.997349 
L 118.236364 23215.997349 
L 118.236364 112.101897 
L 114.290909 112.101897 
z
" clip-path="url(#pafd38c440c)" style="fill: #c20000; opacity: 0.7; stroke: #000000; stroke-width: 0.4; stroke-linejoin: miter"/>
   </g>
   <g id="patch_17">
    <path d="M 118.236364 23215.997349 
L 122.181818 23215.997349 
L 122.181818 101.083795 
L 118.236364 101.083795 
z
" clip-path="url(#pafd38c440c)" style="fill: #c80000; opacity: 0.7; stroke: #000000; stroke-width: 0.4; stroke-linejoin: miter"/>
   </g>
   <g id="patch_18">
    <path d="M 122.181818 23215.997349 
L 126.127273 23215.997349 
L 126.127273 109.216702 
L 122.181818 109.216702 
z
" clip-path="url(#pafd38c440c)" style="fill: #cc0000; opacity: 0.7; stroke: #000000; stroke-width: 0.4; stroke-linejoin: miter"/>
   </g>
   <g id="patch_19">
    <path d="M 126.127273 23215.997349 
L 130.072727 23215.997349 
L 130.072727 95.960669 
L 126.127273 95.960669 
z
" clip-path="url(#pafd38c440c)" style="fill: #d20000; opacity: 0.7; stroke: #000000; stroke-width: 0.4; stroke-linejoin: miter"/>
   </g>
   <g id="patch_20">
    <path d="M 130.072727 23215.997349 
L 134.018182 23215.997349 
L 134.018182 105.150249 
L 130.072727 105.150249 
z
" clip-path="url(#pafd38c440c)" style="fill: #d60000; opacity: 0.7; stroke: #000000; stroke-width: 0.4; stroke-linejoin: miter"/>
   </g>
   <g id="patch_21">
    <path d="M 134.018182 23215.997349 
L 137.963636 23215.997349 
L 137.963636 94.705394 
L 134.018182 94.705394 
z
" clip-path="url(#pafd38c440c)" style="fill: #dc0000; opacity: 0.7; stroke: #000000; stroke-width: 0.4; stroke-linejoin: miter"/>
   </g>
   <g id="patch_22">
    <path d="M 137.963636 23215.997349 
L 141.909091 23215.997349 
L 141.909091 96.652606 
L 137.963636 96.652606 
z
" clip-path="url(#pafd38c440c)" style="fill: #e20000; opacity: 0.7; stroke: #000000; stroke-width: 0.4; stroke-linejoin: miter"/>
   </g>
   <g id="patch_23">
    <path d="M 141.909091 23215.997349 
L 145.854545 23215.997349 
L 145.854545 94.705394 
L 141.909091 94.705394 
z
" clip-path="url(#pafd38c440c)" style="fill: #e60000; opacity: 0.7; stroke: #000000; stroke-width: 0.4; stroke-linejoin: miter"/>
   </g>
   <g id="patch_24">
    <path d="M 145.854545 23215.997349 
L 149.8 23215.997349 
L 149.8 89.700957 
L 145.854545 89.700957 
z
" clip-path="url(#pafd38c440c)" style="fill: #ec0000; opacity: 0.7; stroke: #000000; stroke-width: 0.4; stroke-linejoin: miter"/>
   </g>
   <g id="patch_25">
    <path d="M 149.8 23215.997349 
L 153.745455 23215.997349 
L 153.745455 83.687291 
L 149.8 83.687291 
z
" clip-path="url(#pafd38c440c)" style="fill: #f00000; opacity: 0.7; stroke: #000000; stroke-width: 0.4; stroke-linejoin: miter"/>
   </g>
   <g id="patch_26">
    <path d="M 153.745455 23215.997349 
L 157.690909 23215.997349 
L 157.690909 80.802096 
L 153.745455 80.802096 
z
" clip-path="url(#pafd38c440c)" style="fill: #f60000; opacity: 0.7; stroke: #000000; stroke-width: 0.4; stroke-linejoin: miter"/>
   </g>
   <g id="patch_27">
    <path d="M 157.690909 23215.997349 
L 161.636364 23215.997349 
L 161.636364 79.04759 
L 157.690909 79.04759 
z
" clip-path="url(#pafd38c440c)" style="fill: #fc0000; opacity: 0.7; stroke: #000000; stroke-width: 0.4; stroke-linejoin: miter"/>
   </g>
   <g id="patch_28">
    <path d="M 161.636364 23215.997349 
L 165.581818 23215.997349 
L 165.581818 75.887607 
L 161.636364 75.887607 
z
" clip-path="url(#pafd38c440c)" style="fill: #ff0101; opacity: 0.7; stroke: #000000; stroke-width: 0.4; stroke-linejoin: miter"/>
   </g>
   <g id="patch_29">
    <path d="M 165.581818 23215.997349 
L 169.527273 23215.997349 
L 169.527273 72.734954 
L 165.581818 72.734954 
z
" clip-path="url(#pafd38c440c)" style="fill: #ff0d0d; opacity: 0.7; stroke: #000000; stroke-width: 0.4; stroke-linejoin: miter"/>
   </g>
   <g id="patch_30">
    <path d="M 169.527273 23215.997349 
L 173.472727 23215.997349 
L 173.472727 69.783994 
L 169.527273 69.783994 
z
" clip-path="url(#pafd38c440c)" style="fill: #ff1515; opacity: 0.7; stroke: #000000; stroke-width: 0.4; stroke-linejoin: miter"/>
   </g>
   <g id="patch_31">
    <path d="M 173.472727 23215.997349 
L 177.418182 23215.997349 
L 177.418182 67.865743 
L 173.472727 67.865743 
z
" clip-path="url(#pafd38c440c)" style="fill: #ff2121; opacity: 0.7; stroke: #000000; stroke-width: 0.4; stroke-linejoin: miter"/>
   </g>
   <g id="patch_32">
    <path d="M 177.418182 23215.997349 
L 181.363636 23215.997349 
L 181.363636 65.426821 
L 177.418182 65.426821 
z
" clip-path="url(#pafd38c440c)" style="fill: #ff2929; opacity: 0.7; stroke: #000000; stroke-width: 0.4; stroke-linejoin: miter"/>
   </g>
   <g id="patch_33">
    <path d="M 181.363636 23215.997349 
L 185.309091 23215.997349 
L 185.309091 61.651086 
L 181.363636 61.651086 
z
" clip-path="url(#pafd38c440c)" style="fill: #ff3535; opacity: 0.7; stroke: #000000; stroke-width: 0.4; stroke-linejoin: miter"/>
   </g>
   <g id="patch_34">
    <path d="M 185.309091 23215.997349 
L 189.254545 23215.997349 
L 189.254545 59.800737 
L 185.309091 59.800737 
z
" clip-path="url(#pafd38c440c)" style="fill: #ff4141; opacity: 0.7; stroke: #000000; stroke-width: 0.4; stroke-linejoin: miter"/>
   </g>
   <g id="patch_35">
    <path d="M 189.254545 23215.997349 
L 193.2 23215.997349 
L 193.2 57.108151 
L 189.254545 57.108151 
z
" clip-path="url(#pafd38c440c)" style="fill: #ff4949; opacity: 0.7; stroke: #000000; stroke-width: 0.4; stroke-linejoin: miter"/>
   </g>
   <g id="patch_36">
    <path d="M 193.2 23215.997349 
L 197.145455 23215.997349 
L 197.145455 54.085002 
L 193.2 54.085002 
z
" clip-path="url(#pafd38c440c)" style="fill: #ff5555; opacity: 0.7; stroke: #000000; stroke-width: 0.4; stroke-linejoin: miter"/>
   </g>
   <g id="patch_37">
    <path d="M 197.145455 23215.997349 
L 201.090909 23215.997349 
L 201.090909 50.574886 
L 197.145455 50.574886 
z
" clip-path="url(#pafd38c440c)" style="fill: #ff5d5d; opacity: 0.7; stroke: #000000; stroke-width: 0.4; stroke-linejoin: miter"/>
   </g>
   <g id="patch_38">
    <path d="M 201.090909 23215.997349 
L 205.036364 23215.997349 
L 205.036364 48.886122 
L 201.090909 48.886122 
z
" clip-path="url(#pafd38c440c)" style="fill: #ff6969; opacity: 0.7; stroke: #000000; stroke-width: 0.4; stroke-linejoin: miter"/>
   </g>
   <g id="patch_39">
    <path d="M 205.036364 23215.997349 
L 208.981818 23215.997349 
L 208.981818 46.506018 
L 205.036364 46.506018 
z
" clip-path="url(#pafd38c440c)" style="fill: #ff7575; opacity: 0.7; stroke: #000000; stroke-width: 0.4; stroke-linejoin: miter"/>
   </g>
   <g id="patch_40">
    <path d="M 208.981818 23215.997349 
L 212.927273 23215.997349 
L 212.927273 43.92088 
L 208.981818 43.92088 
z
" clip-path="url(#pafd38c440c)" style="fill: #ff7d7d; opacity: 0.7; stroke: #000000; stroke-width: 0.4; stroke-linejoin: miter"/>
   </g>
   <g id="patch_41">
    <path d="M 212.927273 23215.997349 
L 216.872727 23215.997349 
L 216.872727 42.188546 
L 212.927273 42.188546 
z
" clip-path="url(#pafd38c440c)" style="fill: #ff8989; opacity: 0.7; stroke: #000000; stroke-width: 0.4; stroke-linejoin: miter"/>
   </g>
   <g id="patch_42">
    <path d="M 216.872727 23215.997349 
L 220.818182 23215.997349 
L 220.818182 39.583369 
L 216.872727 39.583369 
z
" clip-path="url(#pafd38c440c)" style="fill: #ff9191; opacity: 0.7; stroke: #000000; stroke-width: 0.4; stroke-linejoin: miter"/>
   </g>
   <g id="patch_43">
    <path d="M 220.818182 23215.997349 
L 224.763636 23215.997349 
L 224.763636 37.335762 
L 220.818182 37.335762 
z
" clip-path="url(#pafd38c440c)" style="fill: #ff9d9d; opacity: 0.7; stroke: #000000; stroke-width: 0.4; stroke-linejoin: miter"/>
   </g>
   <g id="patch_44">
    <path d="M 224.763636 23215.997349 
L 228.709091 23215.997349 
L 228.709091 35.20713 
L 224.763636 35.20713 
z
" clip-path="url(#pafd38c440c)" style="fill: #ffa9a9; opacity: 0.7; stroke: #000000; stroke-width: 0.4; stroke-linejoin: miter"/>
   </g>
   <g id="patch_45">
    <path d="M 228.709091 23215.997349 
L 232.654545 23215.997349 
L 232.654545 33.495571 
L 228.709091 33.495571 
z
" clip-path="url(#pafd38c440c)" style="fill: #ffb1b1; opacity: 0.7; stroke: #000000; stroke-width: 0.4; stroke-linejoin: miter"/>
   </g>
   <g id="patch_46">
    <path d="M 232.654545 23215.997349 
L 236.6 23215.997349 
L 236.6 32.463725 
L 232.654545 32.463725 
z
" clip-path="url(#pafd38c440c)" style="fill: #ffbdbd; opacity: 0.7; stroke: #000000; stroke-width: 0.4; stroke-linejoin: miter"/>
   </g>
   <g id="patch_47">
    <path d="M 236.6 23215.997349 
L 240.545455 23215.997349 
L 240.545455 31.299934 
L 236.6 31.299934 
z
" clip-path="url(#pafd38c440c)" style="fill: #ffc5c5; opacity: 0.7; stroke: #000000; stroke-width: 0.4; stroke-linejoin: miter"/>
   </g>
   <g id="patch_48">
    <path d="M 240.545455 23215.997349 
L 244.490909 23215.997349 
L 244.490909 29.318065 
L 240.545455 29.318065 
z
" clip-path="url(#pafd38c440c)" style="fill: #ffd1d1; opacity: 0.7; stroke: #000000; stroke-width: 0.4; stroke-linejoin: miter"/>
   </g>
   <g id="patch_49">
    <path d="M 244.490909 23215.997349 
L 248.436364 23215.997349 
L 248.436364 27.005453 
L 244.490909 27.005453 
z
" clip-path="url(#pafd38c440c)" style="fill: #ffd9d9; opacity: 0.7; stroke: #000000; stroke-width: 0.4; stroke-linejoin: miter"/>
   </g>
   <g id="patch_50">
    <path d="M 248.436364 23215.997349 
L 252.381818 23215.997349 
L 252.381818 24.523583 
L 248.436364 24.523583 
z
" clip-path="url(#pafd38c440c)" style="fill: #ffe5e5; opacity: 0.7; stroke: #000000; stroke-width: 0.4; stroke-linejoin: miter"/>
   </g>
   <g id="patch_51">
    <path d="M 252.381818 23215.997349 
L 256.327273 23215.997349 
L 256.327273 25.991615 
L 252.381818 25.991615 
z
" clip-path="url(#pafd38c440c)" style="fill: #fff1f1; opacity: 0.7; stroke: #000000; stroke-width: 0.4; stroke-linejoin: miter"/>
   </g>
   <g id="patch_52">
    <path d="M 256.327273 23215.997349 
L 260.272727 23215.997349 
L 260.272727 37.163173 
L 256.327273 37.163173 
z
" clip-path="url(#pafd38c440c)" style="fill: #fff9f9; opacity: 0.7; stroke: #000000; stroke-width: 0.4; stroke-linejoin: miter"/>
   </g>
   <g id="patch_53">
    <path d="M 260.272727 23215.997349 
L 264.218182 23215.997349 
L 264.218182 23.91183 
L 260.272727 23.91183 
z
" clip-path="url(#pafd38c440c)" style="fill: #f9f9ff; opacity: 0.7; stroke: #000000; stroke-width: 0.4; stroke-linejoin: miter"/>
   </g>
   <g id="patch_54">
    <path d="M 264.218182 23215.997349 
L 268.163636 23215.997349 
L 268.163636 22.32 
L 264.218182 22.32 
z
" clip-path="url(#pafd38c440c)" style="fill: #f1f1ff; opacity: 0.7; stroke: #000000; stroke-width: 0.4; stroke-linejoin: miter"/>
   </g>
   <g id="patch_55">
    <path d="M 268.163636 23215.997349 
L 272.109091 23215.997349 
L 272.109091 25.362077 
L 268.163636 25.362077 
z
" clip-path="url(#pafd38c440c)" style="fill: #e5e5ff; opacity: 0.7; stroke: #000000; stroke-width: 0.4; stroke-linejoin: miter"/>
   </g>
   <g id="patch_56">
    <path d="M 272.109091 23215.997349 
L 276.054545 23215.997349 
L 276.054545 29.536967 
L 272.109091 29.536967 
z
" clip-path="url(#pafd38c440c)" style="fill: #d9d9ff; opacity: 0.7; stroke: #000000; stroke-width: 0.4; stroke-linejoin: miter"/>
   </g>
   <g id="patch_57">
    <path d="M 276.054545 23215.997349 
L 280 23215.997349 
L 280 34.220157 
L 276.054545 34.220157 
z
" clip-path="url(#pafd38c440c)" style="fill: #d1d1ff; opacity: 0.7; stroke: #000000; stroke-width: 0.4; stroke-linejoin: miter"/>
   </g>
   <g id="patch_58">
    <path d="M 280 23215.997349 
L 283.945455 23215.997349 
L 283.945455 37.301006 
L 280 37.301006 
z
" clip-path="url(#pafd38c440c)" style="fill: #c5c5ff; opacity: 0.7; stroke: #000000; stroke-width: 0.4; stroke-linejoin: miter"/>
   </g>
   <g id="patch_59">
    <path d="M 283.945455 23215.997349 
L 287.890909 23215.997349 
L 287.890909 39.518237 
L 283.945455 39.518237 
z
" clip-path="url(#pafd38c440c)" style="fill: #bdbdff; opacity: 0.7; stroke: #000000; stroke-width: 0.4; stroke-linejoin: miter"/>
   </g>
   <g id="patch_60">
    <path d="M 287.890909 23215.997349 
L 291.836364 23215.997349 
L 291.836364 41.695638 
L 287.890909 41.695638 
z
" clip-path="url(#pafd38c440c)" style="fill: #b1b1ff; opacity: 0.7; stroke: #000000; stroke-width: 0.4; stroke-linejoin: miter"/>
   </g>
   <g id="patch_61">
    <path d="M 291.836364 23215.997349 
L 295.781818 23215.997349 
L 295.781818 44.162466 
L 291.836364 44.162466 
z
" clip-path="url(#pafd38c440c)" style="fill: #a9a9ff; opacity: 0.7; stroke: #000000; stroke-width: 0.4; stroke-linejoin: miter"/>
   </g>
   <g id="patch_62">
    <path d="M 295.781818 23215.997349 
L 299.727273 23215.997349 
L 299.727273 47.890828 
L 295.781818 47.890828 
z
" clip-path="url(#pafd38c440c)" style="fill: #9d9dff; opacity: 0.7; stroke: #000000; stroke-width: 0.4; stroke-linejoin: miter"/>
   </g>
   <g id="patch_63">
    <path d="M 299.727273 23215.997349 
L 303.672727 23215.997349 
L 303.672727 52.130539 
L 299.727273 52.130539 
z
" clip-path="url(#pafd38c440c)" style="fill: #9191ff; opacity: 0.7; stroke: #000000; stroke-width: 0.4; stroke-linejoin: miter"/>
   </g>
   <g id="patch_64">
    <path d="M 303.672727 23215.997349 
L 307.618182 23215.997349 
L 307.618182 53.73165 
L 303.672727 53.73165 
z
" clip-path="url(#pafd38c440c)" style="fill: #8989ff; opacity: 0.7; stroke: #000000; stroke-width: 0.4; stroke-linejoin: miter"/>
   </g>
   <g id="patch_65">
    <path d="M 307.618182 23215.997349 
L 311.563636 23215.997349 
L 311.563636 58.115555 
L 307.618182 58.115555 
z
" clip-path="url(#pafd38c440c)" style="fill: #7d7dff; opacity: 0.7; stroke: #000000; stroke-width: 0.4; stroke-linejoin: miter"/>
   </g>
   <g id="patch_66">
    <path d="M 311.563636 23215.997349 
L 315.509091 23215.997349 
L 315.509091 60.673384 
L 311.563636 60.673384 
z
" clip-path="url(#pafd38c440c)" style="fill: #7575ff; opacity: 0.7; stroke: #000000; stroke-width: 0.4; stroke-linejoin: miter"/>
   </g>
   <g id="patch_67">
    <path d="M 315.509091 23215.997349 
L 319.454545 23215.997349 
L 319.454545 64.032057 
L 315.509091 64.032057 
z
" clip-path="url(#pafd38c440c)" style="fill: #6969ff; opacity: 0.7; stroke: #000000; stroke-width: 0.4; stroke-linejoin: miter"/>
   </g>
   <g id="patch_68">
    <path d="M 319.454545 23215.997349 
L 323.4 23215.997349 
L 323.4 65.331757 
L 319.454545 65.331757 
z
" clip-path="url(#pafd38c440c)" style="fill: #5d5dff; opacity: 0.7; stroke: #000000; stroke-width: 0.4; stroke-linejoin: miter"/>
   </g>
   <g id="patch_69">
    <path d="M 323.4 23215.997349 
L 327.345455 23215.997349 
L 327.345455 69.637581 
L 323.4 69.637581 
z
" clip-path="url(#pafd38c440c)" style="fill: #5555ff; opacity: 0.7; stroke: #000000; stroke-width: 0.4; stroke-linejoin: miter"/>
   </g>
   <g id="patch_70">
    <path d="M 327.345455 23215.997349 
L 331.290909 23215.997349 
L 331.290909 72.538939 
L 327.345455 72.538939 
z
" clip-path="url(#pafd38c440c)" style="fill: #4949ff; opacity: 0.7; stroke: #000000; stroke-width: 0.4; stroke-linejoin: miter"/>
   </g>
   <g id="patch_71">
    <path d="M 331.290909 23215.997349 
L 335.236364 23215.997349 
L 335.236364 77.770489 
L 331.290909 77.770489 
z
" clip-path="url(#pafd38c440c)" style="fill: #4141ff; opacity: 0.7; stroke: #000000; stroke-width: 0.4; stroke-linejoin: miter"/>
   </g>
   <g id="patch_72">
    <path d="M 335.236364 23215.997349 
L 339.181818 23215.997349 
L 339.181818 77.239724 
L 335.236364 77.239724 
z
" clip-path="url(#pafd38c440c)" style="fill: #3535ff; opacity: 0.7; stroke: #000000; stroke-width: 0.4; stroke-linejoin: miter"/>
   </g>
   <g id="patch_73">
    <path d="M 339.181818 23215.997349 
L 343.127273 23215.997349 
L 343.127273 81.101495 
L 339.181818 81.101495 
z
" clip-path="url(#pafd38c440c)" style="fill: #2929ff; opacity: 0.7; stroke: #000000; stroke-width: 0.4; stroke-linejoin: miter"/>
   </g>
   <g id="patch_74">
    <path d="M 343.127273 23215.997349 
L 347.072727 23215.997349 
L 347.072727 85.167949 
L 343.127273 85.167949 
z
" clip-path="url(#pafd38c440c)" style="fill: #2121ff; opacity: 0.7; stroke: #000000; stroke-width: 0.4; stroke-linejoin: miter"/>
   </g>
   <g id="patch_75">
    <path d="M 347.072727 23215.997349 
L 351.018182 23215.997349 
L 351.018182 84.722137 
L 347.072727 84.722137 
z
" clip-path="url(#pafd38c440c)" style="fill: #1515ff; opacity: 0.7; stroke: #000000; stroke-width: 0.4; stroke-linejoin: miter"/>
   </g>
   <g id="patch_76">
    <path d="M 351.018182 23215.997349 
L 354.963636 23215.997349 
L 354.963636 91.673786 
L 351.018182 91.673786 
z
" clip-path="url(#pafd38c440c)" style="fill: #0d0dff; opacity: 0.7; stroke: #000000; stroke-width: 0.4; stroke-linejoin: miter"/>
   </g>
   <g id="patch_77">
    <path d="M 354.963636 23215.997349 
L 358.909091 23215.997349 
L 358.909091 93.5899 
L 354.963636 93.5899 
z
" clip-path="url(#pafd38c440c)" style="fill: #0101ff; opacity: 0.7; stroke: #000000; stroke-width: 0.4; stroke-linejoin: miter"/>
   </g>
   <g id="patch_78">
    <path d="M 358.909091 23215.997349 
L 362.854545 23215.997349 
L 362.854545 95.960669 
L 358.909091 95.960669 
z
" clip-path="url(#pafd38c440c)" style="fill: #0000fa; opacity: 0.7; stroke: #000000; stroke-width: 0.4; stroke-linejoin: miter"/>
   </g>
   <g id="patch_79">
    <path d="M 362.854545 23215.997349 
L 366.8 23215.997349 
L 366.8 99.071246 
L 362.854545 99.071246 
z
" clip-path="url(#pafd38c440c)" style="fill: #0000f2; opacity: 0.7; stroke: #000000; stroke-width: 0.4; stroke-linejoin: miter"/>
   </g>
   <g id="patch_80">
    <path d="M 366.8 23215.997349 
L 370.745455 23215.997349 
L 370.745455 100.027123 
L 366.8 100.027123 
z
" clip-path="url(#pafd38c440c)" style="fill: #0000e9; opacity: 0.7; stroke: #000000; stroke-width: 0.4; stroke-linejoin: miter"/>
   </g>
   <g id="patch_81">
    <path d="M 370.745455 23215.997349 
L 374.690909 23215.997349 
L 374.690909 103.604255 
L 370.745455 103.604255 
z
" clip-path="url(#pafd38c440c)" style="fill: #0000e4; opacity: 0.7; stroke: #000000; stroke-width: 0.4; stroke-linejoin: miter"/>
   </g>
   <g id="patch_82">
    <path d="M 374.690909 23215.997349 
L 378.636364 23215.997349 
L 378.636364 101.083795 
L 374.690909 101.083795 
z
" clip-path="url(#pafd38c440c)" style="fill: #0000db; opacity: 0.7; stroke: #000000; stroke-width: 0.4; stroke-linejoin: miter"/>
   </g>
   <g id="patch_83">
    <path d="M 378.636364 23215.997349 
L 382.581818 23215.997349 
L 382.581818 109.216702 
L 378.636364 109.216702 
z
" clip-path="url(#pafd38c440c)" style="fill: #0000d6; opacity: 0.7; stroke: #000000; stroke-width: 0.4; stroke-linejoin: miter"/>
   </g>
   <g id="patch_84">
    <path d="M 382.581818 23215.997349 
L 386.527273 23215.997349 
L 386.527273 109.216702 
L 382.581818 109.216702 
z
" clip-path="url(#pafd38c440c)" style="fill: #0000cd; opacity: 0.7; stroke: #000000; stroke-width: 0.4; stroke-linejoin: miter"/>
   </g>
   <g id="patch_85">
    <path d="M 386.527273 23215.997349 
L 390.472727 23215.997349 
L 390.472727 123.12 
L 386.527273 123.12 
z
" clip-path="url(#pafd38c440c)" style="fill: #0000c5; opacity: 0.7; stroke: #000000; stroke-width: 0.4; stroke-linejoin: miter"/>
   </g>
   <g id="patch_86">
    <path d="M 390.472727 23215.997349 
L 394.418182 23215.997349 
L 394.418182 112.101897 
L 390.472727 112.101897 
z
" clip-path="url(#pafd38c440c)" style="fill: #0000bf; opacity: 0.7; stroke: #000000; stroke-width: 0.4; stroke-linejoin: miter"/>
   </g>
   <g id="patch_87">
    <path d="M 394.418182 23215.997349 
L 398.363636 23215.997349 
L 398.363636 116.168351 
L 394.418182 116.168351 
z
" clip-path="url(#pafd38c440c)" style="fill: #0000b7; opacity: 0.7; stroke: #000000; stroke-width: 0.4; stroke-linejoin: miter"/>
   </g>
   <g id="patch_88">
    <path d="M 398.363636 23215.997349 
L 402.309091 23215.997349 
L 402.309091 116.168351 
L 398.363636 116.168351 
z
" clip-path="url(#pafd38c440c)" style="fill: #0000b1; opacity: 0.7; stroke: #000000; stroke-width: 0.4; stroke-linejoin: miter"/>
   </g>
   <g id="patch_89">
    <path d="M 402.309091 23215.997349 
L 406.254545 23215.997349 
L 406.254545 116.168351 
L 402.309091 116.168351 
z
" clip-path="url(#pafd38c440c)" style="fill: #0000a9; opacity: 0.7; stroke: #000000; stroke-width: 0.4; stroke-linejoin: miter"/>
   </g>
   <g id="patch_90">
    <path d="M 406.254545 23215.997349 
L 410.2 23215.997349 
L 410.2 23215.997349 
L 406.254545 23215.997349 
z
" clip-path="url(#pafd38c440c)" style="fill: #0000a3; opacity: 0.7; stroke: #000000; stroke-width: 0.4; stroke-linejoin: miter"/>
   </g>
   <g id="patch_91">
    <path d="M 410.2 23215.997349 
L 414.145455 23215.997349 
L 414.145455 116.168351 
L 410.2 116.168351 
z
" clip-path="url(#pafd38c440c)" style="fill: #00009b; opacity: 0.7; stroke: #000000; stroke-width: 0.4; stroke-linejoin: miter"/>
   </g>
   <g id="patch_92">
    <path d="M 414.145455 23215.997349 
L 418.090909 23215.997349 
L 418.090909 23215.997349 
L 414.145455 23215.997349 
z
" clip-path="url(#pafd38c440c)" style="fill: #000093; opacity: 0.7; stroke: #000000; stroke-width: 0.4; stroke-linejoin: miter"/>
   </g>
   <g id="patch_93">
    <path d="M 418.090909 23215.997349 
L 422.036364 23215.997349 
L 422.036364 123.12 
L 418.090909 123.12 
z
" clip-path="url(#pafd38c440c)" style="fill: #00008d; opacity: 0.7; stroke: #000000; stroke-width: 0.4; stroke-linejoin: miter"/>
   </g>
   <g id="patch_94">
    <path d="M 422.036364 23215.997349 
L 425.981818 23215.997349 
L 425.981818 23215.997349 
L 422.036364 23215.997349 
z
" clip-path="url(#pafd38c440c)" style="fill: #000084; opacity: 0.7; stroke: #000000; stroke-width: 0.4; stroke-linejoin: miter"/>
   </g>
   <g id="patch_95">
    <path d="M 425.981818 23215.997349 
L 429.927273 23215.997349 
L 429.927273 23215.997349 
L 425.981818 23215.997349 
z
" clip-path="url(#pafd38c440c)" style="fill: #00007f; opacity: 0.7; stroke: #000000; stroke-width: 0.4; stroke-linejoin: miter"/>
   </g>
   <g id="patch_96">
    <path d="M 429.927273 23215.997349 
L 433.872727 23215.997349 
L 433.872727 116.168351 
L 429.927273 116.168351 
z
" clip-path="url(#pafd38c440c)" style="fill: #000077; opacity: 0.7; stroke: #000000; stroke-width: 0.4; stroke-linejoin: miter"/>
   </g>
   <g id="patch_97">
    <path d="M 433.872727 23215.997349 
L 437.818182 23215.997349 
L 437.818182 123.12 
L 433.872727 123.12 
z
" clip-path="url(#pafd38c440c)" style="fill: #00006e; opacity: 0.7; stroke: #000000; stroke-width: 0.4; stroke-linejoin: miter"/>
   </g>
   <g id="patch_98">
    <path d="M 437.818182 23215.997349 
L 441.763636 23215.997349 
L 441.763636 23215.997349 
L 437.818182 23215.997349 
z
" clip-path="url(#pafd38c440c)" style="fill: #000068; opacity: 0.7; stroke: #000000; stroke-width: 0.4; stroke-linejoin: miter"/>
   </g>
   <g id="patch_99">
    <path d="M 441.763636 23215.997349 
L 445.709091 23215.997349 
L 445.709091 23215.997349 
L 441.763636 23215.997349 
z
" clip-path="url(#pafd38c440c)" style="fill: #000060; opacity: 0.7; stroke: #000000; stroke-width: 0.4; stroke-linejoin: miter"/>
   </g>
   <g id="patch_100">
    <path d="M 445.709091 23215.997349 
L 449.654545 23215.997349 
L 449.654545 123.12 
L 445.709091 123.12 
z
" clip-path="url(#pafd38c440c)" style="fill: #00005b; opacity: 0.7; stroke: #000000; stroke-width: 0.4; stroke-linejoin: miter"/>
   </g>
   <g id="patch_101">
    <path d="M 449.654545 23215.997349 
L 453.6 23215.997349 
L 453.6 23215.997349 
L 449.654545 23215.997349 
z
" clip-path="url(#pafd38c440c)" style="fill: #000052; opacity: 0.7; stroke: #000000; stroke-width: 0.4; stroke-linejoin: miter"/>
   </g>
   <g id="matplotlib.axis_1">
    <g id="xtick_1">
     <g id="line2d_1">
      <path d="M 63 128.16 
L 63 17.28 
" clip-path="url(#pafd38c440c)" style="fill: none; stroke: #b0b0b0; stroke-width: 0.2; stroke-linecap: square"/>
     </g>
     <g id="line2d_2">
      <defs>
       <path id="m206d65f342" d="M 0 0 
L 0 3.5 
" style="stroke: #000000; stroke-width: 0.8"/>
      </defs>
      <g>
       <use xlink:href="#m206d65f342" x="63" y="128.16" style="stroke: #000000; stroke-width: 0.8"/>
      </g>
     </g>
     <g id="text_1">
      <!-- −4 -->
      <g transform="translate(49.732031 148.837187)scale(0.18 -0.18)">
       <defs>
        <path id="DejaVuSans-2212" d="M 678 2272 
L 4684 2272 
L 4684 1741 
L 678 1741 
L 678 2272 
z
" transform="scale(0.015625)"/>
        <path id="DejaVuSans-34" d="M 2419 4116 
L 825 1625 
L 2419 1625 
L 2419 4116 
z
M 2253 4666 
L 3047 4666 
L 3047 1625 
L 3713 1625 
L 3713 1100 
L 3047 1100 
L 3047 0 
L 2419 0 
L 2419 1100 
L 313 1100 
L 313 1709 
L 2253 4666 
z
" transform="scale(0.015625)"/>
       </defs>
       <use xlink:href="#DejaVuSans-2212"/>
       <use xlink:href="#DejaVuSans-34" x="83.789062"/>
      </g>
     </g>
    </g>
    <g id="xtick_2">
     <g id="line2d_3">
      <path d="M 111.825 128.16 
L 111.825 17.28 
" clip-path="url(#pafd38c440c)" style="fill: none; stroke: #b0b0b0; stroke-width: 0.2; stroke-linecap: square"/>
     </g>
     <g id="line2d_4">
      <g>
       <use xlink:href="#m206d65f342" x="111.825" y="128.16" style="stroke: #000000; stroke-width: 0.8"/>
      </g>
     </g>
     <g id="text_2">
      <!-- −3 -->
      <g transform="translate(98.557031 148.837187)scale(0.18 -0.18)">
       <defs>
        <path id="DejaVuSans-33" d="M 2597 2516 
Q 3050 2419 3304 2112 
Q 3559 1806 3559 1356 
Q 3559 666 3084 287 
Q 2609 -91 1734 -91 
Q 1441 -91 1130 -33 
Q 819 25 488 141 
L 488 750 
Q 750 597 1062 519 
Q 1375 441 1716 441 
Q 2309 441 2620 675 
Q 2931 909 2931 1356 
Q 2931 1769 2642 2001 
Q 2353 2234 1838 2234 
L 1294 2234 
L 1294 2753 
L 1863 2753 
Q 2328 2753 2575 2939 
Q 2822 3125 2822 3475 
Q 2822 3834 2567 4026 
Q 2313 4219 1838 4219 
Q 1578 4219 1281 4162 
Q 984 4106 628 3988 
L 628 4550 
Q 988 4650 1302 4700 
Q 1616 4750 1894 4750 
Q 2613 4750 3031 4423 
Q 3450 4097 3450 3541 
Q 3450 3153 3228 2886 
Q 3006 2619 2597 2516 
z
" transform="scale(0.015625)"/>
       </defs>
       <use xlink:href="#DejaVuSans-2212"/>
       <use xlink:href="#DejaVuSans-33" x="83.789062"/>
      </g>
     </g>
    </g>
    <g id="xtick_3">
     <g id="line2d_5">
      <path d="M 160.65 128.16 
L 160.65 17.28 
" clip-path="url(#pafd38c440c)" style="fill: none; stroke: #b0b0b0; stroke-width: 0.2; stroke-linecap: square"/>
     </g>
     <g id="line2d_6">
      <g>
       <use xlink:href="#m206d65f342" x="160.65" y="128.16" style="stroke: #000000; stroke-width: 0.8"/>
      </g>
     </g>
     <g id="text_3">
      <!-- −2 -->
      <g transform="translate(147.382031 148.837187)scale(0.18 -0.18)">
       <defs>
        <path id="DejaVuSans-32" d="M 1228 531 
L 3431 531 
L 3431 0 
L 469 0 
L 469 531 
Q 828 903 1448 1529 
Q 2069 2156 2228 2338 
Q 2531 2678 2651 2914 
Q 2772 3150 2772 3378 
Q 2772 3750 2511 3984 
Q 2250 4219 1831 4219 
Q 1534 4219 1204 4116 
Q 875 4013 500 3803 
L 500 4441 
Q 881 4594 1212 4672 
Q 1544 4750 1819 4750 
Q 2544 4750 2975 4387 
Q 3406 4025 3406 3419 
Q 3406 3131 3298 2873 
Q 3191 2616 2906 2266 
Q 2828 2175 2409 1742 
Q 1991 1309 1228 531 
z
" transform="scale(0.015625)"/>
       </defs>
       <use xlink:href="#DejaVuSans-2212"/>
       <use xlink:href="#DejaVuSans-32" x="83.789062"/>
      </g>
     </g>
    </g>
    <g id="xtick_4">
     <g id="line2d_7">
      <path d="M 209.475 128.16 
L 209.475 17.28 
" clip-path="url(#pafd38c440c)" style="fill: none; stroke: #b0b0b0; stroke-width: 0.2; stroke-linecap: square"/>
     </g>
     <g id="line2d_8">
      <g>
       <use xlink:href="#m206d65f342" x="209.475" y="128.16" style="stroke: #000000; stroke-width: 0.8"/>
      </g>
     </g>
     <g id="text_4">
      <!-- −1 -->
      <g transform="translate(196.207031 148.837187)scale(0.18 -0.18)">
       <defs>
        <path id="DejaVuSans-31" d="M 794 531 
L 1825 531 
L 1825 4091 
L 703 3866 
L 703 4441 
L 1819 4666 
L 2450 4666 
L 2450 531 
L 3481 531 
L 3481 0 
L 794 0 
L 794 531 
z
" transform="scale(0.015625)"/>
       </defs>
       <use xlink:href="#DejaVuSans-2212"/>
       <use xlink:href="#DejaVuSans-31" x="83.789062"/>
      </g>
     </g>
    </g>
    <g id="xtick_5">
     <g id="line2d_9">
      <path d="M 258.3 128.16 
L 258.3 17.28 
" clip-path="url(#pafd38c440c)" style="fill: none; stroke: #b0b0b0; stroke-width: 0.2; stroke-linecap: square"/>
     </g>
     <g id="line2d_10">
      <g>
       <use xlink:href="#m206d65f342" x="258.3" y="128.16" style="stroke: #000000; stroke-width: 0.8"/>
      </g>
     </g>
     <g id="text_5">
      <!-- 0 -->
      <g transform="translate(252.57375 148.837187)scale(0.18 -0.18)">
       <defs>
        <path id="DejaVuSans-30" d="M 2034 4250 
Q 1547 4250 1301 3770 
Q 1056 3291 1056 2328 
Q 1056 1369 1301 889 
Q 1547 409 2034 409 
Q 2525 409 2770 889 
Q 3016 1369 3016 2328 
Q 3016 3291 2770 3770 
Q 2525 4250 2034 4250 
z
M 2034 4750 
Q 2819 4750 3233 4129 
Q 3647 3509 3647 2328 
Q 3647 1150 3233 529 
Q 2819 -91 2034 -91 
Q 1250 -91 836 529 
Q 422 1150 422 2328 
Q 422 3509 836 4129 
Q 1250 4750 2034 4750 
z
" transform="scale(0.015625)"/>
       </defs>
       <use xlink:href="#DejaVuSans-30"/>
      </g>
     </g>
    </g>
    <g id="xtick_6">
     <g id="line2d_11">
      <path d="M 307.125 128.16 
L 307.125 17.28 
" clip-path="url(#pafd38c440c)" style="fill: none; stroke: #b0b0b0; stroke-width: 0.2; stroke-linecap: square"/>
     </g>
     <g id="line2d_12">
      <g>
       <use xlink:href="#m206d65f342" x="307.125" y="128.16" style="stroke: #000000; stroke-width: 0.8"/>
      </g>
     </g>
     <g id="text_6">
      <!-- 1 -->
      <g transform="translate(301.39875 148.837187)scale(0.18 -0.18)">
       <use xlink:href="#DejaVuSans-31"/>
      </g>
     </g>
    </g>
    <g id="xtick_7">
     <g id="line2d_13">
      <path d="M 355.95 128.16 
L 355.95 17.28 
" clip-path="url(#pafd38c440c)" style="fill: none; stroke: #b0b0b0; stroke-width: 0.2; stroke-linecap: square"/>
     </g>
     <g id="line2d_14">
      <g>
       <use xlink:href="#m206d65f342" x="355.95" y="128.16" style="stroke: #000000; stroke-width: 0.8"/>
      </g>
     </g>
     <g id="text_7">
      <!-- 2 -->
      <g transform="translate(350.22375 148.837187)scale(0.18 -0.18)">
       <use xlink:href="#DejaVuSans-32"/>
      </g>
     </g>
    </g>
    <g id="xtick_8">
     <g id="line2d_15">
      <path d="M 404.775 128.16 
L 404.775 17.28 
" clip-path="url(#pafd38c440c)" style="fill: none; stroke: #b0b0b0; stroke-width: 0.2; stroke-linecap: square"/>
     </g>
     <g id="line2d_16">
      <g>
       <use xlink:href="#m206d65f342" x="404.775" y="128.16" style="stroke: #000000; stroke-width: 0.8"/>
      </g>
     </g>
     <g id="text_8">
      <!-- 3 -->
      <g transform="translate(399.04875 148.837187)scale(0.18 -0.18)">
       <use xlink:href="#DejaVuSans-33"/>
      </g>
     </g>
    </g>
    <g id="xtick_9">
     <g id="line2d_17">
      <path d="M 453.6 128.16 
L 453.6 17.28 
" clip-path="url(#pafd38c440c)" style="fill: none; stroke: #b0b0b0; stroke-width: 0.2; stroke-linecap: square"/>
     </g>
     <g id="line2d_18">
      <g>
       <use xlink:href="#m206d65f342" x="453.6" y="128.16" style="stroke: #000000; stroke-width: 0.8"/>
      </g>
     </g>
     <g id="text_9">
      <!-- 4 -->
      <g transform="translate(447.87375 148.837187)scale(0.18 -0.18)">
       <use xlink:href="#DejaVuSans-34"/>
      </g>
     </g>
    </g>
    <g id="text_10">
     <!-- $\langle R_e^{mut}\ -\  R_e^{WT} \rangle \ (\AA)$ -->
     <g transform="translate(172.7 175.180625)scale(0.2 -0.2)">
      <defs>
       <path id="DejaVuSans-27e8" d="M 572 2006 
L 1453 4856 
L 1984 4856 
L 1103 2006 
L 1984 -844 
L 1453 -844 
L 572 2006 
z
" transform="scale(0.015625)"/>
       <path id="DejaVuSans-Oblique-52" d="M 1613 4147 
L 1294 2491 
L 2106 2491 
Q 2584 2491 2879 2755 
Q 3175 3019 3175 3444 
Q 3175 3784 2976 3965 
Q 2778 4147 2406 4147 
L 1613 4147 
z
M 2772 2241 
Q 2972 2194 3105 2009 
Q 3238 1825 3413 1275 
L 3809 0 
L 3144 0 
L 2778 1197 
Q 2638 1659 2453 1815 
Q 2269 1972 1888 1972 
L 1191 1972 
L 806 0 
L 172 0 
L 1081 4666 
L 2503 4666 
Q 3150 4666 3495 4373 
Q 3841 4081 3841 3531 
Q 3841 3044 3547 2687 
Q 3253 2331 2772 2241 
z
" transform="scale(0.015625)"/>
       <path id="DejaVuSans-Oblique-6d" d="M 5747 2113 
L 5338 0 
L 4763 0 
L 5166 2094 
Q 5191 2228 5203 2325 
Q 5216 2422 5216 2491 
Q 5216 2772 5059 2928 
Q 4903 3084 4622 3084 
Q 4203 3084 3875 2770 
Q 3547 2456 3450 1953 
L 3066 0 
L 2491 0 
L 2900 2094 
Q 2925 2209 2937 2307 
Q 2950 2406 2950 2484 
Q 2950 2769 2794 2926 
Q 2638 3084 2363 3084 
Q 1938 3084 1609 2770 
Q 1281 2456 1184 1953 
L 800 0 
L 225 0 
L 909 3500 
L 1484 3500 
L 1375 2956 
Q 1609 3263 1923 3423 
Q 2238 3584 2597 3584 
Q 2978 3584 3223 3384 
Q 3469 3184 3519 2828 
Q 3781 3197 4126 3390 
Q 4472 3584 4856 3584 
Q 5306 3584 5551 3325 
Q 5797 3066 5797 2591 
Q 5797 2488 5784 2364 
Q 5772 2241 5747 2113 
z
" transform="scale(0.015625)"/>
       <path id="DejaVuSans-Oblique-75" d="M 428 1388 
L 838 3500 
L 1416 3500 
L 1006 1409 
Q 975 1256 961 1147 
Q 947 1038 947 966 
Q 947 700 1109 554 
Q 1272 409 1569 409 
Q 2031 409 2368 721 
Q 2706 1034 2809 1563 
L 3194 3500 
L 3769 3500 
L 3091 0 
L 2516 0 
L 2631 550 
Q 2388 244 2052 76 
Q 1716 -91 1338 -91 
Q 878 -91 622 161 
Q 366 413 366 863 
Q 366 956 381 1097 
Q 397 1238 428 1388 
z
" transform="scale(0.015625)"/>
       <path id="DejaVuSans-Oblique-74" d="M 2706 3500 
L 2619 3053 
L 1472 3053 
L 1100 1153 
Q 1081 1047 1072 975 
Q 1063 903 1063 863 
Q 1063 663 1183 572 
Q 1303 481 1569 481 
L 2150 481 
L 2053 0 
L 1503 0 
Q 991 0 739 200 
Q 488 400 488 806 
Q 488 878 497 964 
Q 506 1050 525 1153 
L 897 3053 
L 409 3053 
L 500 3500 
L 978 3500 
L 1172 4494 
L 1747 4494 
L 1556 3500 
L 2706 3500 
z
" transform="scale(0.015625)"/>
       <path id="DejaVuSans-Oblique-65" d="M 3078 2063 
Q 3088 2113 3092 2166 
Q 3097 2219 3097 2272 
Q 3097 2653 2873 2875 
Q 2650 3097 2266 3097 
Q 1838 3097 1509 2826 
Q 1181 2556 1013 2059 
L 3078 2063 
z
M 3578 1613 
L 903 1613 
Q 884 1494 878 1425 
Q 872 1356 872 1306 
Q 872 872 1139 634 
Q 1406 397 1894 397 
Q 2269 397 2603 481 
Q 2938 566 3225 728 
L 3116 159 
Q 2806 34 2476 -28 
Q 2147 -91 1806 -91 
Q 1078 -91 686 257 
Q 294 606 294 1247 
Q 294 1794 489 2264 
Q 684 2734 1063 3103 
Q 1306 3334 1642 3459 
Q 1978 3584 2356 3584 
Q 2950 3584 3301 3228 
Q 3653 2872 3653 2272 
Q 3653 2128 3634 1964 
Q 3616 1800 3578 1613 
z
" transform="scale(0.015625)"/>
       <path id="DejaVuSans-Oblique-57" d="M 616 4666 
L 1228 4666 
L 1453 697 
L 3213 4666 
L 3916 4666 
L 4147 697 
L 5888 4666 
L 6528 4666 
L 4453 0 
L 3659 0 
L 3444 3891 
L 1697 0 
L 903 0 
L 616 4666 
z
" transform="scale(0.015625)"/>
       <path id="DejaVuSans-Oblique-54" d="M 378 4666 
L 4325 4666 
L 4225 4134 
L 2559 4134 
L 1759 0 
L 1125 0 
L 1925 4134 
L 275 4134 
L 378 4666 
z
" transform="scale(0.015625)"/>
       <path id="DejaVuSans-27e9" d="M 1925 2006 
L 1044 -844 
L 513 -844 
L 1394 2006 
L 513 4856 
L 1044 4856 
L 1925 2006 
z
" transform="scale(0.015625)"/>
       <path id="DejaVuSans-28" d="M 1984 4856 
Q 1566 4138 1362 3434 
Q 1159 2731 1159 2009 
Q 1159 1288 1364 580 
Q 1569 -128 1984 -844 
L 1484 -844 
Q 1016 -109 783 600 
Q 550 1309 550 2009 
Q 550 2706 781 3412 
Q 1013 4119 1484 4856 
L 1984 4856 
z
" transform="scale(0.015625)"/>
       <path id="DejaVuSans-Oblique-c5" d="M 3188 5081 
Q 3188 5278 3048 5417 
Q 2909 5556 2713 5556 
Q 2513 5556 2377 5420 
Q 2241 5284 2241 5081 
Q 2241 4884 2377 4746 
Q 2513 4609 2713 4609 
Q 2909 4609 3048 4746 
Q 3188 4884 3188 5081 
z
M 2203 4397 
Q 2034 4513 1945 4689 
Q 1856 4866 1856 5081 
Q 1856 5438 2106 5689 
Q 2356 5941 2713 5941 
Q 3069 5941 3320 5689 
Q 3572 5438 3572 5081 
Q 3572 4834 3458 4643 
Q 3344 4453 3128 4341 
L 3938 0 
L 3278 0 
L 3084 1197 
L 984 1197 
L 325 0 
L -341 0 
L 2203 4397 
z
M 2584 4044 
L 1275 1722 
L 2988 1722 
L 2584 4044 
z
" transform="scale(0.015625)"/>
       <path id="DejaVuSans-29" d="M 513 4856 
L 1013 4856 
Q 1481 4119 1714 3412 
Q 1947 2706 1947 2009 
Q 1947 1309 1714 600 
Q 1481 -109 1013 -844 
L 513 -844 
Q 928 -128 1133 580 
Q 1338 1288 1338 2009 
Q 1338 2731 1133 3434 
Q 928 4138 513 4856 
z
" transform="scale(0.015625)"/>
      </defs>
      <use xlink:href="#DejaVuSans-27e8" transform="translate(0 0.171875)"/>
      <use xlink:href="#DejaVuSans-Oblique-52" transform="translate(39.013672 0.171875)"/>
      <use xlink:href="#DejaVuSans-Oblique-6d" transform="translate(115.512865 38.453125)scale(0.7)"/>
      <use xlink:href="#DejaVuSans-Oblique-75" transform="translate(183.701341 38.453125)scale(0.7)"/>
      <use xlink:href="#DejaVuSans-Oblique-74" transform="translate(228.066576 38.453125)scale(0.7)"/>
      <use xlink:href="#DejaVuSans-Oblique-65" transform="translate(108.496094 -27.171875)scale(0.7)"/>
      <use xlink:href="#DejaVuSans-2212" transform="translate(310.20004 0.171875)"/>
      <use xlink:href="#DejaVuSans-Oblique-52" transform="translate(445.941903 0.171875)"/>
      <use xlink:href="#DejaVuSans-Oblique-57" transform="translate(522.441095 38.453125)scale(0.7)"/>
      <use xlink:href="#DejaVuSans-Oblique-54" transform="translate(591.654963 38.453125)scale(0.7)"/>
      <use xlink:href="#DejaVuSans-Oblique-65" transform="translate(515.424325 -27.171875)scale(0.7)"/>
      <use xlink:href="#DejaVuSans-27e9" transform="translate(637.148127 0.171875)"/>
      <use xlink:href="#DejaVuSans-28" transform="translate(708.632177 0.171875)"/>
      <use xlink:href="#DejaVuSans-Oblique-c5" transform="translate(747.645849 0.171875)"/>
      <use xlink:href="#DejaVuSans-29" transform="translate(816.054052 0.171875)"/>
     </g>
    </g>
   </g>
   <g id="matplotlib.axis_2">
    <g id="ytick_1">
     <g id="line2d_19">
      <path d="M 63 123.12 
L 453.6 123.12 
" clip-path="url(#pafd38c440c)" style="fill: none; stroke: #b0b0b0; stroke-width: 0.2; stroke-linecap: square"/>
     </g>
     <g id="line2d_20">
      <defs>
       <path id="mdf30d1bb7f" d="M 0 0 
L -3.5 0 
" style="stroke: #000000; stroke-width: 0.8"/>
      </defs>
      <g>
       <use xlink:href="#mdf30d1bb7f" x="63" y="123.12" style="stroke: #000000; stroke-width: 0.8"/>
      </g>
     </g>
     <g id="text_11">
      <!-- $\mathdefault{10^{0}}$ -->
      <g transform="translate(24.32 129.958594)scale(0.18 -0.18)">
       <use xlink:href="#DejaVuSans-31" transform="translate(0 0.765625)"/>
       <use xlink:href="#DejaVuSans-30" transform="translate(63.623047 0.765625)"/>
       <use xlink:href="#DejaVuSans-30" transform="translate(128.203125 39.046875)scale(0.7)"/>
      </g>
     </g>
    </g>
    <g id="ytick_2">
     <g id="line2d_21">
      <path d="M 63 100.027123 
L 453.6 100.027123 
" clip-path="url(#pafd38c440c)" style="fill: none; stroke: #b0b0b0; stroke-width: 0.2; stroke-linecap: square"/>
     </g>
     <g id="line2d_22">
      <g>
       <use xlink:href="#mdf30d1bb7f" x="63" y="100.027123" style="stroke: #000000; stroke-width: 0.8"/>
      </g>
     </g>
     <g id="text_12">
      <!-- $\mathdefault{10^{1}}$ -->
      <g transform="translate(24.32 106.865716)scale(0.18 -0.18)">
       <use xlink:href="#DejaVuSans-31" transform="translate(0 0.684375)"/>
       <use xlink:href="#DejaVuSans-30" transform="translate(63.623047 0.684375)"/>
       <use xlink:href="#DejaVuSans-31" transform="translate(128.203125 38.965625)scale(0.7)"/>
      </g>
     </g>
    </g>
    <g id="ytick_3">
     <g id="line2d_23">
      <path d="M 63 76.934245 
L 453.6 76.934245 
" clip-path="url(#pafd38c440c)" style="fill: none; stroke: #b0b0b0; stroke-width: 0.2; stroke-linecap: square"/>
     </g>
     <g id="line2d_24">
      <g>
       <use xlink:href="#mdf30d1bb7f" x="63" y="76.934245" style="stroke: #000000; stroke-width: 0.8"/>
      </g>
     </g>
     <g id="text_13">
      <!-- $\mathdefault{10^{2}}$ -->
      <g transform="translate(24.32 83.772839)scale(0.18 -0.18)">
       <use xlink:href="#DejaVuSans-31" transform="translate(0 0.765625)"/>
       <use xlink:href="#DejaVuSans-30" transform="translate(63.623047 0.765625)"/>
       <use xlink:href="#DejaVuSans-32" transform="translate(128.203125 39.046875)scale(0.7)"/>
      </g>
     </g>
    </g>
    <g id="ytick_4">
     <g id="line2d_25">
      <path d="M 63 53.841368 
L 453.6 53.841368 
" clip-path="url(#pafd38c440c)" style="fill: none; stroke: #b0b0b0; stroke-width: 0.2; stroke-linecap: square"/>
     </g>
     <g id="line2d_26">
      <g>
       <use xlink:href="#mdf30d1bb7f" x="63" y="53.841368" style="stroke: #000000; stroke-width: 0.8"/>
      </g>
     </g>
     <g id="text_14">
      <!-- $\mathdefault{10^{3}}$ -->
      <g transform="translate(24.32 60.679962)scale(0.18 -0.18)">
       <use xlink:href="#DejaVuSans-31" transform="translate(0 0.765625)"/>
       <use xlink:href="#DejaVuSans-30" transform="translate(63.623047 0.765625)"/>
       <use xlink:href="#DejaVuSans-33" transform="translate(128.203125 39.046875)scale(0.7)"/>
      </g>
     </g>
    </g>
    <g id="ytick_5">
     <g id="line2d_27">
      <path d="M 63 30.748491 
L 453.6 30.748491 
" clip-path="url(#pafd38c440c)" style="fill: none; stroke: #b0b0b0; stroke-width: 0.2; stroke-linecap: square"/>
     </g>
     <g id="line2d_28">
      <g>
       <use xlink:href="#mdf30d1bb7f" x="63" y="30.748491" style="stroke: #000000; stroke-width: 0.8"/>
      </g>
     </g>
     <g id="text_15">
      <!-- $\mathdefault{10^{4}}$ -->
      <g transform="translate(24.32 37.587084)scale(0.18 -0.18)">
       <use xlink:href="#DejaVuSans-31" transform="translate(0 0.684375)"/>
       <use xlink:href="#DejaVuSans-30" transform="translate(63.623047 0.684375)"/>
       <use xlink:href="#DejaVuSans-34" transform="translate(128.203125 38.965625)scale(0.7)"/>
      </g>
     </g>
    </g>
    <g id="text_16">
     <!-- counts -->
     <g transform="translate(16.160625 106.141875)rotate(-90)scale(0.2 -0.2)">
      <defs>
       <path id="DejaVuSans-63" d="M 3122 3366 
L 3122 2828 
Q 2878 2963 2633 3030 
Q 2388 3097 2138 3097 
Q 1578 3097 1268 2742 
Q 959 2388 959 1747 
Q 959 1106 1268 751 
Q 1578 397 2138 397 
Q 2388 397 2633 464 
Q 2878 531 3122 666 
L 3122 134 
Q 2881 22 2623 -34 
Q 2366 -91 2075 -91 
Q 1284 -91 818 406 
Q 353 903 353 1747 
Q 353 2603 823 3093 
Q 1294 3584 2113 3584 
Q 2378 3584 2631 3529 
Q 2884 3475 3122 3366 
z
" transform="scale(0.015625)"/>
       <path id="DejaVuSans-6f" d="M 1959 3097 
Q 1497 3097 1228 2736 
Q 959 2375 959 1747 
Q 959 1119 1226 758 
Q 1494 397 1959 397 
Q 2419 397 2687 759 
Q 2956 1122 2956 1747 
Q 2956 2369 2687 2733 
Q 2419 3097 1959 3097 
z
M 1959 3584 
Q 2709 3584 3137 3096 
Q 3566 2609 3566 1747 
Q 3566 888 3137 398 
Q 2709 -91 1959 -91 
Q 1206 -91 779 398 
Q 353 888 353 1747 
Q 353 2609 779 3096 
Q 1206 3584 1959 3584 
z
" transform="scale(0.015625)"/>
       <path id="DejaVuSans-75" d="M 544 1381 
L 544 3500 
L 1119 3500 
L 1119 1403 
Q 1119 906 1312 657 
Q 1506 409 1894 409 
Q 2359 409 2629 706 
Q 2900 1003 2900 1516 
L 2900 3500 
L 3475 3500 
L 3475 0 
L 2900 0 
L 2900 538 
Q 2691 219 2414 64 
Q 2138 -91 1772 -91 
Q 1169 -91 856 284 
Q 544 659 544 1381 
z
M 1991 3584 
L 1991 3584 
z
" transform="scale(0.015625)"/>
       <path id="DejaVuSans-6e" d="M 3513 2113 
L 3513 0 
L 2938 0 
L 2938 2094 
Q 2938 2591 2744 2837 
Q 2550 3084 2163 3084 
Q 1697 3084 1428 2787 
Q 1159 2491 1159 1978 
L 1159 0 
L 581 0 
L 581 3500 
L 1159 3500 
L 1159 2956 
Q 1366 3272 1645 3428 
Q 1925 3584 2291 3584 
Q 2894 3584 3203 3211 
Q 3513 2838 3513 2113 
z
" transform="scale(0.015625)"/>
       <path id="DejaVuSans-74" d="M 1172 4494 
L 1172 3500 
L 2356 3500 
L 2356 3053 
L 1172 3053 
L 1172 1153 
Q 1172 725 1289 603 
Q 1406 481 1766 481 
L 2356 481 
L 2356 0 
L 1766 0 
Q 1100 0 847 248 
Q 594 497 594 1153 
L 594 3053 
L 172 3053 
L 172 3500 
L 594 3500 
L 594 4494 
L 1172 4494 
z
" transform="scale(0.015625)"/>
       <path id="DejaVuSans-73" d="M 2834 3397 
L 2834 2853 
Q 2591 2978 2328 3040 
Q 2066 3103 1784 3103 
Q 1356 3103 1142 2972 
Q 928 2841 928 2578 
Q 928 2378 1081 2264 
Q 1234 2150 1697 2047 
L 1894 2003 
Q 2506 1872 2764 1633 
Q 3022 1394 3022 966 
Q 3022 478 2636 193 
Q 2250 -91 1575 -91 
Q 1294 -91 989 -36 
Q 684 19 347 128 
L 347 722 
Q 666 556 975 473 
Q 1284 391 1588 391 
Q 1994 391 2212 530 
Q 2431 669 2431 922 
Q 2431 1156 2273 1281 
Q 2116 1406 1581 1522 
L 1381 1569 
Q 847 1681 609 1914 
Q 372 2147 372 2553 
Q 372 3047 722 3315 
Q 1072 3584 1716 3584 
Q 2034 3584 2315 3537 
Q 2597 3491 2834 3397 
z
" transform="scale(0.015625)"/>
      </defs>
      <use xlink:href="#DejaVuSans-63"/>
      <use xlink:href="#DejaVuSans-6f" x="54.980469"/>
      <use xlink:href="#DejaVuSans-75" x="116.162109"/>
      <use xlink:href="#DejaVuSans-6e" x="179.541016"/>
      <use xlink:href="#DejaVuSans-74" x="242.919922"/>
      <use xlink:href="#DejaVuSans-73" x="282.128906"/>
     </g>
    </g>
   </g>
   <g id="patch_102">
    <path d="M 78.781818 145 
L 78.781818 123.12 
L 82.727273 123.12 
L 82.727273 116.168351 
L 86.672727 116.168351 
L 86.672727 145 
M 90.618182 145 
L 90.618182 123.12 
L 94.563636 123.12 
L 94.563636 145 
M 98.509091 145 
L 98.509091 116.168351 
L 102.454545 116.168351 
L 102.454545 145 
M 110.345455 145 
L 110.345455 105.150249 
L 114.290909 105.150249 
L 114.290909 112.101897 
L 118.236364 112.101897 
L 118.236364 101.083795 
L 122.181818 101.083795 
L 122.181818 109.216702 
L 126.127273 109.216702 
L 126.127273 95.960669 
L 130.072727 95.960669 
L 130.072727 105.150249 
L 134.018182 105.150249 
L 134.018182 94.705394 
L 137.963636 94.705394 
L 137.963636 96.652606 
L 141.909091 96.652606 
L 141.909091 94.705394 
L 145.854545 94.705394 
L 145.854545 89.700957 
L 149.8 89.700957 
L 149.8 83.687291 
L 153.745455 83.687291 
L 153.745455 80.802096 
L 157.690909 80.802096 
L 157.690909 79.04759 
L 161.636364 79.04759 
L 161.636364 75.887607 
L 165.581818 75.887607 
L 165.581818 72.734954 
L 169.527273 72.734954 
L 169.527273 69.783994 
L 173.472727 69.783994 
L 173.472727 67.865743 
L 177.418182 67.865743 
L 177.418182 65.426821 
L 181.363636 65.426821 
L 181.363636 61.651086 
L 185.309091 61.651086 
L 185.309091 59.800737 
L 189.254545 59.800737 
L 189.254545 57.108151 
L 193.2 57.108151 
L 193.2 54.085002 
L 197.145455 54.085002 
L 197.145455 50.574886 
L 201.090909 50.574886 
L 201.090909 48.886122 
L 205.036364 48.886122 
L 205.036364 46.506018 
L 208.981818 46.506018 
L 208.981818 43.92088 
L 212.927273 43.92088 
L 212.927273 42.188546 
L 216.872727 42.188546 
L 216.872727 39.583369 
L 220.818182 39.583369 
L 220.818182 37.335762 
L 224.763636 37.335762 
L 224.763636 35.20713 
L 228.709091 35.20713 
L 228.709091 33.495571 
L 232.654545 33.495571 
L 232.654545 32.463725 
L 236.6 32.463725 
L 236.6 31.299934 
L 240.545455 31.299934 
L 240.545455 29.318065 
L 244.490909 29.318065 
L 244.490909 27.005453 
L 248.436364 27.005453 
L 248.436364 24.523583 
L 252.381818 24.523583 
L 252.381818 25.991615 
L 256.327273 25.991615 
L 256.327273 37.163173 
L 260.272727 37.163173 
L 260.272727 23.91183 
L 264.218182 23.91183 
L 264.218182 22.32 
L 268.163636 22.32 
L 268.163636 25.362077 
L 272.109091 25.362077 
L 272.109091 29.536967 
L 276.054545 29.536967 
L 276.054545 34.220157 
L 280 34.220157 
L 280 37.301006 
L 283.945455 37.301006 
L 283.945455 39.518237 
L 287.890909 39.518237 
L 287.890909 41.695638 
L 291.836364 41.695638 
L 291.836364 44.162466 
L 295.781818 44.162466 
L 295.781818 47.890828 
L 299.727273 47.890828 
L 299.727273 52.130539 
L 303.672727 52.130539 
L 303.672727 53.73165 
L 307.618182 53.73165 
L 307.618182 58.115555 
L 311.563636 58.115555 
L 311.563636 60.673384 
L 315.509091 60.673384 
L 315.509091 64.032057 
L 319.454545 64.032057 
L 319.454545 65.331757 
L 323.4 65.331757 
L 323.4 69.637581 
L 327.345455 69.637581 
L 327.345455 72.538939 
L 331.290909 72.538939 
L 331.290909 77.770489 
L 335.236364 77.770489 
L 335.236364 77.239724 
L 339.181818 77.239724 
L 339.181818 81.101495 
L 343.127273 81.101495 
L 343.127273 85.167949 
L 347.072727 85.167949 
L 347.072727 84.722137 
L 351.018182 84.722137 
L 351.018182 91.673786 
L 354.963636 91.673786 
L 354.963636 93.5899 
L 358.909091 93.5899 
L 358.909091 95.960669 
L 362.854545 95.960669 
L 362.854545 99.071246 
L 366.8 99.071246 
L 366.8 100.027123 
L 370.745455 100.027123 
L 370.745455 103.604255 
L 374.690909 103.604255 
L 374.690909 101.083795 
L 378.636364 101.083795 
L 378.636364 109.216702 
L 386.527273 109.216702 
L 386.527273 123.12 
L 390.472727 123.12 
L 390.472727 112.101897 
L 394.418182 112.101897 
L 394.418182 116.168351 
L 406.254545 116.168351 
L 406.254545 145 
M 410.2 145 
L 410.2 116.168351 
L 414.145455 116.168351 
L 414.145455 145 
M 418.090909 145 
L 418.090909 123.12 
L 422.036364 123.12 
L 422.036364 145 
M 429.927273 145 
L 429.927273 116.168351 
L 433.872727 116.168351 
L 433.872727 123.12 
L 437.818182 123.12 
L 437.818182 145 
M 445.709091 145 
L 445.709091 123.12 
L 449.654545 123.12 
L 449.654545 145 
L 449.654545 145 
" clip-path="url(#pafd38c440c)" style="fill: none; stroke: #000000; stroke-linejoin: miter"/>
   </g>
   <g id="patch_103">
    <path d="M 63 128.16 
L 63 17.28 
" style="fill: none; stroke: #000000; stroke-width: 0.8; stroke-linejoin: miter; stroke-linecap: square"/>
   </g>
   <g id="patch_104">
    <path d="M 453.6 128.16 
L 453.6 17.28 
" style="fill: none; stroke: #000000; stroke-width: 0.8; stroke-linejoin: miter; stroke-linecap: square"/>
   </g>
   <g id="patch_105">
    <path d="M 63 128.16 
L 453.6 128.16 
" style="fill: none; stroke: #000000; stroke-width: 0.8; stroke-linejoin: miter; stroke-linecap: square"/>
   </g>
   <g id="patch_106">
    <path d="M 63 17.28 
L 453.6 17.28 
" style="fill: none; stroke: #000000; stroke-width: 0.8; stroke-linejoin: miter; stroke-linecap: square"/>
   </g>
  </g>
 </g>
 <defs>
  <clipPath id="pafd38c440c">
   <rect x="63" y="17.28" width="390.6" height="110.88"/>
  </clipPath>
 </defs>
</svg>
